<svg width="10" height="12" viewBox="0 0 10 12" fill="none" xmlns="http://www.w3.org/2000/svg">
<path d="M9.68453 3.50297L6.62203 0.440469C6.58137 0.399854 6.53311 0.367648 6.48 0.34569C6.42689 0.323733 6.36997 0.312455 6.3125 0.3125H1.0625C0.830436 0.3125 0.607876 0.404687 0.443782 0.568782C0.279687 0.732876 0.1875 0.955436 0.1875 1.1875V10.8125C0.1875 11.0446 0.279687 11.2671 0.443782 11.4312C0.607876 11.5953 0.830436 11.6875 1.0625 11.6875H8.9375C9.16956 11.6875 9.39212 11.5953 9.55622 11.4312C9.72031 11.2671 9.8125 11.0446 9.8125 10.8125V3.8125C9.81254 3.75503 9.80127 3.69811 9.77931 3.645C9.75735 3.59189 9.72515 3.54363 9.68453 3.50297ZM6.75 1.80602L8.31898 3.375H6.75V1.80602ZM8.9375 10.8125H1.0625V1.1875H5.875V3.8125C5.875 3.92853 5.92109 4.03981 6.00314 4.12186C6.08519 4.20391 6.19647 4.25 6.3125 4.25H8.9375V10.8125ZM6.75 7.3125C6.75 7.42853 6.70391 7.53981 6.62186 7.62186C6.53981 7.70391 6.42853 7.75 6.3125 7.75H5.4375V8.625C5.4375 8.74103 5.39141 8.85231 5.30936 8.93436C5.22731 9.01641 5.11603 9.0625 5 9.0625C4.88397 9.0625 4.77269 9.01641 4.69064 8.93436C4.60859 8.85231 4.5625 8.74103 4.5625 8.625V7.75H3.6875C3.57147 7.75 3.46019 7.70391 3.37814 7.62186C3.29609 7.53981 3.25 7.42853 3.25 7.3125C3.25 7.19647 3.29609 7.08519 3.37814 7.00314C3.46019 6.92109 3.57147 6.875 3.6875 6.875H4.5625V6C4.5625 5.88397 4.60859 5.77269 4.69064 5.69064C4.77269 5.60859 4.88397 5.5625 5 5.5625C5.11603 5.5625 5.22731 5.60859 5.30936 5.69064C5.39141 5.77269 5.4375 5.88397 5.4375 6V6.875H6.3125C6.42853 6.875 6.53981 6.92109 6.62186 7.00314C6.70391 7.08519 6.75 7.19647 6.75 7.3125Z" fill="#3f51b5"/>
</svg>
