<svg width="18" height="18" viewBox="0 0 18 18" fill="none" xmlns="http://www.w3.org/2000/svg">
<path d="M9 8.4375C9.14918 8.4375 9.29226 8.49676 9.39775 8.60225C9.50324 8.70774 9.5625 8.85082 9.5625 9V10.125H10.6875C10.8367 10.125 10.9798 10.1843 11.0852 10.2898C11.1907 10.3952 11.25 10.5383 11.25 10.6875C11.25 10.8367 11.1907 10.9798 11.0852 11.0852C10.9798 11.1907 10.8367 11.25 10.6875 11.25H9.5625V12.375C9.5625 12.5242 9.50324 12.6673 9.39775 12.7727C9.29226 12.8782 9.14918 12.9375 9 12.9375C8.85082 12.9375 8.70774 12.8782 8.60225 12.7727C8.49676 12.6673 8.4375 12.5242 8.4375 12.375V11.25H7.3125C7.16332 11.25 7.02024 11.1907 6.91475 11.0852C6.80926 10.9798 6.75 10.8367 6.75 10.6875C6.75 10.5383 6.80926 10.3952 6.91475 10.2898C7.02024 10.1843 7.16332 10.125 7.3125 10.125H8.4375V9C8.4375 8.85082 8.49676 8.70774 8.60225 8.60225C8.70774 8.49676 8.85082 8.4375 9 8.4375ZM16.3125 6.1875V14.0625C16.3125 14.3609 16.194 14.647 15.983 14.858C15.772 15.069 15.4859 15.1875 15.1875 15.1875H2.8125C2.51413 15.1875 2.22798 15.069 2.017 14.858C1.80603 14.647 1.6875 14.3609 1.6875 14.0625V4.5C1.6875 4.20163 1.80603 3.91548 2.017 3.7045C2.22798 3.49353 2.51413 3.375 2.8125 3.375H6.56227C6.80558 3.3756 7.04225 3.45449 7.23727 3.6L9.18773 5.0625H15.1875C15.4859 5.0625 15.772 5.18103 15.983 5.392C16.194 5.60298 16.3125 5.88913 16.3125 6.1875ZM2.8125 6.75H6.56227L8.06273 5.625L6.56227 4.5H2.8125V6.75ZM15.1875 6.1875H9.18773L7.23727 7.65C7.04225 7.79551 6.80558 7.8744 6.56227 7.875H2.8125V14.0625H15.1875V6.1875Z" fill="#4D4D4D"/>
</svg>
