<svg width="12" height="12" viewBox="0 0 12 12" fill="none" xmlns="http://www.w3.org/2000/svg">
<path d="M3.54945 8.5375C3.59543 8.57206 3.64778 8.59721 3.70349 8.61151C3.7592 8.62582 3.81718 8.629 3.87412 8.62087C3.93106 8.61275 3.98584 8.59347 4.03532 8.56415C4.08481 8.53483 4.12802 8.49604 4.1625 8.45C4.42739 8.09682 4.77087 7.81016 5.16574 7.61272C5.56061 7.41529 5.99602 7.3125 6.4375 7.3125C6.87898 7.3125 7.31439 7.41529 7.70926 7.61272C8.10413 7.81016 8.44761 8.09682 8.7125 8.45C8.74697 8.49596 8.79016 8.53469 8.8396 8.56396C8.88903 8.59323 8.94375 8.61248 9.00063 8.6206C9.0575 8.62873 9.11542 8.62557 9.17108 8.61131C9.22674 8.59705 9.27904 8.57197 9.325 8.5375C9.37096 8.50303 9.40969 8.45984 9.43896 8.4104C9.46823 8.36097 9.48748 8.30625 9.4956 8.24937C9.50373 8.1925 9.50057 8.13458 9.48631 8.07892C9.47205 8.02327 9.44697 7.97096 9.4125 7.925C9.0251 7.40561 8.5085 6.99667 7.91406 6.73883C8.23983 6.4414 8.46807 6.05244 8.56882 5.62298C8.66957 5.19353 8.63813 4.74364 8.47863 4.33237C8.31912 3.9211 8.03901 3.56766 7.67504 3.31844C7.31107 3.06922 6.88026 2.93585 6.43914 2.93585C5.99802 2.93585 5.56721 3.06922 5.20324 3.31844C4.83928 3.56766 4.55916 3.9211 4.39965 4.33237C4.24015 4.74364 4.20871 5.19353 4.30946 5.62298C4.41022 6.05244 4.63845 6.4414 4.96422 6.73883C4.36858 6.99618 3.8508 7.40516 3.4625 7.925C3.39282 8.01776 3.36284 8.13439 3.37915 8.24926C3.39545 8.36412 3.45671 8.4678 3.54945 8.5375ZM5.125 5.125C5.125 4.86541 5.20198 4.61165 5.3462 4.39581C5.49042 4.17997 5.6954 4.01175 5.93523 3.91241C6.17506 3.81307 6.43896 3.78708 6.69356 3.83772C6.94816 3.88836 7.18202 4.01337 7.36558 4.19692C7.54913 4.38048 7.67414 4.61434 7.72478 4.86894C7.77542 5.12354 7.74943 5.38744 7.65009 5.62727C7.55075 5.8671 7.38252 6.07208 7.16669 6.2163C6.95085 6.36052 6.69709 6.4375 6.4375 6.4375C6.0894 6.4375 5.75556 6.29922 5.50942 6.05308C5.26328 5.80694 5.125 5.4731 5.125 5.125ZM10.375 0.3125H2.5C2.26794 0.3125 2.04538 0.404687 1.88128 0.568782C1.71719 0.732876 1.625 0.955436 1.625 1.1875V2.5H0.75C0.633968 2.5 0.522688 2.54609 0.440641 2.62814C0.358594 2.71019 0.3125 2.82147 0.3125 2.9375C0.3125 3.05353 0.358594 3.16481 0.440641 3.24686C0.522688 3.32891 0.633968 3.375 0.75 3.375H1.625V5.5625H0.75C0.633968 5.5625 0.522688 5.60859 0.440641 5.69064C0.358594 5.77269 0.3125 5.88397 0.3125 6C0.3125 6.11603 0.358594 6.22731 0.440641 6.30936C0.522688 6.39141 0.633968 6.4375 0.75 6.4375H1.625V8.625H0.75C0.633968 8.625 0.522688 8.67109 0.440641 8.75314C0.358594 8.83519 0.3125 8.94647 0.3125 9.0625C0.3125 9.17853 0.358594 9.28981 0.440641 9.37186C0.522688 9.45391 0.633968 9.5 0.75 9.5H1.625V10.8125C1.625 11.0446 1.71719 11.2671 1.88128 11.4312C2.04538 11.5953 2.26794 11.6875 2.5 11.6875H10.375C10.6071 11.6875 10.8296 11.5953 10.9937 11.4312C11.1578 11.2671 11.25 11.0446 11.25 10.8125V1.1875C11.25 0.955436 11.1578 0.732876 10.9937 0.568782C10.8296 0.404687 10.6071 0.3125 10.375 0.3125ZM10.375 10.8125H2.5V1.1875H10.375V10.8125Z" fill="#3f51b5"/>
</svg>
