<svg width="14" height="16" viewBox="0 0 14 16" fill="none" xmlns="http://www.w3.org/2000/svg">
<path d="M7 0.6875C3.21508 0.6875 0.25 2.41719 0.25 4.625V11.375C0.25 13.5828 3.21508 15.3125 7 15.3125C10.7849 15.3125 13.75 13.5828 13.75 11.375V4.625C13.75 2.41719 10.7849 0.6875 7 0.6875ZM12.625 8C12.625 8.67641 12.0709 9.36617 11.1055 9.89281C10.0185 10.4855 8.56023 10.8125 7 10.8125C5.43977 10.8125 3.98148 10.4855 2.89445 9.89281C1.92906 9.36617 1.375 8.67641 1.375 8V6.83C2.57453 7.88469 4.62555 8.5625 7 8.5625C9.37445 8.5625 11.4255 7.88188 12.625 6.83V8ZM2.89445 2.73219C3.98148 2.13945 5.43977 1.8125 7 1.8125C8.56023 1.8125 10.0185 2.13945 11.1055 2.73219C12.0709 3.25883 12.625 3.94859 12.625 4.625C12.625 5.30141 12.0709 5.99117 11.1055 6.51781C10.0185 7.11055 8.56023 7.4375 7 7.4375C5.43977 7.4375 3.98148 7.11055 2.89445 6.51781C1.92906 5.99117 1.375 5.30141 1.375 4.625C1.375 3.94859 1.92906 3.25883 2.89445 2.73219ZM11.1055 13.2678C10.0185 13.8605 8.56023 14.1875 7 14.1875C5.43977 14.1875 3.98148 13.8605 2.89445 13.2678C1.92906 12.7412 1.375 12.0514 1.375 11.375V10.205C2.57453 11.2597 4.62555 11.9375 7 11.9375C9.37445 11.9375 11.4255 11.2569 12.625 10.205V11.375C12.625 12.0514 12.0709 12.7412 11.1055 13.2678Z" fill="#4D4D4D"/>
</svg>
