<svg width="16" height="13" viewBox="0 0 16 13" fill="none" xmlns="http://www.w3.org/2000/svg">
<path d="M8 5.4375C8.14918 5.4375 8.29226 5.49676 8.39775 5.60225C8.50324 5.70774 8.5625 5.85082 8.5625 6V7.125H9.6875C9.83668 7.125 9.97976 7.18426 10.0852 7.28975C10.1907 7.39524 10.25 7.53832 10.25 7.6875C10.25 7.83668 10.1907 7.97976 10.0852 8.08525C9.97976 8.19074 9.83668 8.25 9.6875 8.25H8.5625V9.375C8.5625 9.52418 8.50324 9.66726 8.39775 9.77275C8.29226 9.87824 8.14918 9.9375 8 9.9375C7.85082 9.9375 7.70774 9.87824 7.60225 9.77275C7.49676 9.66726 7.4375 9.52418 7.4375 9.375V8.25H6.3125C6.16332 8.25 6.02024 8.19074 5.91475 8.08525C5.80926 7.97976 5.75 7.83668 5.75 7.6875C5.75 7.53832 5.80926 7.39524 5.91475 7.28975C6.02024 7.18426 6.16332 7.125 6.3125 7.125H7.4375V6C7.4375 5.85082 7.49676 5.70774 7.60225 5.60225C7.70774 5.49676 7.85082 5.4375 8 5.4375ZM15.3125 3.1875V11.0625C15.3125 11.3609 15.194 11.647 14.983 11.858C14.772 12.069 14.4859 12.1875 14.1875 12.1875H1.8125C1.51413 12.1875 1.22798 12.069 1.017 11.858C0.806026 11.647 0.6875 11.3609 0.6875 11.0625V1.5C0.6875 1.20163 0.806026 0.915483 1.017 0.704505C1.22798 0.493526 1.51413 0.375 1.8125 0.375H5.56227C5.80558 0.375604 6.04225 0.454492 6.23727 0.6L8.18773 2.0625H14.1875C14.4859 2.0625 14.772 2.18103 14.983 2.392C15.194 2.60298 15.3125 2.88913 15.3125 3.1875ZM1.8125 3.75H5.56227L7.06273 2.625L5.56227 1.5H1.8125V3.75ZM14.1875 3.1875H8.18773L6.23727 4.65C6.04225 4.79551 5.80558 4.8744 5.56227 4.875H1.8125V11.0625H14.1875V3.1875Z" fill="#4D4D4D"/>
</svg>
