<svg width="12" height="8" viewBox="0 0 12 8" fill="none" xmlns="http://www.w3.org/2000/svg">
<path d="M3.8125 0.5C3.8125 0.383968 3.85859 0.272688 3.94064 0.190641C4.02269 0.108594 4.13397 0.0625 4.25 0.0625H10.8125C10.9285 0.0625 11.0398 0.108594 11.1219 0.190641C11.2039 0.272688 11.25 0.383968 11.25 0.5C11.25 0.616032 11.2039 0.727312 11.1219 0.809359C11.0398 0.891406 10.9285 0.9375 10.8125 0.9375H4.25C4.13397 0.9375 4.02269 0.891406 3.94064 0.809359C3.85859 0.727312 3.8125 0.616032 3.8125 0.5ZM10.8125 3.5625H4.25C4.13397 3.5625 4.02269 3.60859 3.94064 3.69064C3.85859 3.77269 3.8125 3.88397 3.8125 4C3.8125 4.11603 3.85859 4.22731 3.94064 4.30936C4.02269 4.39141 4.13397 4.4375 4.25 4.4375H10.8125C10.9285 4.4375 11.0398 4.39141 11.1219 4.30936C11.2039 4.22731 11.25 4.11603 11.25 4C11.25 3.88397 11.2039 3.77269 11.1219 3.69064C11.0398 3.60859 10.9285 3.5625 10.8125 3.5625ZM10.8125 7.0625H4.25C4.13397 7.0625 4.02269 7.10859 3.94064 7.19064C3.85859 7.27269 3.8125 7.38397 3.8125 7.5C3.8125 7.61603 3.85859 7.72731 3.94064 7.80936C4.02269 7.89141 4.13397 7.9375 4.25 7.9375H10.8125C10.9285 7.9375 11.0398 7.89141 11.1219 7.80936C11.2039 7.72731 11.25 7.61603 11.25 7.5C11.25 7.38397 11.2039 7.27269 11.1219 7.19064C11.0398 7.10859 10.9285 7.0625 10.8125 7.0625ZM2.0625 0.0625H1.1875C1.07147 0.0625 0.960188 0.108594 0.878141 0.190641C0.796094 0.272688 0.75 0.383968 0.75 0.5C0.75 0.616032 0.796094 0.727312 0.878141 0.809359C0.960188 0.891406 1.07147 0.9375 1.1875 0.9375H2.0625C2.17853 0.9375 2.28981 0.891406 2.37186 0.809359C2.45391 0.727312 2.5 0.616032 2.5 0.5C2.5 0.383968 2.45391 0.272688 2.37186 0.190641C2.28981 0.108594 2.17853 0.0625 2.0625 0.0625ZM2.0625 3.5625H1.1875C1.07147 3.5625 0.960188 3.60859 0.878141 3.69064C0.796094 3.77269 0.75 3.88397 0.75 4C0.75 4.11603 0.796094 4.22731 0.878141 4.30936C0.960188 4.39141 1.07147 4.4375 1.1875 4.4375H2.0625C2.17853 4.4375 2.28981 4.39141 2.37186 4.30936C2.45391 4.22731 2.5 4.11603 2.5 4C2.5 3.88397 2.45391 3.77269 2.37186 3.69064C2.28981 3.60859 2.17853 3.5625 2.0625 3.5625ZM2.0625 7.0625H1.1875C1.07147 7.0625 0.960188 7.10859 0.878141 7.19064C0.796094 7.27269 0.75 7.38397 0.75 7.5C0.75 7.61603 0.796094 7.72731 0.878141 7.80936C0.960188 7.89141 1.07147 7.9375 1.1875 7.9375H2.0625C2.17853 7.9375 2.28981 7.89141 2.37186 7.80936C2.45391 7.72731 2.5 7.61603 2.5 7.5C2.5 7.38397 2.45391 7.27269 2.37186 7.19064C2.28981 7.10859 2.17853 7.0625 2.0625 7.0625Z" fill="#3f51b5"/>
</svg>
