<svg width="16" height="16" viewBox="0 0 16 16" fill="none" xmlns="http://www.w3.org/2000/svg">
<path d="M10.8125 2.93751C10.8125 2.78832 10.8718 2.64525 10.9772 2.53976C11.0827 2.43427 11.2258 2.37501 11.375 2.37501H14.75C14.8992 2.37501 15.0422 2.43427 15.1477 2.53976C15.2532 2.64525 15.3125 2.78832 15.3125 2.93751C15.3125 3.08669 15.2532 3.22977 15.1477 3.33526C15.0422 3.44074 14.8992 3.50001 14.75 3.50001H11.375C11.2258 3.50001 11.0827 3.44074 10.9772 3.33526C10.8718 3.22977 10.8125 3.08669 10.8125 2.93751ZM15.2112 6.7822C15.4682 8.30978 15.2331 9.8795 14.5398 11.2647C13.8465 12.65 12.7309 13.779 11.354 14.4889C9.97721 15.1987 8.41042 15.4527 6.87987 15.214C5.34932 14.9754 3.93421 14.2565 2.83887 13.1611C1.74353 12.0658 1.02464 10.6507 0.785979 9.12013C0.547323 7.58958 0.801257 6.02278 1.51112 4.64596C2.22098 3.26914 3.35003 2.15353 4.73526 1.46022C6.12049 0.766915 7.69022 0.531776 9.2178 0.788758C9.36382 0.81458 9.49373 0.897013 9.57928 1.01812C9.66483 1.13924 9.6991 1.28923 9.67463 1.43548C9.65017 1.58173 9.56894 1.7124 9.44863 1.79907C9.32831 1.88574 9.17864 1.9214 9.03218 1.89829C8.14492 1.74903 7.23581 1.79491 6.36809 2.03273C5.50037 2.27055 4.6949 2.6946 4.00773 3.27536C3.32056 3.85612 2.76819 4.57965 2.38908 5.39559C2.00996 6.21154 1.8132 7.10029 1.81249 8.00001C1.81115 9.51468 2.36785 10.9768 3.37624 12.107C4.00359 11.1979 4.88572 10.4946 5.91171 10.0855C5.36059 9.6514 4.95843 9.05637 4.76116 8.38314C4.5639 7.70991 4.58133 6.99193 4.81103 6.32906C5.04073 5.6662 5.47128 5.09138 6.04281 4.68456C6.61435 4.27773 7.29845 4.05912 7.99999 4.05912C8.70153 4.05912 9.38563 4.27773 9.95716 4.68456C10.5287 5.09138 10.9592 5.6662 11.1889 6.32906C11.4186 6.99193 11.4361 7.70991 11.2388 8.38314C11.0415 9.05637 10.6394 9.6514 10.0883 10.0855C11.1143 10.4946 11.9964 11.1979 12.6237 12.107C13.6321 10.9768 14.1888 9.51468 14.1875 8.00001C14.1875 7.65416 14.1588 7.30892 14.1017 6.96782C14.0888 6.89465 14.0905 6.81964 14.1067 6.74712C14.1229 6.6746 14.1533 6.60602 14.1962 6.54533C14.239 6.48463 14.2935 6.43304 14.3564 6.39352C14.4194 6.354 14.4895 6.32734 14.5628 6.31508C14.6361 6.30281 14.7111 6.3052 14.7834 6.32208C14.8558 6.33897 14.9241 6.37002 14.9844 6.41346C15.0447 6.45689 15.0958 6.51184 15.1347 6.57513C15.1736 6.63842 15.1997 6.7088 15.2112 6.7822ZM7.99999 9.68751C8.445 9.68751 8.88001 9.55555 9.25002 9.30831C9.62003 9.06108 9.90842 8.70968 10.0787 8.29855C10.249 7.88741 10.2936 7.43501 10.2068 6.99855C10.1199 6.5621 9.90565 6.16119 9.59098 5.84652C9.27631 5.53185 8.8754 5.31756 8.43894 5.23074C8.00248 5.14392 7.55008 5.18848 7.13895 5.35878C6.72782 5.52908 6.37641 5.81746 6.12918 6.18748C5.88195 6.55749 5.74999 6.9925 5.74999 7.43751C5.74999 8.03425 5.98704 8.60654 6.409 9.0285C6.83095 9.45045 7.40325 9.68751 7.99999 9.68751ZM7.99999 14.1875C9.37345 14.1889 10.7079 13.731 11.7912 12.8867C11.3843 12.2503 10.8237 11.7266 10.1612 11.3638C9.4986 11.001 8.75537 10.8109 7.99999 10.8109C7.2446 10.8109 6.50137 11.001 5.83881 11.3638C5.17624 11.7266 4.61566 12.2503 4.20874 12.8867C5.29204 13.731 6.62653 14.1889 7.99999 14.1875Z" fill="#3f51b5"/>
</svg>
