<svg width="11" height="13" viewBox="0 0 11 13" fill="none" xmlns="http://www.w3.org/2000/svg">
<path d="M4.82873 9.08333H4.36339V8.85417C4.36339 8.42872 4.19179 8.02069 3.88635 7.71985C3.58091 7.41901 3.16664 7.25 2.73468 7.25C2.30272 7.25 1.88846 7.41901 1.58302 7.71985C1.27758 8.02069 1.10598 8.42872 1.10598 8.85417V9.08333H0.640637C0.51722 9.08333 0.398858 9.13162 0.311589 9.21758C0.22432 9.30353 0.175293 9.42011 0.175293 9.54167V11.8333C0.175293 11.9549 0.22432 12.0715 0.311589 12.1574C0.398858 12.2434 0.51722 12.2917 0.640637 12.2917H4.82873C4.95215 12.2917 5.07051 12.2434 5.15778 12.1574C5.24505 12.0715 5.29407 11.9549 5.29407 11.8333V9.54167C5.29407 9.42011 5.24505 9.30353 5.15778 9.21758C5.07051 9.13162 4.95215 9.08333 4.82873 9.08333ZM2.03667 8.85417C2.03667 8.67183 2.11021 8.49696 2.24111 8.36803C2.37202 8.2391 2.54956 8.16667 2.73468 8.16667C2.91981 8.16667 3.09735 8.2391 3.22826 8.36803C3.35916 8.49696 3.4327 8.67183 3.4327 8.85417V9.08333H2.03667V8.85417ZM4.36339 11.375H1.10598V10H4.36339V11.375ZM10.2767 3.7174L7.01934 0.509063C6.97609 0.466514 6.92475 0.432774 6.86826 0.409771C6.81177 0.386768 6.75123 0.374953 6.69011 0.375H1.10598C0.859147 0.375 0.622423 0.471577 0.447885 0.643486C0.273347 0.815394 0.175293 1.04855 0.175293 1.29167V6.33333C0.175293 6.45489 0.22432 6.57147 0.311589 6.65742C0.398858 6.74338 0.51722 6.79167 0.640637 6.79167C0.764054 6.79167 0.882416 6.74338 0.969684 6.65742C1.05695 6.57147 1.10598 6.45489 1.10598 6.33333V1.29167H6.22476V4.04167C6.22476 4.16322 6.27379 4.2798 6.36106 4.36576C6.44833 4.45171 6.56669 4.5 6.69011 4.5H9.48217V11.375H7.15545C7.03203 11.375 6.91367 11.4233 6.8264 11.5092C6.73913 11.5952 6.69011 11.7118 6.69011 11.8333C6.69011 11.9549 6.73913 12.0715 6.8264 12.1574C6.91367 12.2434 7.03203 12.2917 7.15545 12.2917H9.48217C9.729 12.2917 9.96573 12.1951 10.1403 12.0232C10.3148 11.8513 10.4129 11.6181 10.4129 11.375V4.04167C10.4129 3.98146 10.4009 3.92183 10.3776 3.86619C10.3542 3.81055 10.3199 3.75999 10.2767 3.7174ZM7.15545 1.93964L8.82429 3.58333H7.15545V1.93964Z" fill="#4D4D4D"/>
</svg>
