<svg width="25" height="24" viewBox="0 0 25 24" fill="none" xmlns="http://www.w3.org/2000/svg">
<ellipse cx="12.6728" cy="12" rx="12.1835" ry="12" fill="#EA5455" fill-opacity="0.12"/>
<path d="M12.2071 14.0833H11.7418V13.8542C11.7418 13.4287 11.5702 13.0207 11.2648 12.7198C10.9593 12.419 10.5451 12.25 10.1131 12.25C9.68114 12.25 9.26688 12.419 8.96143 12.7198C8.65599 13.0207 8.4844 13.4287 8.4844 13.8542V14.0833H8.01905C7.89564 14.0833 7.77728 14.1316 7.69001 14.2176C7.60274 14.3035 7.55371 14.4201 7.55371 14.5417V16.8333C7.55371 16.9549 7.60274 17.0715 7.69001 17.1574C7.77728 17.2434 7.89564 17.2917 8.01905 17.2917H12.2071C12.3306 17.2917 12.4489 17.2434 12.5362 17.1574C12.6235 17.0715 12.6725 16.9549 12.6725 16.8333V14.5417C12.6725 14.4201 12.6235 14.3035 12.5362 14.2176C12.4489 14.1316 12.3306 14.0833 12.2071 14.0833ZM9.41509 13.8542C9.41509 13.6718 9.48863 13.497 9.61953 13.368C9.75043 13.2391 9.92798 13.1667 10.1131 13.1667C10.2982 13.1667 10.4758 13.2391 10.6067 13.368C10.7376 13.497 10.8111 13.6718 10.8111 13.8542V14.0833H9.41509V13.8542ZM11.7418 16.375H8.4844V15H11.7418V16.375ZM17.6552 8.7174L14.3978 5.50906C14.3545 5.46651 14.3032 5.43277 14.2467 5.40977C14.1902 5.38677 14.1297 5.37495 14.0685 5.375H8.4844C8.23756 5.375 8.00084 5.47158 7.8263 5.64349C7.65177 5.81539 7.55371 6.04855 7.55371 6.29167V11.3333C7.55371 11.4549 7.60274 11.5715 7.69001 11.6574C7.77728 11.7434 7.89564 11.7917 8.01905 11.7917C8.14247 11.7917 8.26083 11.7434 8.3481 11.6574C8.43537 11.5715 8.4844 11.4549 8.4844 11.3333V6.29167H13.6032V9.04167C13.6032 9.16322 13.6522 9.2798 13.7395 9.36576C13.8267 9.45171 13.9451 9.5 14.0685 9.5H16.8606V16.375H14.5339C14.4105 16.375 14.2921 16.4233 14.2048 16.5092C14.1176 16.5952 14.0685 16.7118 14.0685 16.8333C14.0685 16.9549 14.1176 17.0715 14.2048 17.1574C14.2921 17.2434 14.4105 17.2917 14.5339 17.2917H16.8606C17.1074 17.2917 17.3441 17.1951 17.5187 17.0232C17.6932 16.8513 17.7913 16.6181 17.7913 16.375V9.04167C17.7913 8.98146 17.7793 8.92183 17.756 8.86619C17.7326 8.81055 17.6984 8.75999 17.6552 8.7174ZM14.5339 6.93964L16.2027 8.58333H14.5339V6.93964Z" fill="#EA5455"/>
</svg>
