<svg xmlns="http://www.w3.org/2000/svg" width="24" height="24" viewBox="0 0 24 24" fill="none">
<path d="M21 5.99995C20.9997 5.43892 20.8421 4.8892 20.5451 4.41324C20.2481 3.93727 19.8236 3.55413 19.3197 3.30733C18.8159 3.06053 18.2529 2.95996 17.6948 3.01703C17.1367 3.07411 16.6057 3.28655 16.1623 3.63022C15.7188 3.9739 15.3806 4.43504 15.1861 4.96127C14.9916 5.4875 14.9485 6.05774 15.0618 6.60722C15.1751 7.1567 15.4402 7.6634 15.827 8.06979C16.2138 8.47617 16.7068 8.76594 17.25 8.9062V9.74995C17.25 10.1478 17.092 10.5293 16.8107 10.8106C16.5294 11.0919 16.1478 11.25 15.75 11.25H9.00001C8.47303 11.2493 7.95536 11.3888 7.50001 11.654V8.9062C8.207 8.72366 8.82315 8.28953 9.23296 7.6852C9.64277 7.08086 9.8181 6.34781 9.7261 5.62345C9.63409 4.89909 9.28106 4.23315 8.73318 3.75046C8.1853 3.26777 7.48019 3.00147 6.75001 3.00147C6.01983 3.00147 5.31471 3.26777 4.76683 3.75046C4.21895 4.23315 3.86592 4.89909 3.77392 5.62345C3.68191 6.34781 3.85725 7.08086 4.26706 7.6852C4.67687 8.28953 5.29301 8.72366 6.00001 8.9062V15.0937C5.29301 15.2762 4.67687 15.7104 4.26706 16.3147C3.85725 16.919 3.68191 17.6521 3.77392 18.3765C3.86592 19.1008 4.21895 19.7668 4.76683 20.2494C5.31471 20.7321 6.01983 20.9984 6.75001 20.9984C7.48019 20.9984 8.1853 20.7321 8.73318 20.2494C9.28106 19.7668 9.63409 19.1008 9.7261 18.3765C9.8181 17.6521 9.64277 16.919 9.23296 16.3147C8.82315 15.7104 8.207 15.2762 7.50001 15.0937V14.25C7.50001 13.8521 7.65804 13.4706 7.93935 13.1893C8.22065 12.908 8.60218 12.75 9.00001 12.75H15.75C16.5457 12.75 17.3087 12.4339 17.8713 11.8713C18.4339 11.3087 18.75 10.5456 18.75 9.74995V8.9062C19.3937 8.739 19.9638 8.36299 20.371 7.83708C20.7782 7.31116 20.9994 6.66506 21 5.99995ZM5.25001 5.99995C5.25001 5.70328 5.33798 5.41327 5.5028 5.1666C5.66762 4.91992 5.90189 4.72767 6.17598 4.61413C6.45007 4.5006 6.75167 4.4709 7.04264 4.52878C7.33361 4.58665 7.60089 4.72951 7.81067 4.93929C8.02045 5.14907 8.16331 5.41635 8.22119 5.70732C8.27906 5.99829 8.24936 6.29989 8.13583 6.57398C8.02229 6.84807 7.83004 7.08234 7.58336 7.24716C7.33669 7.41198 7.04668 7.49995 6.75001 7.49995C6.35218 7.49995 5.97065 7.34192 5.68935 7.06061C5.40804 6.77931 5.25001 6.39778 5.25001 5.99995ZM8.25001 18C8.25001 18.2966 8.16203 18.5866 7.99721 18.8333C7.83239 19.08 7.59812 19.2722 7.32403 19.3858C7.04994 19.4993 6.74834 19.529 6.45737 19.4711C6.1664 19.4133 5.89913 19.2704 5.68935 19.0606C5.47957 18.8508 5.33671 18.5836 5.27883 18.2926C5.22095 18.0016 5.25066 17.7 5.36419 17.4259C5.47772 17.1518 5.66998 16.9176 5.91665 16.7528C6.16333 16.5879 6.45334 16.5 6.75001 16.5C7.14783 16.5 7.52936 16.658 7.81067 16.9393C8.09197 17.2206 8.25001 17.6021 8.25001 18ZM18 7.49995C17.7033 7.49995 17.4133 7.41198 17.1667 7.24716C16.92 7.08234 16.7277 6.84807 16.6142 6.57398C16.5007 6.29989 16.471 5.99829 16.5288 5.70732C16.5867 5.41635 16.7296 5.14907 16.9393 4.93929C17.1491 4.72951 17.4164 4.58665 17.7074 4.52878C17.9983 4.4709 18.2999 4.5006 18.574 4.61413C18.8481 4.72767 19.0824 4.91992 19.2472 5.1666C19.412 5.41327 19.5 5.70328 19.5 5.99995C19.5 6.39778 19.342 6.77931 19.0607 7.06061C18.7794 7.34192 18.3978 7.49995 18 7.49995Z" fill="#3f51b5"/>
</svg>
