<svg width="14" height="14" viewBox="0 0 14 14" fill="none" xmlns="http://www.w3.org/2000/svg">
<g id="Frame">
<path id="Vector" d="M13.125 11.3756H12.25V5.25057C12.25 5.0185 12.1578 4.79594 11.9937 4.63185C11.8296 4.46776 11.6071 4.37557 11.375 4.37557H7.875V1.75057C7.8751 1.59212 7.83218 1.43662 7.75081 1.30065C7.66944 1.16469 7.55268 1.05338 7.41299 0.978595C7.2733 0.903809 7.11592 0.868358 6.95766 0.876025C6.79939 0.883693 6.64618 0.934192 6.51438 1.02213L2.13937 3.93807C2.01936 4.01814 1.921 4.12665 1.85307 4.25393C1.78513 4.38122 1.74973 4.52332 1.75 4.6676V11.3756H0.875C0.758968 11.3756 0.647688 11.4217 0.565641 11.5037C0.483594 11.5858 0.4375 11.697 0.4375 11.8131C0.4375 11.9291 0.483594 12.0404 0.565641 12.1224C0.647688 12.2045 0.758968 12.2506 0.875 12.2506H13.125C13.241 12.2506 13.3523 12.2045 13.4344 12.1224C13.5164 12.0404 13.5625 11.9291 13.5625 11.8131C13.5625 11.697 13.5164 11.5858 13.4344 11.5037C13.3523 11.4217 13.241 11.3756 13.125 11.3756ZM11.375 5.25057V11.3756H7.875V5.25057H11.375ZM2.625 4.6676L7 1.75057V11.3756H2.625V4.6676ZM6.125 6.12557V7.00057C6.125 7.1166 6.07891 7.22788 5.99686 7.30993C5.91481 7.39198 5.80353 7.43807 5.6875 7.43807C5.57147 7.43807 5.46019 7.39198 5.37814 7.30993C5.29609 7.22788 5.25 7.1166 5.25 7.00057V6.12557C5.25 6.00954 5.29609 5.89826 5.37814 5.81621C5.46019 5.73416 5.57147 5.68807 5.6875 5.68807C5.80353 5.68807 5.91481 5.73416 5.99686 5.81621C6.07891 5.89826 6.125 6.00954 6.125 6.12557ZM4.375 6.12557V7.00057C4.375 7.1166 4.32891 7.22788 4.24686 7.30993C4.16481 7.39198 4.05353 7.43807 3.9375 7.43807C3.82147 7.43807 3.71019 7.39198 3.62814 7.30993C3.54609 7.22788 3.5 7.1166 3.5 7.00057V6.12557C3.5 6.00954 3.54609 5.89826 3.62814 5.81621C3.71019 5.73416 3.82147 5.68807 3.9375 5.68807C4.05353 5.68807 4.16481 5.73416 4.24686 5.81621C4.32891 5.89826 4.375 6.00954 4.375 6.12557ZM4.375 9.18807V10.0631C4.375 10.1791 4.32891 10.2904 4.24686 10.3724C4.16481 10.4545 4.05353 10.5006 3.9375 10.5006C3.82147 10.5006 3.71019 10.4545 3.62814 10.3724C3.54609 10.2904 3.5 10.1791 3.5 10.0631V9.18807C3.5 9.07204 3.54609 8.96076 3.62814 8.87871C3.71019 8.79666 3.82147 8.75057 3.9375 8.75057C4.05353 8.75057 4.16481 8.79666 4.24686 8.87871C4.32891 8.96076 4.375 9.07204 4.375 9.18807ZM6.125 9.18807V10.0631C6.125 10.1791 6.07891 10.2904 5.99686 10.3724C5.91481 10.4545 5.80353 10.5006 5.6875 10.5006C5.57147 10.5006 5.46019 10.4545 5.37814 10.3724C5.29609 10.2904 5.25 10.1791 5.25 10.0631V9.18807C5.25 9.07204 5.29609 8.96076 5.37814 8.87871C5.46019 8.79666 5.57147 8.75057 5.6875 8.75057C5.80353 8.75057 5.91481 8.79666 5.99686 8.87871C6.07891 8.96076 6.125 9.07204 6.125 9.18807Z" fill="#3f51b5"/>
</g>
</svg>
