<svg width="25" height="24" viewBox="0 0 25 24" fill="none" xmlns="http://www.w3.org/2000/svg">
<ellipse cx="12.2041" cy="12" rx="12.1835" ry="12" fill="#7367F0" fill-opacity="0.2"/>
<path d="M18.125 16.3756H17.25V10.2506C17.25 10.0185 17.1578 9.79594 16.9937 9.63185C16.8296 9.46776 16.6071 9.37557 16.375 9.37557H12.875V6.75057C12.8751 6.59212 12.8322 6.43662 12.7508 6.30065C12.6694 6.16469 12.5527 6.05338 12.413 5.97859C12.2733 5.90381 12.1159 5.86836 11.9577 5.87603C11.7994 5.88369 11.6462 5.93419 11.5144 6.02213L7.13937 8.93807C7.01936 9.01814 6.921 9.12665 6.85307 9.25393C6.78513 9.38122 6.74973 9.52332 6.75 9.6676V16.3756H5.875C5.75897 16.3756 5.64769 16.4217 5.56564 16.5037C5.48359 16.5858 5.4375 16.697 5.4375 16.8131C5.4375 16.9291 5.48359 17.0404 5.56564 17.1224C5.64769 17.2045 5.75897 17.2506 5.875 17.2506H18.125C18.241 17.2506 18.3523 17.2045 18.4344 17.1224C18.5164 17.0404 18.5625 16.9291 18.5625 16.8131C18.5625 16.697 18.5164 16.5858 18.4344 16.5037C18.3523 16.4217 18.241 16.3756 18.125 16.3756ZM16.375 10.2506V16.3756H12.875V10.2506H16.375ZM7.625 9.6676L12 6.75057V16.3756H7.625V9.6676ZM11.125 11.1256V12.0006C11.125 12.1166 11.0789 12.2279 10.9969 12.3099C10.9148 12.392 10.8035 12.4381 10.6875 12.4381C10.5715 12.4381 10.4602 12.392 10.3781 12.3099C10.2961 12.2279 10.25 12.1166 10.25 12.0006V11.1256C10.25 11.0095 10.2961 10.8983 10.3781 10.8162C10.4602 10.7342 10.5715 10.6881 10.6875 10.6881C10.8035 10.6881 10.9148 10.7342 10.9969 10.8162C11.0789 10.8983 11.125 11.0095 11.125 11.1256ZM9.375 11.1256V12.0006C9.375 12.1166 9.32891 12.2279 9.24686 12.3099C9.16481 12.392 9.05353 12.4381 8.9375 12.4381C8.82147 12.4381 8.71019 12.392 8.62814 12.3099C8.54609 12.2279 8.5 12.1166 8.5 12.0006V11.1256C8.5 11.0095 8.54609 10.8983 8.62814 10.8162C8.71019 10.7342 8.82147 10.6881 8.9375 10.6881C9.05353 10.6881 9.16481 10.7342 9.24686 10.8162C9.32891 10.8983 9.375 11.0095 9.375 11.1256ZM9.375 14.1881V15.0631C9.375 15.1791 9.32891 15.2904 9.24686 15.3724C9.16481 15.4545 9.05353 15.5006 8.9375 15.5006C8.82147 15.5006 8.71019 15.4545 8.62814 15.3724C8.54609 15.2904 8.5 15.1791 8.5 15.0631V14.1881C8.5 14.072 8.54609 13.9608 8.62814 13.8787C8.71019 13.7967 8.82147 13.7506 8.9375 13.7506C9.05353 13.7506 9.16481 13.7967 9.24686 13.8787C9.32891 13.9608 9.375 14.072 9.375 14.1881ZM11.125 14.1881V15.0631C11.125 15.1791 11.0789 15.2904 10.9969 15.3724C10.9148 15.4545 10.8035 15.5006 10.6875 15.5006C10.5715 15.5006 10.4602 15.4545 10.3781 15.3724C10.2961 15.2904 10.25 15.1791 10.25 15.0631V14.1881C10.25 14.072 10.2961 13.9608 10.3781 13.8787C10.4602 13.7967 10.5715 13.7506 10.6875 13.7506C10.8035 13.7506 10.9148 13.7967 10.9969 13.8787C11.0789 13.9608 11.125 14.072 11.125 14.1881Z" fill="#7367F0"/>
</svg>
