<svg width="17" height="13" viewBox="0 0 17 13" fill="none" xmlns="http://www.w3.org/2000/svg">
<path d="M16.9998 7.56238C16.9998 7.71157 16.9406 7.85464 16.8351 7.96013C16.7296 8.06562 16.5865 8.12488 16.4373 8.12488H15.3123V9.24988C15.3123 9.39907 15.2531 9.54214 15.1476 9.64763C15.0421 9.75312 14.899 9.81238 14.7498 9.81238C14.6006 9.81238 14.4576 9.75312 14.3521 9.64763C14.2466 9.54214 14.1873 9.39907 14.1873 9.24988V8.12488H13.0623C12.9131 8.12488 12.7701 8.06562 12.6646 7.96013C12.5591 7.85464 12.4998 7.71157 12.4998 7.56238C12.4998 7.4132 12.5591 7.27012 12.6646 7.16463C12.7701 7.05914 12.9131 6.99988 13.0623 6.99988H14.1873V5.87488C14.1873 5.7257 14.2466 5.58262 14.3521 5.47713C14.4576 5.37165 14.6006 5.31238 14.7498 5.31238C14.899 5.31238 15.0421 5.37165 15.1476 5.47713C15.2531 5.58262 15.3123 5.7257 15.3123 5.87488V6.99988H16.4373C16.5865 6.99988 16.7296 7.05914 16.8351 7.16463C16.9406 7.27012 16.9998 7.4132 16.9998 7.56238ZM12.9308 11.7003C13.0269 11.8146 13.0736 11.9624 13.0606 12.1111C13.0477 12.2598 12.9762 12.3974 12.8619 12.4934C12.7476 12.5894 12.5998 12.6361 12.4511 12.6232C12.3024 12.6103 12.1648 12.5388 12.0688 12.4245C10.6541 10.7398 8.70927 9.81238 6.59357 9.81238C4.47786 9.81238 2.53302 10.7398 1.11833 12.4245C1.0223 12.5387 0.884818 12.6101 0.736144 12.623C0.587471 12.6358 0.439779 12.5891 0.32556 12.493C0.21134 12.397 0.13995 12.2595 0.127094 12.1109C0.114237 11.9622 0.160967 11.8145 0.257005 11.7003C1.30747 10.4501 2.61388 9.56207 4.06583 9.08676C3.18405 8.53755 2.50512 7.7161 2.13177 6.74667C1.75842 5.77724 1.71096 4.7126 1.99657 3.7138C2.28218 2.715 2.88532 1.83639 3.71474 1.2109C4.54416 0.585409 5.55473 0.24707 6.59357 0.24707C7.6324 0.24707 8.64297 0.585409 9.47239 1.2109C10.3018 1.83639 10.905 2.715 11.1906 3.7138C11.4762 4.7126 11.4287 5.77724 11.0554 6.74667C10.682 7.7161 10.0031 8.53755 9.1213 9.08676C10.5733 9.56207 11.8797 10.4501 12.9308 11.7003ZM6.59357 8.68738C7.31671 8.68738 8.0236 8.47295 8.62487 8.07119C9.22614 7.66944 9.69477 7.09841 9.9715 6.43032C10.2482 5.76223 10.3206 5.02708 10.1796 4.31783C10.0385 3.60859 9.69026 2.95711 9.17893 2.44577C8.66759 1.93444 8.01611 1.58621 7.30687 1.44514C6.59762 1.30406 5.86247 1.37646 5.19438 1.6532C4.52629 1.92993 3.95526 2.39856 3.55351 2.99983C3.15175 3.6011 2.93732 4.30799 2.93732 5.03113C2.93843 6.00049 3.324 6.92982 4.00944 7.61526C4.69488 8.3007 5.62421 8.68627 6.59357 8.68738Z" fill="#4D4D4D"/>
</svg>
