<svg width="26" height="24" viewBox="0 0 26 24" fill="none" xmlns="http://www.w3.org/2000/svg">
<ellipse cx="13.1411" cy="12" rx="12.3818" ry="12" fill="#F3C11B" fill-opacity="0.15"/>
<g clip-path="url(#clip0_1955_51519)">
<path d="M20.0454 13.2822C19.9957 13.3183 19.9392 13.3446 19.879 13.3595C19.8189 13.3745 19.7562 13.3778 19.6948 13.3692C19.6333 13.3607 19.5741 13.3406 19.5207 13.3099C19.4673 13.2792 19.4206 13.2387 19.3833 13.1905C19.0983 12.8192 18.7272 12.5179 18.3001 12.3109C17.873 12.104 17.4017 11.9971 16.9241 11.9989C16.8311 11.9988 16.7402 11.9723 16.6627 11.9224C16.5852 11.8726 16.5246 11.8017 16.4885 11.7187C16.4639 11.6623 16.4513 11.6017 16.4513 11.5405C16.4513 11.4793 16.4639 11.4187 16.4885 11.3623C16.5246 11.2793 16.5852 11.2084 16.6627 11.1586C16.7402 11.1088 16.8311 11.0822 16.9241 11.0822C17.1895 11.0822 17.4495 11.01 17.6747 10.874C17.8998 10.7379 18.0811 10.5434 18.1979 10.3124C18.3147 10.0815 18.3624 9.8235 18.3354 9.56766C18.3085 9.31182 18.2081 9.06843 18.0456 8.86513C17.8831 8.66183 17.665 8.50677 17.4162 8.41756C17.1673 8.32836 16.8976 8.30858 16.6377 8.36048C16.3778 8.41238 16.1381 8.53388 15.9459 8.71117C15.7537 8.88846 15.6167 9.11444 15.5503 9.36344C15.5348 9.42175 15.5076 9.47652 15.4702 9.52463C15.4328 9.57274 15.3861 9.61325 15.3325 9.64384C15.279 9.67443 15.2198 9.6945 15.1583 9.70292C15.0967 9.71133 15.0341 9.70791 14.974 9.69286C14.9138 9.67782 14.8573 9.65143 14.8076 9.61522C14.758 9.579 14.7162 9.53366 14.6846 9.48179C14.6531 9.42992 14.6324 9.37254 14.6237 9.31291C14.615 9.25328 14.6185 9.19258 14.634 9.13427C14.7261 8.78898 14.9001 8.46929 15.1421 8.20062C15.3841 7.93195 15.6874 7.72173 16.028 7.58668C16.3686 7.45163 16.737 7.39548 17.1039 7.4227C17.4708 7.44992 17.8261 7.55975 18.1415 7.74347C18.4569 7.92718 18.7237 8.1797 18.9207 8.48093C19.1177 8.78216 19.2394 9.12379 19.2762 9.47864C19.3129 9.83349 19.2638 10.1918 19.1325 10.5249C19.0013 10.8581 18.7916 11.157 18.5202 11.3979C19.1633 11.6677 19.7223 12.0959 20.1418 12.6399C20.179 12.6882 20.2061 12.7431 20.2214 12.8016C20.2367 12.86 20.24 12.9208 20.2311 12.9804C20.2221 13.0401 20.2011 13.0975 20.1692 13.1492C20.1374 13.201 20.0953 13.2462 20.0454 13.2822ZM16.8603 16.8114C16.8945 16.8635 16.9175 16.9219 16.9278 16.9829C16.9382 17.0438 16.9357 17.1062 16.9205 17.1663C16.9054 17.2263 16.8778 17.2828 16.8395 17.3322C16.8013 17.3817 16.7531 17.4231 16.6979 17.4541C16.6426 17.485 16.5815 17.5048 16.5182 17.5122C16.4549 17.5197 16.3907 17.5146 16.3294 17.4974C16.2682 17.4802 16.2111 17.4511 16.1618 17.412C16.1124 17.3729 16.0717 17.3245 16.0422 17.2697C15.7442 16.7808 15.32 16.3756 14.8112 16.0942C14.3024 15.8127 13.7267 15.6647 13.1408 15.6647C12.555 15.6647 11.9792 15.8127 11.4705 16.0942C10.9617 16.3756 10.5374 16.7808 10.2395 17.2697C10.2099 17.3245 10.1692 17.3729 10.1198 17.412C10.0705 17.4511 10.0134 17.4802 9.95218 17.4974C9.89093 17.5146 9.82671 17.5197 9.76339 17.5122C9.70008 17.5048 9.63897 17.485 9.58375 17.4541C9.52853 17.4231 9.48034 17.3817 9.44207 17.3322C9.4038 17.2828 9.37626 17.2263 9.36108 17.1663C9.34591 17.1062 9.34342 17.0438 9.35377 16.9829C9.36412 16.9219 9.3871 16.8635 9.42132 16.8114C9.87981 16.0479 10.5789 15.4471 11.4158 15.0972C10.9449 14.7477 10.5988 14.264 10.4261 13.7141C10.2535 13.1641 10.263 12.5755 10.4534 12.0311C10.6438 11.4867 11.0054 11.0137 11.4874 10.6788C11.9694 10.3438 12.5477 10.1637 13.1408 10.1637C13.7339 10.1637 14.3122 10.3438 14.7942 10.6788C15.2762 11.0137 15.6378 11.4867 15.8282 12.0311C16.0186 12.5755 16.0281 13.1641 15.8555 13.7141C15.6828 14.264 15.3367 14.7477 14.8658 15.0972C15.7027 15.4471 16.4018 16.0479 16.8603 16.8114ZM13.1408 14.7489C13.5149 14.7489 13.8807 14.6413 14.1918 14.4399C14.5028 14.2384 14.7453 13.9521 14.8885 13.6171C15.0317 13.2821 15.0691 12.9135 14.9961 12.5579C14.9231 12.2022 14.743 11.8756 14.4784 11.6192C14.2139 11.3628 13.8768 11.1882 13.5099 11.1174C13.1429 11.0467 12.7626 11.083 12.4169 11.2217C12.0712 11.3605 11.7758 11.5955 11.5679 11.897C11.3601 12.1985 11.2491 12.5529 11.2491 12.9155C11.2491 13.4018 11.4484 13.8681 11.8032 14.2119C12.158 14.5557 12.6391 14.7489 13.1408 14.7489ZM9.83039 11.5405C9.83039 11.419 9.78056 11.3024 9.69188 11.2164C9.60319 11.1305 9.4829 11.0822 9.35747 11.0822C9.09212 11.0822 8.8321 11.01 8.60694 10.874C8.38177 10.7379 8.20049 10.5434 8.08369 10.3124C7.96689 10.0815 7.91924 9.8235 7.94617 9.56766C7.9731 9.31182 8.07351 9.06843 8.23601 8.86513C8.39852 8.66183 8.61659 8.50677 8.86546 8.41756C9.11433 8.32836 9.38403 8.30858 9.64392 8.36048C9.90381 8.41238 10.1435 8.53388 10.3357 8.71117C10.5279 8.88846 10.665 9.11444 10.7313 9.36344C10.7627 9.4812 10.841 9.58206 10.9491 9.64384C11.0572 9.70562 11.1862 9.72325 11.3077 9.69286C11.4292 9.66248 11.5332 9.58655 11.597 9.48179C11.6607 9.37704 11.6789 9.25203 11.6476 9.13427C11.5555 8.78898 11.3815 8.46929 11.1395 8.20062C10.8976 7.93195 10.5942 7.72173 10.2536 7.58668C9.91305 7.45163 9.54465 7.39548 9.17774 7.4227C8.81083 7.44992 8.45554 7.55975 8.14014 7.74347C7.82474 7.92718 7.55793 8.1797 7.36095 8.48093C7.16396 8.78216 7.04224 9.12379 7.00546 9.47864C6.96868 9.83349 7.01787 10.1918 7.14909 10.5249C7.28032 10.8581 7.48998 11.157 7.76138 11.3979C7.11897 11.668 6.56059 12.0961 6.14164 12.6399C6.0663 12.7372 6.03392 12.8595 6.0516 12.9799C6.06928 13.1002 6.13559 13.2089 6.23593 13.2819C6.33627 13.3549 6.46242 13.3863 6.58664 13.3692C6.71086 13.352 6.82297 13.2878 6.8983 13.1905C7.18335 12.8192 7.55437 12.5179 7.9815 12.3109C8.40863 12.104 8.87993 11.9971 9.35747 11.9989C9.4829 11.9989 9.60319 11.9506 9.69188 11.8646C9.78056 11.7787 9.83039 11.6621 9.83039 11.5405Z" fill="#F3C11B"/>
</g>
<defs>
<clipPath id="clip0_1955_51519">
<rect width="15.1333" height="14.6667" fill="white" transform="translate(5.57422 4.66602)"/>
</clipPath>
</defs>
</svg>
