<svg width="18" height="13" viewBox="0 0 18 13" fill="none" xmlns="http://www.w3.org/2000/svg">
<path d="M17.2125 7.57488C17.1534 7.6192 17.0861 7.65145 17.0146 7.66978C16.943 7.68812 16.8685 7.69217 16.7954 7.68173C16.7223 7.67128 16.6519 7.64653 16.5884 7.6089C16.5248 7.57126 16.4693 7.52148 16.425 7.46238C16.0859 7.00666 15.6446 6.63691 15.1366 6.38289C14.6286 6.12887 14.068 5.99768 13.5 5.99988C13.3894 5.99987 13.2812 5.96725 13.189 5.90609C13.0969 5.84494 13.0248 5.75797 12.9818 5.65605C12.9526 5.58685 12.9375 5.5125 12.9375 5.43738C12.9375 5.36227 12.9526 5.28792 12.9818 5.21871C13.0248 5.1168 13.0969 5.02982 13.189 4.96867C13.2812 4.90751 13.3894 4.87489 13.5 4.87488C13.8156 4.87485 14.1249 4.78632 14.3927 4.61932C14.6605 4.45233 14.8761 4.21358 15.015 3.93019C15.154 3.6468 15.2106 3.33013 15.1786 3.01614C15.1466 2.70216 15.0271 2.40345 14.8339 2.15394C14.6406 1.90444 14.3812 1.71414 14.0852 1.60466C13.7892 1.49518 13.4684 1.47091 13.1593 1.5346C12.8501 1.5983 12.5651 1.74741 12.3365 1.96499C12.1078 2.18258 11.9448 2.45992 11.8659 2.76551C11.8474 2.83707 11.8151 2.90429 11.7706 2.96333C11.7262 3.02238 11.6705 3.07209 11.6069 3.10964C11.5432 3.14718 11.4728 3.17181 11.3996 3.18214C11.3264 3.19246 11.2519 3.18827 11.1804 3.1698C11.1088 3.15134 11.0416 3.11895 10.9825 3.07451C10.9235 3.03006 10.8738 2.97442 10.8362 2.91076C10.7987 2.8471 10.7741 2.77667 10.7637 2.70349C10.7534 2.63031 10.7576 2.55582 10.7761 2.48426C10.8856 2.06049 11.0925 1.66814 11.3803 1.33841C11.6682 1.00868 12.029 0.750682 12.4341 0.58494C12.8392 0.419198 13.2773 0.350287 13.7137 0.383692C14.1502 0.417096 14.5728 0.551894 14.9479 0.777358C15.323 1.00282 15.6404 1.31273 15.8747 1.68243C16.109 2.05212 16.2538 2.47139 16.2975 2.90689C16.3413 3.34238 16.2828 3.78208 16.1267 4.19099C15.9706 4.59989 15.7212 4.96673 15.3984 5.2623C16.1633 5.59347 16.8282 6.119 17.3271 6.78668C17.3714 6.84592 17.4036 6.91333 17.4218 6.98504C17.4401 7.05674 17.444 7.13134 17.4333 7.20456C17.4227 7.27778 17.3977 7.34817 17.3598 7.41172C17.3219 7.47527 17.2718 7.53071 17.2125 7.57488ZM13.424 11.9061C13.4647 11.9702 13.4921 12.0417 13.5044 12.1166C13.5167 12.1915 13.5137 12.268 13.4957 12.3417C13.4776 12.4154 13.4449 12.4847 13.3993 12.5454C13.3538 12.6061 13.2965 12.6569 13.2308 12.6949C13.1651 12.7329 13.0925 12.7571 13.0172 12.7663C12.9418 12.7754 12.8655 12.7693 12.7926 12.7481C12.7197 12.727 12.6519 12.6913 12.5932 12.6433C12.5345 12.5953 12.4861 12.5359 12.4509 12.4686C12.0966 11.8686 11.5919 11.3714 10.9867 11.026C10.3816 10.6805 9.69679 10.4989 8.99997 10.4989C8.30315 10.4989 7.61837 10.6805 7.0132 11.026C6.40803 11.3714 5.90337 11.8686 5.54903 12.4686C5.51387 12.5359 5.46547 12.5953 5.40675 12.6433C5.34802 12.6913 5.28019 12.727 5.20733 12.7481C5.13447 12.7693 5.05809 12.7754 4.98278 12.7663C4.90747 12.7571 4.83479 12.7329 4.76911 12.6949C4.70343 12.6569 4.64611 12.6061 4.60059 12.5454C4.55508 12.4847 4.52231 12.4154 4.50426 12.3417C4.48621 12.268 4.48325 12.1915 4.49557 12.1166C4.50788 12.0417 4.53521 11.9702 4.57591 11.9061C5.12125 10.9691 5.95276 10.2318 6.94825 9.80238C6.38809 9.3735 5.97641 8.77987 5.77108 8.10492C5.56575 7.42997 5.57709 6.70764 5.8035 6.03947C6.02992 5.3713 6.46003 4.79088 7.03338 4.37979C7.60672 3.96871 8.29448 3.74763 8.99997 3.74763C9.70546 3.74763 10.3932 3.96871 10.9666 4.37979C11.5399 4.79088 11.97 5.3713 12.1964 6.03947C12.4229 6.70764 12.4342 7.42997 12.2289 8.10492C12.0235 8.77987 11.6118 9.3735 11.0517 9.80238C12.0472 10.2318 12.8787 10.9691 13.424 11.9061ZM8.99997 9.37488C9.44498 9.37488 9.87999 9.24292 10.25 8.99569C10.62 8.74846 10.9084 8.39705 11.0787 7.98592C11.249 7.57479 11.2936 7.12239 11.2067 6.68593C11.1199 6.24947 10.9056 5.84856 10.591 5.53389C10.2763 5.21922 9.87538 5.00493 9.43892 4.91811C9.00247 4.8313 8.55007 4.87586 8.13893 5.04615C7.7278 5.21645 7.3764 5.50484 7.12916 5.87485C6.88193 6.24486 6.74997 6.67987 6.74997 7.12488C6.74997 7.72162 6.98702 8.29391 7.40898 8.71587C7.83094 9.13783 8.40323 9.37488 8.99997 9.37488ZM5.06247 5.43738C5.06247 5.2882 5.00321 5.14512 4.89772 5.03963C4.79223 4.93414 4.64915 4.87488 4.49997 4.87488C4.18436 4.87485 3.87508 4.78632 3.60726 4.61932C3.33944 4.45233 3.12383 4.21358 2.9849 3.93019C2.84597 3.6468 2.7893 3.33013 2.82133 3.01614C2.85335 2.70216 2.97279 2.40345 3.16608 2.15394C3.35936 1.90444 3.61874 1.71414 3.91476 1.60466C4.21077 1.49518 4.53156 1.47091 4.84068 1.5346C5.1498 1.5983 5.43486 1.74741 5.66348 1.96499C5.89211 2.18258 6.05513 2.45992 6.13403 2.76551C6.17133 2.91003 6.26451 3.03382 6.39307 3.10964C6.52164 3.18546 6.67506 3.2071 6.81958 3.1698C6.9641 3.13251 7.08789 3.03933 7.16371 2.91076C7.23953 2.7822 7.26117 2.62878 7.22388 2.48426C7.11436 2.06049 6.90745 1.66814 6.61962 1.33841C6.33178 1.00868 5.97096 0.750682 5.56587 0.58494C5.16078 0.419198 4.7226 0.350287 4.28619 0.383692C3.84978 0.417096 3.42719 0.551894 3.05204 0.777358C2.6769 1.00282 2.35955 1.31273 2.12525 1.68243C1.89095 2.05212 1.74617 2.47139 1.70242 2.90689C1.65868 3.34238 1.71718 3.78208 1.87327 4.19099C2.02935 4.59989 2.27872 4.96673 2.60153 5.2623C1.83743 5.59379 1.17328 6.11929 0.674969 6.78668C0.585365 6.90603 0.546842 7.05608 0.567874 7.20383C0.588906 7.35158 0.66777 7.48493 0.787118 7.57453C0.906465 7.66413 1.05652 7.70266 1.20427 7.68163C1.35202 7.66059 1.48537 7.58173 1.57497 7.46238C1.91401 7.00666 2.35531 6.63691 2.86335 6.38289C3.37139 6.12887 3.93197 5.99768 4.49997 5.99988C4.64915 5.99988 4.79223 5.94062 4.89772 5.83513C5.00321 5.72964 5.06247 5.58657 5.06247 5.43738Z" fill="#4D4D4D"/>
</svg>
