<svg width="25" height="24" viewBox="0 0 25 24" fill="none" xmlns="http://www.w3.org/2000/svg">
<ellipse cx="12.2041" cy="12" rx="12.1835" ry="12" fill="#7367F0" fill-opacity="0.2"/>
<g clip-path="url(#clip0_1349_91687)">
<path d="M18.9985 13.2841C18.9496 13.3203 18.894 13.3465 18.8348 13.3615C18.7756 13.3764 18.714 13.3797 18.6535 13.3712C18.593 13.3627 18.5348 13.3425 18.4822 13.3119C18.4296 13.2812 18.3837 13.2406 18.347 13.1925C18.0665 12.8211 17.7014 12.5199 17.2811 12.3129C16.8609 12.1059 16.3971 11.999 15.9272 12.0008C15.8357 12.0008 15.7462 11.9742 15.67 11.9244C15.5937 11.8746 15.5341 11.8037 15.4985 11.7207C15.4744 11.6643 15.4619 11.6037 15.4619 11.5425C15.4619 11.4813 15.4744 11.4207 15.4985 11.3643C15.5341 11.2813 15.5937 11.2104 15.67 11.1606C15.7462 11.1107 15.8357 11.0841 15.9272 11.0841C16.1883 11.0841 16.4442 11.012 16.6657 10.8759C16.8873 10.7398 17.0657 10.5453 17.1806 10.3144C17.2955 10.0835 17.3424 9.82545 17.3159 9.56961C17.2894 9.31378 17.1906 9.07038 17.0307 8.86708C16.8708 8.66378 16.6562 8.50872 16.4113 8.41951C16.1665 8.33031 15.9011 8.31053 15.6453 8.36243C15.3896 8.41433 15.1538 8.53583 14.9647 8.71312C14.7755 8.89041 14.6407 9.11639 14.5754 9.36539C14.5601 9.4237 14.5333 9.47847 14.4965 9.52658C14.4598 9.5747 14.4137 9.6152 14.3611 9.64579C14.3084 9.67638 14.2502 9.69646 14.1896 9.70487C14.1291 9.71328 14.0674 9.70987 14.0082 9.69482C13.949 9.67977 13.8934 9.65339 13.8446 9.61717C13.7957 9.58096 13.7546 9.53562 13.7236 9.48375C13.6925 9.43188 13.6721 9.37449 13.6636 9.31486C13.655 9.25523 13.6585 9.19453 13.6738 9.13622C13.7644 8.79094 13.9355 8.47124 14.1737 8.20257C14.4118 7.9339 14.7103 7.72368 15.0454 7.58863C15.3805 7.45358 15.743 7.39743 16.1041 7.42465C16.4651 7.45187 16.8147 7.56171 17.125 7.74542C17.4354 7.92913 17.6979 8.18165 17.8918 8.48288C18.0856 8.78411 18.2054 9.12574 18.2416 9.48059C18.2777 9.83544 18.2293 10.1937 18.1002 10.5269C17.9711 10.8601 17.7648 11.159 17.4977 11.3998C18.1305 11.6697 18.6806 12.0979 19.0933 12.6419C19.13 12.6902 19.1566 12.7451 19.1717 12.8035C19.1867 12.862 19.19 12.9227 19.1812 12.9824C19.1724 13.0421 19.1517 13.0994 19.1203 13.1512C19.089 13.203 19.0476 13.2482 18.9985 13.2841ZM15.8644 16.8133C15.8981 16.8655 15.9207 16.9238 15.9308 16.9848C15.941 17.0458 15.9386 17.1082 15.9237 17.1682C15.9087 17.2283 15.8816 17.2847 15.844 17.3342C15.8063 17.3836 15.7589 17.4251 15.7046 17.456C15.6502 17.4869 15.5901 17.5067 15.5278 17.5142C15.4655 17.5216 15.4023 17.5166 15.342 17.4994C15.2817 17.4822 15.2256 17.4531 15.177 17.414C15.1285 17.3748 15.0884 17.3264 15.0593 17.2716C14.7662 16.7828 14.3487 16.3776 13.8481 16.0961C13.3474 15.8147 12.7809 15.6666 12.2045 15.6666C11.628 15.6666 11.0615 15.8147 10.5608 16.0961C10.0602 16.3776 9.64271 16.7828 9.34957 17.2716C9.32048 17.3264 9.28044 17.3748 9.23186 17.414C9.18328 17.4531 9.12717 17.4822 9.06689 17.4994C9.00662 17.5166 8.94343 17.5216 8.88112 17.5142C8.81882 17.5067 8.75869 17.4869 8.70436 17.456C8.65002 17.4251 8.6026 17.3836 8.56495 17.3342C8.52729 17.2847 8.50019 17.2283 8.48525 17.1682C8.47032 17.1082 8.46788 17.0458 8.47806 16.9848C8.48825 16.9238 8.51086 16.8655 8.54453 16.8133C8.99568 16.0498 9.68357 15.449 10.5071 15.0991C10.0437 14.7497 9.70313 14.266 9.53327 13.716C9.3634 13.1661 9.37278 12.5775 9.56009 12.0331C9.7474 11.4886 10.1032 11.0157 10.5775 10.6807C11.0519 10.3458 11.6208 10.1656 12.2045 10.1656C12.7881 10.1656 13.3571 10.3458 13.8314 10.6807C14.3057 11.0157 14.6615 11.4886 14.8488 12.0331C15.0361 12.5775 15.0455 13.1661 14.8756 13.716C14.7058 14.266 14.3652 14.7497 13.9018 15.0991C14.7253 15.449 15.4132 16.0498 15.8644 16.8133ZM12.2045 14.7508C12.5726 14.7508 12.9325 14.6433 13.2386 14.4418C13.5447 14.2404 13.7833 13.9541 13.9241 13.6191C14.065 13.2841 14.1019 12.9154 14.0301 12.5598C13.9582 12.2042 13.781 11.8775 13.5206 11.6211C13.2603 11.3647 12.9287 11.1901 12.5676 11.1194C12.2065 11.0486 11.8323 11.0849 11.4921 11.2237C11.152 11.3625 10.8613 11.5974 10.6568 11.8989C10.4522 12.2004 10.3431 12.5549 10.3431 12.9175C10.3431 13.4037 10.5392 13.87 10.8883 14.2138C11.2373 14.5577 11.7108 14.7508 12.2045 14.7508ZM8.94705 11.5425C8.94705 11.4209 8.89802 11.3043 8.81075 11.2184C8.72348 11.1324 8.60512 11.0841 8.4817 11.0841C8.2206 11.0841 7.96474 11.012 7.74319 10.8759C7.52163 10.7398 7.34325 10.5453 7.22832 10.3144C7.11339 10.0835 7.06651 9.82545 7.093 9.56961C7.1195 9.31378 7.2183 9.07038 7.3782 8.86708C7.5381 8.66378 7.75268 8.50872 7.99757 8.41951C8.24246 8.33031 8.50784 8.31053 8.76357 8.36243C9.01929 8.41433 9.25512 8.53583 9.44425 8.71312C9.63339 8.89041 9.76825 9.11639 9.83353 9.36539C9.86438 9.48315 9.94147 9.58401 10.0478 9.64579C10.1542 9.70757 10.2811 9.72521 10.4007 9.69482C10.5202 9.66443 10.6226 9.5885 10.6854 9.48375C10.7481 9.37899 10.766 9.25398 10.7351 9.13622C10.6445 8.79094 10.4734 8.47124 10.2352 8.20257C9.99712 7.9339 9.69863 7.72368 9.3635 7.58863C9.02838 7.45358 8.66588 7.39743 8.30485 7.42465C7.94382 7.45187 7.59422 7.56171 7.28387 7.74542C6.97352 7.92913 6.71098 8.18165 6.51715 8.48288C6.32332 8.78411 6.20355 9.12574 6.16736 9.48059C6.13117 9.83544 6.17956 10.1937 6.30869 10.5269C6.43782 10.8601 6.64412 11.159 6.91117 11.3998C6.27905 11.6699 5.72961 12.0981 5.31737 12.6419C5.24324 12.7391 5.21137 12.8614 5.22877 12.9818C5.24617 13.1022 5.31141 13.2108 5.41014 13.2839C5.50888 13.3569 5.63301 13.3883 5.75525 13.3711C5.87748 13.354 5.98779 13.2897 6.06192 13.1925C6.34239 12.8211 6.70747 12.5199 7.12776 12.3129C7.54805 12.1059 8.01181 11.999 8.4817 12.0008C8.60512 12.0008 8.72348 11.9525 8.81075 11.8666C8.89802 11.7806 8.94705 11.664 8.94705 11.5425Z" fill="#7367F0"/>
</g>
<defs>
<clipPath id="clip0_1349_91687">
<rect width="14.891" height="14.6667" fill="white" transform="translate(4.75879 4.66699)"/>
</clipPath>
</defs>
</svg>
