<svg width="24" height="18" viewBox="0 0 24 18" fill="none" xmlns="http://www.w3.org/2000/svg">
<path d="M22.9503 10.0992C22.8715 10.1583 22.7818 10.2013 22.6864 10.2257C22.591 10.2502 22.4917 10.2556 22.3942 10.2417C22.2967 10.2277 22.2029 10.1947 22.1182 10.1445C22.0334 10.0944 21.9594 10.028 21.9003 9.94919C21.4482 9.34156 20.8598 8.84856 20.1824 8.50986C19.5051 8.17117 18.7576 7.99625 18.0003 7.99919C17.8528 7.99918 17.7086 7.95568 17.5857 7.87414C17.4628 7.7926 17.3667 7.67664 17.3093 7.54075C17.2704 7.44848 17.2504 7.34934 17.2504 7.24919C17.2504 7.14904 17.2704 7.0499 17.3093 6.95763C17.3667 6.82175 17.4628 6.70578 17.5857 6.62424C17.7086 6.5427 17.8528 6.49921 18.0003 6.49919C18.4211 6.49915 18.8335 6.3811 19.1906 6.15845C19.5477 5.93579 19.8351 5.61746 20.0204 5.2396C20.2056 4.86175 20.2812 4.43952 20.2385 4.02087C20.1958 3.60223 20.0365 3.20395 19.7788 2.87127C19.5211 2.5386 19.1753 2.28487 18.7806 2.13889C18.3859 1.99292 17.9582 1.96056 17.546 2.04549C17.1338 2.13042 16.7538 2.32923 16.4489 2.61934C16.1441 2.90945 15.9267 3.27924 15.8215 3.68669C15.7969 3.7821 15.7537 3.87173 15.6945 3.95046C15.6352 4.02919 15.561 4.09547 15.4761 4.14553C15.3913 4.19559 15.2974 4.22844 15.1998 4.2422C15.1022 4.25596 15.0029 4.25038 14.9075 4.22575C14.8121 4.20113 14.7224 4.15796 14.6437 4.09869C14.565 4.03943 14.4987 3.96524 14.4486 3.88037C14.3986 3.79549 14.3657 3.70158 14.352 3.60401C14.3382 3.50643 14.3438 3.4071 14.3684 3.31169C14.5144 2.74667 14.7903 2.22353 15.1741 1.7839C15.5579 1.34426 16.039 1.00026 16.5791 0.779269C17.1192 0.558279 17.7034 0.466399 18.2853 0.510938C18.8672 0.555477 19.4307 0.735207 19.9309 1.03583C20.4311 1.33645 20.8542 1.74966 21.1666 2.24258C21.479 2.73551 21.672 3.29454 21.7303 3.8752C21.7887 4.45586 21.7107 5.04212 21.5026 5.58733C21.2944 6.13254 20.9619 6.62166 20.5315 7.01575C21.5514 7.45731 22.4379 8.15802 23.1031 9.04825C23.1622 9.12725 23.2051 9.21712 23.2294 9.31273C23.2537 9.40834 23.2589 9.5078 23.2447 9.60543C23.2305 9.70305 23.1972 9.79691 23.1467 9.88164C23.0962 9.96637 23.0294 10.0403 22.9503 10.0992ZM17.899 15.8742C17.9533 15.9596 17.9897 16.055 18.0062 16.1548C18.0226 16.2546 18.0186 16.3567 17.9946 16.455C17.9705 16.5532 17.9268 16.6456 17.8661 16.7265C17.8054 16.8074 17.729 16.8753 17.6414 16.9259C17.5539 16.9765 17.4569 17.0089 17.3565 17.0211C17.2561 17.0333 17.1543 17.025 17.0571 16.9968C16.96 16.9687 16.8695 16.9211 16.7913 16.8571C16.713 16.793 16.6484 16.7138 16.6015 16.6242C16.1291 15.8242 15.4562 15.1612 14.6493 14.7006C13.8424 14.2401 12.9294 13.9978 12.0003 13.9978C11.0712 13.9978 10.1582 14.2401 9.35126 14.7006C8.54436 15.1612 7.87149 15.8242 7.39903 16.6242C7.35215 16.7138 7.28762 16.793 7.20932 16.8571C7.13103 16.9211 7.04058 16.9687 6.94344 16.9968C6.84629 17.025 6.74445 17.0333 6.64403 17.0211C6.54362 17.0089 6.44671 16.9765 6.35914 16.9259C6.27156 16.8753 6.19514 16.8074 6.13445 16.7265C6.07376 16.6456 6.03007 16.5532 6.00601 16.455C5.98194 16.3567 5.978 16.2546 5.99442 16.1548C6.01083 16.055 6.04727 15.9596 6.10153 15.8742C6.82866 14.6249 7.93734 13.6417 9.26466 13.0692C8.51778 12.4974 7.96887 11.7058 7.6951 10.8059C7.42132 9.90598 7.43644 8.94287 7.73833 8.05198C8.04022 7.16108 8.6137 6.38719 9.37816 5.83908C10.1426 5.29096 11.0596 4.99619 12.0003 4.99619C12.9409 4.99619 13.8579 5.29096 14.6224 5.83908C15.3869 6.38719 15.9604 7.16108 16.2622 8.05198C16.5641 8.94287 16.5792 9.90598 16.3055 10.8059C16.0317 11.7058 15.4828 12.4974 14.7359 13.0692C16.0632 13.6417 17.1719 14.6249 17.899 15.8742ZM12.0003 12.4992C12.5936 12.4992 13.1736 12.3232 13.667 11.9936C14.1603 11.664 14.5449 11.1954 14.7719 10.6472C14.999 10.0991 15.0584 9.49586 14.9426 8.91392C14.8269 8.33198 14.5412 7.79743 14.1216 7.37787C13.702 6.95831 13.1675 6.67259 12.5856 6.55684C12.0036 6.44108 11.4004 6.50049 10.8522 6.72755C10.3041 6.95462 9.83552 7.33913 9.50588 7.83248C9.17623 8.32583 9.00029 8.90585 9.00029 9.49919C9.00029 10.2948 9.31636 11.0579 9.87897 11.6205C10.4416 12.1831 11.2046 12.4992 12.0003 12.4992ZM6.75029 7.24919C6.75029 7.05028 6.67127 6.85951 6.53061 6.71886C6.38996 6.57821 6.1992 6.49919 6.00028 6.49919C5.57947 6.49915 5.16709 6.3811 4.81001 6.15845C4.45292 5.93579 4.16543 5.61746 3.98019 5.2396C3.79495 4.86175 3.71939 4.43952 3.7621 4.02087C3.8048 3.60223 3.96405 3.20395 4.22176 2.87127C4.47947 2.5386 4.82531 2.28487 5.22 2.13889C5.61469 1.99292 6.04241 1.96056 6.45457 2.04549C6.86672 2.13042 7.24681 2.32923 7.55164 2.61934C7.85647 2.90945 8.07383 3.27924 8.17904 3.68669C8.22876 3.87939 8.353 4.04444 8.52442 4.14553C8.69584 4.24662 8.9004 4.27548 9.0931 4.22575C9.28579 4.17603 9.45084 4.05179 9.55194 3.88037C9.65303 3.70895 9.68189 3.50439 9.63216 3.31169C9.48614 2.74667 9.21026 2.22353 8.82648 1.7839C8.4427 1.34426 7.96161 1.00026 7.42149 0.779269C6.88137 0.558279 6.29712 0.466399 5.71525 0.510938C5.13337 0.555477 4.56991 0.735207 4.06972 1.03583C3.56952 1.33645 3.14639 1.74966 2.83399 2.24258C2.52159 2.73551 2.32855 3.29454 2.27022 3.8752C2.2119 4.45586 2.2899 5.04212 2.49801 5.58733C2.70613 6.13254 3.03862 6.62166 3.46903 7.01575C2.45024 7.45773 1.5647 8.1584 0.900284 9.04825C0.780813 9.20738 0.729448 9.40746 0.757491 9.60446C0.785533 9.80146 0.890686 9.97925 1.04982 10.0987C1.20895 10.2182 1.40902 10.2696 1.60602 10.2415C1.80302 10.2135 1.98081 10.1083 2.10028 9.94919C2.55233 9.34156 3.14074 8.84856 3.81812 8.50986C4.49551 8.17117 5.24295 7.99625 6.00028 7.99919C6.1992 7.99919 6.38996 7.92017 6.53061 7.77952C6.67127 7.63887 6.75029 7.4481 6.75029 7.24919Z" fill="#3f51b5"/>
</svg>
