<svg width="14" height="4" viewBox="0 0 14 4" fill="none" xmlns="http://www.w3.org/2000/svg">
<path d="M9 2C9 1.60444 8.8827 1.21776 8.66294 0.888861C8.44318 0.559962 8.13082 0.303617 7.76537 0.152242C7.39991 0.000866274 6.99778 -0.0387404 6.60982 0.03843C6.22186 0.1156 5.86549 0.306082 5.58579 0.585787C5.30608 0.865492 5.1156 1.22186 5.03843 1.60982C4.96126 1.99778 5.00086 2.39992 5.15224 2.76537C5.30361 3.13082 5.55996 3.44318 5.88886 3.66294C6.21776 3.8827 6.60444 4 7 4C7.53043 4 8.03914 3.78929 8.41421 3.41421C8.78929 3.03914 9 2.53043 9 2ZM6 2C6 1.80222 6.05865 1.60888 6.16853 1.44443C6.27841 1.27998 6.43459 1.15181 6.61732 1.07612C6.80004 1.00043 7.00111 0.98063 7.19509 1.01922C7.38907 1.0578 7.56725 1.15304 7.70711 1.29289C7.84696 1.43275 7.9422 1.61093 7.98078 1.80491C8.01937 1.99889 7.99957 2.19996 7.92388 2.38268C7.84819 2.56541 7.72002 2.72159 7.55557 2.83147C7.39112 2.94135 7.19778 3 7 3C6.73478 3 6.48043 2.89464 6.29289 2.70711C6.10536 2.51957 6 2.26522 6 2ZM10 2C10 2.39556 10.1173 2.78224 10.3371 3.11114C10.5568 3.44004 10.8692 3.69639 11.2346 3.84776C11.6001 3.99914 12.0022 4.03874 12.3902 3.96157C12.7781 3.8844 13.1345 3.69392 13.4142 3.41421C13.6939 3.13451 13.8844 2.77814 13.9616 2.39018C14.0387 2.00222 13.9991 1.60009 13.8478 1.23463C13.6964 0.869182 13.44 0.556825 13.1111 0.337062C12.7822 0.117299 12.3956 1.0098e-06 12 9.92511e-07C11.4696 9.69325e-07 10.9609 0.210715 10.5858 0.585787C10.2107 0.96086 10 1.46957 10 2ZM13 2C13 2.19778 12.9413 2.39112 12.8315 2.55557C12.7216 2.72002 12.5654 2.84819 12.3827 2.92388C12.2 2.99957 11.9989 3.01937 11.8049 2.98079C11.6109 2.9422 11.4327 2.84696 11.2929 2.70711C11.153 2.56726 11.0578 2.38907 11.0192 2.19509C10.9806 2.00111 11.0004 1.80004 11.0761 1.61732C11.1518 1.43459 11.28 1.27841 11.4444 1.16853C11.6089 1.05865 11.8022 1 12 1C12.2652 1 12.5196 1.10536 12.7071 1.29289C12.8946 1.48043 13 1.73478 13 2ZM4 2C4 1.60444 3.8827 1.21776 3.66294 0.88886C3.44318 0.559962 3.13082 0.303617 2.76537 0.152241C2.39991 0.000866055 1.99778 -0.0387406 1.60982 0.0384298C1.22186 0.1156 0.865491 0.306082 0.585786 0.585787C0.306081 0.865492 0.115599 1.22186 0.0384282 1.60982C-0.0387422 1.99778 0.000864878 2.39991 0.15224 2.76537C0.303614 3.13082 0.55996 3.44318 0.888859 3.66294C1.21776 3.8827 1.60444 4 2 4C2.53043 4 3.03914 3.78929 3.41421 3.41421C3.78928 3.03914 4 2.53043 4 2ZM0.999999 2C0.999999 1.80222 1.05865 1.60888 1.16853 1.44443C1.27841 1.27998 1.43459 1.15181 1.61732 1.07612C1.80004 1.00043 2.00111 0.98063 2.19509 1.01922C2.38907 1.0578 2.56725 1.15304 2.70711 1.29289C2.84696 1.43275 2.9422 1.61093 2.98078 1.80491C3.01937 1.99889 2.99957 2.19996 2.92388 2.38268C2.84819 2.56541 2.72002 2.72159 2.55557 2.83147C2.39112 2.94135 2.19778 3 2 3C1.73478 3 1.48043 2.89464 1.29289 2.70711C1.10536 2.51957 0.999999 2.26522 0.999999 2Z" fill="#3f51b5"/>
</svg>
