<svg width="28" height="26" viewBox="0 0 28 26" fill="none" xmlns="http://www.w3.org/2000/svg">
<rect width="28" height="26" rx="2" fill="#3f51b5"/>
<path d="M18.6947 12.2884V17.5764C18.6947 17.8102 18.6019 18.0344 18.4366 18.1996C18.2713 18.3649 18.0472 18.4578 17.8134 18.4578H9.88134C9.64759 18.4578 9.42342 18.3649 9.25814 18.1996C9.09286 18.0344 9 17.8102 9 17.5764V12.2884C9 12.0546 9.09286 11.8305 9.25814 11.6652C9.42342 11.4999 9.64759 11.407 9.88134 11.407H11.2034C11.3202 11.407 11.4323 11.4535 11.515 11.5361C11.5976 11.6188 11.644 11.7308 11.644 11.8477C11.644 11.9646 11.5976 12.0767 11.515 12.1593C11.4323 12.242 11.3202 12.2884 11.2034 12.2884H9.88134V17.5764H17.8134V12.2884H16.4914C16.3745 12.2884 16.2624 12.242 16.1798 12.1593C16.0972 12.0767 16.0507 11.9646 16.0507 11.8477C16.0507 11.7308 16.0972 11.6188 16.1798 11.5361C16.2624 11.4535 16.3745 11.407 16.4914 11.407H17.8134C18.0472 11.407 18.2713 11.4999 18.4366 11.6652C18.6019 11.8305 18.6947 12.0546 18.6947 12.2884ZM11.9558 9.95614L13.4067 8.50469V13.6104C13.4067 13.7273 13.4531 13.8394 13.5358 13.922C13.6184 14.0046 13.7305 14.0511 13.8474 14.0511C13.9642 14.0511 14.0763 14.0046 14.159 13.922C14.2416 13.8394 14.288 13.7273 14.288 13.6104V8.50469L15.739 9.95614C15.8216 10.0388 15.9338 10.0853 16.0507 10.0853C16.1677 10.0853 16.2798 10.0388 16.3625 9.95614C16.4452 9.87346 16.4916 9.76131 16.4916 9.64437C16.4916 9.52743 16.4452 9.41528 16.3625 9.33259L14.1591 7.12924C14.1182 7.08827 14.0696 7.05577 14.0161 7.03359C13.9626 7.01141 13.9053 7 13.8474 7C13.7895 7 13.7321 7.01141 13.6786 7.03359C13.6251 7.05577 13.5765 7.08827 13.5356 7.12924L11.3322 9.33259C11.2496 9.41528 11.2031 9.52743 11.2031 9.64437C11.2031 9.76131 11.2496 9.87346 11.3322 9.95614C11.4149 10.0388 11.5271 10.0853 11.644 10.0853C11.761 10.0853 11.8731 10.0388 11.9558 9.95614Z" fill="white"/>
</svg>
