<svg width="19" height="22" viewBox="0 0 19 22" fill="none" xmlns="http://www.w3.org/2000/svg">
<path d="M16.7608 2.67896L4.54987 0.522706C4.15814 0.453772 3.75508 0.543241 3.42931 0.771439C3.10354 0.999636 2.88174 1.34788 2.81268 1.73958L0.0236199 17.5833C-0.010493 17.7774 -0.00602409 17.9763 0.0367713 18.1687C0.0795666 18.3611 0.159849 18.5431 0.273032 18.7045C0.386215 18.8658 0.530079 19.0032 0.696402 19.1089C0.862726 19.2146 1.04825 19.2865 1.24237 19.3205L13.4533 21.4768C13.6475 21.511 13.8465 21.5067 14.039 21.4639C14.2314 21.4212 14.4136 21.3409 14.575 21.2277C14.7365 21.1145 14.874 20.9706 14.9798 20.8042C15.0855 20.6378 15.1575 20.4522 15.1914 20.258L17.9805 4.41427C18.0488 4.02242 17.9587 3.61947 17.73 3.29405C17.5013 2.96863 17.1526 2.74738 16.7608 2.67896ZM13.7121 19.9993L1.50018 17.843L4.28924 1.99927L16.5002 4.15552L13.7121 19.9993ZM5.37581 4.47614C5.41055 4.28037 5.52161 4.1064 5.68457 3.99248C5.84754 3.87856 6.04907 3.83402 6.24487 3.86864L14.0261 5.24208C14.2111 5.27448 14.3771 5.37505 14.4915 5.52394C14.6058 5.67283 14.6602 5.8592 14.6439 6.04623C14.6275 6.23326 14.5416 6.40735 14.4031 6.5341C14.2646 6.66086 14.0836 6.73106 13.8958 6.73083C13.8518 6.73077 13.8079 6.72701 13.7646 6.71958L5.98331 5.34521C5.78753 5.31047 5.61356 5.1994 5.49964 5.03644C5.38573 4.87347 5.34118 4.67194 5.37581 4.47614ZM4.85643 7.43114C4.87353 7.33412 4.90957 7.24142 4.9625 7.15832C5.01543 7.07523 5.08421 7.00339 5.16492 6.94688C5.24562 6.89038 5.33667 6.85033 5.43285 6.82903C5.52904 6.80772 5.62848 6.80557 5.72549 6.82271L13.5067 8.19708C13.693 8.22823 13.8606 8.32847 13.9762 8.4778C14.0917 8.62712 14.1467 8.81454 14.1301 9.00263C14.1136 9.19072 14.0267 9.36564 13.8868 9.49246C13.7469 9.61928 13.5643 9.68866 13.3755 9.68677C13.3311 9.68686 13.2869 9.68278 13.2433 9.67458L5.46206 8.30114C5.26643 8.26598 5.09277 8.1546 4.97921 7.99147C4.86565 7.82834 4.8215 7.62681 4.85643 7.43114ZM4.33612 10.3852C4.37151 10.1899 4.48285 10.0167 4.64574 9.90333C4.80863 9.79 5.0098 9.74583 5.20518 9.78052L9.09393 10.464C9.27878 10.4963 9.44478 10.5968 9.55914 10.7456C9.67351 10.8944 9.72795 11.0807 9.7117 11.2676C9.69545 11.4546 9.60971 11.6287 9.47139 11.7555C9.33307 11.8823 9.15222 11.9527 8.96456 11.9527C8.92057 11.9527 8.87666 11.9489 8.83331 11.9415L4.94268 11.2543C4.74708 11.2193 4.57334 11.1082 4.45962 10.9452C4.34589 10.7823 4.30148 10.5809 4.33612 10.3852Z" fill="#3f51b5"/>
</svg>
