<svg width="14" height="16" viewBox="0 0 14 16" fill="none" xmlns="http://www.w3.org/2000/svg">
<path d="M12.8204 1.75971L3.66216 0.142518C3.36836 0.0908173 3.06607 0.157919 2.82174 0.329067C2.57741 0.500216 2.41106 0.761396 2.35927 1.05517L0.267471 12.938C0.241886 13.0836 0.245238 13.2327 0.277334 13.377C0.309431 13.5213 0.369643 13.6578 0.45453 13.7788C0.539417 13.8998 0.647315 14.0029 0.772058 14.0822C0.8968 14.1615 1.03594 14.2154 1.18153 14.2409L10.3397 15.8581C10.4854 15.8838 10.6346 15.8805 10.779 15.8484C10.9233 15.8164 11.06 15.7562 11.181 15.6713C11.3021 15.5864 11.4053 15.4785 11.4846 15.3537C11.5639 15.2289 11.6179 15.0897 11.6433 14.944L13.7351 3.06119C13.7864 2.7673 13.7188 2.46509 13.5472 2.22102C13.3757 1.97696 13.1142 1.81102 12.8204 1.75971ZM10.5338 14.7499L1.37489 13.1328L3.46669 1.24994L12.6249 2.86713L10.5338 14.7499ZM4.28161 3.1076C4.30767 2.96076 4.39096 2.83029 4.51319 2.74485C4.63541 2.65941 4.78656 2.626 4.93341 2.65197L10.7693 3.68205C10.908 3.70635 11.0326 3.78178 11.1184 3.89344C11.2041 4.00511 11.2449 4.14489 11.2326 4.28516C11.2204 4.42543 11.1559 4.556 11.052 4.65107C10.9482 4.74613 10.8124 4.79878 10.6716 4.79861C10.6386 4.79857 10.6057 4.79574 10.5732 4.79017L4.73724 3.75939C4.5904 3.73334 4.45993 3.65004 4.37449 3.52782C4.28905 3.40559 4.25564 3.25444 4.28161 3.1076ZM3.89208 5.32385C3.9049 5.25108 3.93193 5.18155 3.97163 5.11923C4.01133 5.05691 4.06291 5.00303 4.12344 4.96065C4.18397 4.91827 4.25226 4.88824 4.32439 4.87226C4.39653 4.85628 4.47111 4.85467 4.54388 4.86752L10.3798 5.8983C10.5195 5.92166 10.6452 5.99684 10.7319 6.10884C10.8185 6.22083 10.8598 6.36139 10.8474 6.50246C10.8349 6.64353 10.7697 6.77472 10.6648 6.86983C10.5599 6.96494 10.423 7.01699 10.2814 7.01556C10.2481 7.01563 10.2149 7.01257 10.1822 7.00642L4.3463 5.97635C4.19958 5.94997 4.06933 5.86644 3.98416 5.74409C3.899 5.62174 3.86588 5.47059 3.89208 5.32385ZM3.50185 7.53939C3.52839 7.39295 3.61189 7.26299 3.73406 7.17799C3.85623 7.09299 4.0071 7.05986 4.15364 7.08588L7.07021 7.59846C7.20884 7.62274 7.33334 7.69812 7.41911 7.80971C7.50489 7.9213 7.54572 8.061 7.53353 8.20122C7.52135 8.34144 7.45704 8.47199 7.3533 8.56712C7.24955 8.66224 7.11392 8.71501 6.97317 8.71502C6.94018 8.715 6.90725 8.71218 6.87474 8.70658L3.95677 8.19119C3.81006 8.16497 3.67976 8.08161 3.59447 7.9594C3.50918 7.8372 3.47586 7.68614 3.50185 7.53939Z" fill="#4D4D4D"/>
</svg>
