<svg width="14" height="15" viewBox="0 0 14 15" fill="none" xmlns="http://www.w3.org/2000/svg">
<path d="M12.6671 1.25H11.0324V0.6875C11.0324 0.538316 10.975 0.395242 10.8728 0.289752C10.7706 0.184263 10.632 0.125 10.4875 0.125C10.343 0.125 10.2044 0.184263 10.1022 0.289752C9.99998 0.395242 9.94257 0.538316 9.94257 0.6875V1.25H4.49353V0.6875C4.49353 0.538316 4.43612 0.395242 4.33393 0.289752C4.23174 0.184263 4.09314 0.125 3.94862 0.125C3.80411 0.125 3.66551 0.184263 3.56332 0.289752C3.46113 0.395242 3.40372 0.538316 3.40372 0.6875V1.25H1.76901C1.47997 1.25 1.20278 1.36853 0.998397 1.5795C0.794018 1.79048 0.679199 2.07663 0.679199 2.375V13.625C0.679199 13.9234 0.794018 14.2095 0.998397 14.4205C1.20278 14.6315 1.47997 14.75 1.76901 14.75H12.6671C12.9561 14.75 13.2333 14.6315 13.4377 14.4205C13.6421 14.2095 13.7569 13.9234 13.7569 13.625V2.375C13.7569 2.07663 13.6421 1.79048 13.4377 1.5795C13.2333 1.36853 12.9561 1.25 12.6671 1.25ZM3.40372 2.375V2.9375C3.40372 3.08668 3.46113 3.22976 3.56332 3.33525C3.66551 3.44074 3.80411 3.5 3.94862 3.5C4.09314 3.5 4.23174 3.44074 4.33393 3.33525C4.43612 3.22976 4.49353 3.08668 4.49353 2.9375V2.375H9.94257V2.9375C9.94257 3.08668 9.99998 3.22976 10.1022 3.33525C10.2044 3.44074 10.343 3.5 10.4875 3.5C10.632 3.5 10.7706 3.44074 10.8728 3.33525C10.975 3.22976 11.0324 3.08668 11.0324 2.9375V2.375H12.6671V4.625H1.76901V2.375H3.40372ZM12.6671 13.625H1.76901V5.75H12.6671V13.625ZM10.0556 7.60203C10.1063 7.65427 10.1465 7.71631 10.1739 7.7846C10.2013 7.85288 10.2154 7.92608 10.2154 8C10.2154 8.07392 10.2013 8.14712 10.1739 8.2154C10.1465 8.28369 10.1063 8.34573 10.0556 8.39797L6.78621 11.773C6.7356 11.8253 6.67551 11.8668 6.60936 11.8951C6.54321 11.9234 6.4723 11.9379 6.40069 11.9379C6.32908 11.9379 6.25818 11.9234 6.19203 11.8951C6.12587 11.8668 6.06578 11.8253 6.01517 11.773L4.38046 10.0855C4.27821 9.97992 4.22077 9.83677 4.22077 9.6875C4.22077 9.53823 4.27821 9.39508 4.38046 9.28953C4.48271 9.18398 4.62138 9.12469 4.76598 9.12469C4.91058 9.12469 5.04925 9.18398 5.1515 9.28953L6.40069 10.5798L9.2846 7.60203C9.3352 7.54973 9.3953 7.50824 9.46145 7.47994C9.5276 7.45163 9.59851 7.43706 9.67012 7.43706C9.74172 7.43706 9.81263 7.45163 9.87878 7.47994C9.94493 7.50824 10.005 7.54973 10.0556 7.60203Z" fill="#3f51b5"/>
</svg>
