<svg width="25" height="24" viewBox="0 0 25 24" fill="none" xmlns="http://www.w3.org/2000/svg">
<circle cx="12.4136" cy="12" r="12" fill="#7367F0" fill-opacity="0.2"/>
<path d="M17.4902 9.65402L14.3249 6.48871C14.2828 6.44673 14.233 6.41344 14.1781 6.39075C14.1232 6.36806 14.0643 6.3564 14.0049 6.35645H8.57869C8.33884 6.35645 8.1088 6.45173 7.9392 6.62133C7.7696 6.79093 7.67432 7.02097 7.67432 7.26082V17.2089C7.67432 17.4488 7.7696 17.6788 7.9392 17.8484C8.1088 18.018 8.33884 18.1133 8.57869 18.1133H16.7181C16.9579 18.1133 17.188 18.018 17.3576 17.8484C17.5272 17.6788 17.6224 17.4488 17.6224 17.2089V9.97395C17.6225 9.91455 17.6108 9.85572 17.5881 9.80083C17.5654 9.74593 17.5322 9.69605 17.4902 9.65402ZM14.4571 7.9001L16.0788 9.52176H14.4571V7.9001ZM16.7181 17.2089H8.57869V7.26082H13.5528V9.97395C13.5528 10.0939 13.6004 10.2089 13.6852 10.2937C13.77 10.3785 13.885 10.4261 14.0049 10.4261H16.7181V17.2089ZM14.9093 12.6871C14.9093 12.807 14.8617 12.922 14.7769 13.0068C14.6921 13.0916 14.5771 13.1393 14.4571 13.1393H10.8396C10.7197 13.1393 10.6047 13.0916 10.5199 13.0068C10.4351 12.922 10.3874 12.807 10.3874 12.6871C10.3874 12.5671 10.4351 12.4521 10.5199 12.3673C10.6047 12.2825 10.7197 12.2349 10.8396 12.2349H14.4571C14.5771 12.2349 14.6921 12.2825 14.7769 12.3673C14.8617 12.4521 14.9093 12.5671 14.9093 12.6871ZM14.9093 14.4958C14.9093 14.6157 14.8617 14.7308 14.7769 14.8156C14.6921 14.9004 14.5771 14.948 14.4571 14.948H10.8396C10.7197 14.948 10.6047 14.9004 10.5199 14.8156C10.4351 14.7308 10.3874 14.6157 10.3874 14.4958C10.3874 14.3759 10.4351 14.2609 10.5199 14.1761C10.6047 14.0913 10.7197 14.0436 10.8396 14.0436H14.4571C14.5771 14.0436 14.6921 14.0913 14.7769 14.1761C14.8617 14.2609 14.9093 14.3759 14.9093 14.4958Z" fill="#7367F0"/>
</svg>
