<svg width="18" height="13" viewBox="0 0 18 13" fill="none" xmlns="http://www.w3.org/2000/svg">
<path d="M8.42051 12.324C8.39009 12.4456 8.31987 12.5537 8.22101 12.6309C8.12215 12.7081 8.00032 12.75 7.87489 12.75C7.82749 12.7503 7.78026 12.7446 7.73426 12.7332L5.48426 12.1707C5.42162 12.1549 5.36216 12.1285 5.30848 12.0926L3.62098 10.9676C3.49688 10.8848 3.41075 10.7561 3.38154 10.6098C3.35234 10.4635 3.38244 10.3116 3.46524 10.1875C3.54804 10.0634 3.67674 9.97728 3.82304 9.94807C3.96934 9.91886 4.12125 9.94897 4.24536 10.0318L5.85129 11.1026L8.00707 11.6419C8.0791 11.6594 8.14697 11.6909 8.20678 11.7347C8.26658 11.7785 8.31715 11.8336 8.35557 11.897C8.39398 11.9604 8.4195 12.0307 8.43065 12.104C8.44179 12.1773 8.43835 12.252 8.42051 12.324ZM17.7503 5.54161C17.7041 5.6818 17.6307 5.81145 17.5341 5.92309C17.4376 6.03472 17.3198 6.12612 17.1878 6.192L15.5228 7.0245L11.65 10.898C11.5812 10.9667 11.4959 11.0164 11.4022 11.0422C11.3086 11.0681 11.2098 11.0693 11.1156 11.0457L6.61559 9.92067C6.54716 9.90349 6.48253 9.87368 6.42504 9.83278L2.52129 7.04559L0.814106 6.192C0.547296 6.05862 0.344378 5.82474 0.24997 5.54178C0.155563 5.25883 0.177396 4.94996 0.310669 4.68309L2.05793 1.18927C2.19131 0.922455 2.42519 0.719537 2.70815 0.62513C2.99111 0.530723 3.29998 0.552556 3.56684 0.685828L5.11793 1.45927L8.8445 0.394734C8.94559 0.365818 9.05277 0.365818 9.15387 0.394734L12.8804 1.45927L14.4315 0.685828C14.6984 0.552556 15.0073 0.530723 15.2902 0.62513C15.5732 0.719537 15.8071 0.922455 15.9404 1.18927L17.6877 4.68309C17.7543 4.81496 17.7942 4.95873 17.8049 5.10609C17.8157 5.25345 17.7971 5.40147 17.7503 5.54161ZM14.5032 6.45145L12.59 2.62505H10.3527L7.31239 5.57817C8.20254 6.147 9.59825 6.3038 10.8505 5.04169C10.9483 4.94311 11.0791 4.88419 11.2178 4.87627C11.3564 4.86835 11.4931 4.91199 11.6014 4.9988L14.0209 6.93731L14.5032 6.45145ZM1.31684 5.18583L2.56067 5.80809L4.30793 2.31427L3.06411 1.692L1.31684 5.18583ZM13.2186 7.73395L11.2703 6.17372C9.89637 7.29872 8.15192 7.44708 6.70629 6.52528C6.56409 6.43483 6.44403 6.31358 6.35498 6.17049C6.26593 6.0274 6.21016 5.86614 6.1918 5.69861C6.17344 5.53108 6.19296 5.36156 6.24891 5.20258C6.30485 5.04361 6.39581 4.89923 6.51504 4.78013C6.51674 4.77808 6.51862 4.77619 6.52067 4.7745L9.67489 1.7152L8.99989 1.52255L5.45473 2.53575L3.53028 6.38395L6.98965 8.85544L11.0776 9.87708L13.2186 7.73395ZM16.6808 5.18583L14.9357 1.692L13.6918 2.31427L15.4391 5.80809L16.6808 5.18583Z" fill="#4D4D4D"/>
</svg>
