<svg width="24" height="17" viewBox="0 0 24 17" fill="none" xmlns="http://www.w3.org/2000/svg">
<path d="M11.227 16.4306C11.1865 16.5929 11.0928 16.7369 10.961 16.8399C10.8292 16.9428 10.6668 16.9987 10.4995 16.9988C10.4363 16.9991 10.3734 16.9915 10.312 16.9763L7.31202 16.2263C7.2285 16.2053 7.14922 16.1701 7.07765 16.1222L4.82765 14.6222C4.66218 14.5118 4.54734 14.3402 4.5084 14.1451C4.46945 13.9501 4.5096 13.7475 4.61999 13.582C4.73039 13.4166 4.902 13.3017 5.09706 13.2628C5.29213 13.2238 5.49468 13.264 5.66015 13.3744L7.8014 14.8022L10.6758 15.5213C10.7718 15.5445 10.8623 15.5866 10.942 15.6449C11.0218 15.7033 11.0892 15.7769 11.1404 15.8614C11.1917 15.9459 11.2257 16.0397 11.2405 16.1374C11.2554 16.2351 11.2508 16.3347 11.227 16.4306ZM23.6667 7.38751C23.6052 7.57443 23.5072 7.7473 23.3785 7.89615C23.2498 8.04499 23.0928 8.16685 22.9167 8.2547L20.6967 9.3647L15.533 14.5294C15.4413 14.6209 15.3275 14.6872 15.2027 14.7217C15.0778 14.7562 14.9461 14.7578 14.8205 14.7263L8.82046 13.2263C8.72922 13.2034 8.64305 13.1636 8.5664 13.1091L3.3614 9.39282L1.08515 8.2547C0.729402 8.07686 0.458845 7.76502 0.332968 7.38774C0.207092 7.01047 0.236203 6.59864 0.4139 6.24282L2.74359 1.58439C2.92142 1.22864 3.23327 0.958081 3.61054 0.832204C3.98782 0.706328 4.39964 0.735439 4.75546 0.913136L6.82359 1.94439L11.7923 0.525011C11.9271 0.486455 12.07 0.486455 12.2048 0.525011L17.1736 1.94439L19.2417 0.913136C19.5975 0.735439 20.0094 0.706328 20.3866 0.832204C20.7639 0.958081 21.0758 1.22864 21.2536 1.58439L23.5833 6.24282C23.6721 6.41864 23.7253 6.61034 23.7396 6.80682C23.7539 7.00329 23.7291 7.20066 23.6667 7.38751ZM19.3373 8.60064L16.7864 3.49876H13.8033L9.74953 7.43626C10.9364 8.1947 12.7973 8.40376 14.467 6.72095C14.5974 6.58951 14.7718 6.51095 14.9567 6.50039C15.1415 6.48984 15.3238 6.54803 15.4683 6.66376L18.6942 9.24845L19.3373 8.60064ZM1.75546 6.91314L3.4139 7.74282L5.74359 3.08439L4.08515 2.2547L1.75546 6.91314ZM17.6245 10.3106L15.0267 8.23032C13.1948 9.73032 10.8689 9.92814 8.9414 8.69907C8.7518 8.57847 8.59171 8.4168 8.47298 8.22602C8.35424 8.03524 8.27989 7.82022 8.25541 7.59684C8.23093 7.37347 8.25695 7.14745 8.33155 6.93548C8.40615 6.72351 8.52742 6.53101 8.6864 6.3722C8.68866 6.36947 8.69117 6.36696 8.6939 6.3647L12.8995 2.28564L11.9995 2.02876L7.27265 3.3797L4.70671 8.51064L9.31921 11.8059L14.7698 13.1681L17.6245 10.3106ZM22.2408 6.91314L19.9139 2.2547L18.2555 3.08439L20.5851 7.74282L22.2408 6.91314Z" fill="#3f51b5"/>
</svg>
