<svg width="16" height="12" viewBox="0 0 16 12" fill="none" xmlns="http://www.w3.org/2000/svg">
<path d="M14.7498 0.375H1.24976C0.951387 0.375 0.665239 0.493526 0.454261 0.704505C0.243282 0.915483 0.124756 1.20163 0.124756 1.5V10.5C0.124756 10.7984 0.243282 11.0845 0.454261 11.2955C0.665239 11.5065 0.951387 11.625 1.24976 11.625H14.7498C15.0481 11.625 15.3343 11.5065 15.5453 11.2955C15.7562 11.0845 15.8748 10.7984 15.8748 10.5V1.5C15.8748 1.20163 15.7562 0.915483 15.5453 0.704505C15.3343 0.493526 15.0481 0.375 14.7498 0.375ZM14.7498 1.5V3.1875H1.24976V1.5H14.7498ZM14.7498 10.5H1.24976V4.3125H14.7498V10.5ZM13.6248 8.8125C13.6248 8.96168 13.5655 9.10476 13.46 9.21025C13.3545 9.31574 13.2114 9.375 13.0623 9.375H10.8123C10.6631 9.375 10.52 9.31574 10.4145 9.21025C10.309 9.10476 10.2498 8.96168 10.2498 8.8125C10.2498 8.66332 10.309 8.52024 10.4145 8.41475C10.52 8.30926 10.6631 8.25 10.8123 8.25H13.0623C13.2114 8.25 13.3545 8.30926 13.46 8.41475C13.5655 8.52024 13.6248 8.66332 13.6248 8.8125ZM9.12476 8.8125C9.12476 8.96168 9.06549 9.10476 8.96 9.21025C8.85452 9.31574 8.71144 9.375 8.56226 9.375H7.43726C7.28807 9.375 7.145 9.31574 7.03951 9.21025C6.93402 9.10476 6.87476 8.96168 6.87476 8.8125C6.87476 8.66332 6.93402 8.52024 7.03951 8.41475C7.145 8.30926 7.28807 8.25 7.43726 8.25H8.56226C8.71144 8.25 8.85452 8.30926 8.96 8.41475C9.06549 8.52024 9.12476 8.66332 9.12476 8.8125Z" fill="#4D4D4D"/>
</svg>
