<svg width="16" height="16" viewBox="0 0 16 16" fill="none" xmlns="http://www.w3.org/2000/svg">
<path d="M8 0.6875C6.55373 0.6875 5.13993 1.11637 3.9374 1.91988C2.73486 2.72339 1.7976 3.86544 1.24413 5.20163C0.690668 6.53781 0.545856 8.00811 0.828011 9.4266C1.11017 10.8451 1.80661 12.148 2.82928 13.1707C3.85196 14.1934 5.15492 14.8898 6.57341 15.172C7.99189 15.4541 9.46219 15.3093 10.7984 14.7559C12.1346 14.2024 13.2766 13.2651 14.0801 12.0626C14.8836 10.8601 15.3125 9.44628 15.3125 8C15.3105 6.06123 14.5394 4.20246 13.1685 2.83154C11.7975 1.46063 9.93877 0.689547 8 0.6875ZM14.1875 8C14.1881 8.79381 14.0353 9.58026 13.7375 10.3161L10.5945 8.3832C10.4609 8.30074 10.3114 8.24732 10.1558 8.22641L8.55125 8.00984C8.33016 7.98101 8.10547 8.01808 7.90535 8.11639C7.70522 8.2147 7.53856 8.36988 7.42625 8.5625H6.81313L6.54594 8.00984C6.47207 7.85596 6.36397 7.72102 6.22991 7.61535C6.09585 7.50969 5.93939 7.4361 5.7725 7.40023L5.21 7.27859L5.75985 6.3125H6.93477C7.12489 6.31213 7.31184 6.26376 7.47828 6.17188L8.33961 5.69656C8.41529 5.65438 8.48603 5.60391 8.55055 5.54609L10.4427 3.83469C10.6324 3.66468 10.7584 3.43509 10.8001 3.18378C10.8418 2.93248 10.7966 2.67448 10.6719 2.45234L10.6466 2.40664C11.7053 2.90867 12.6 3.70067 13.2268 4.69071C13.8535 5.68075 14.1867 6.82824 14.1875 8ZM9.07649 1.90672L9.6875 3.00078L7.79539 4.71219L6.93477 5.1875H5.75985C5.56209 5.18721 5.36774 5.23905 5.19641 5.33781C5.02507 5.43656 4.88279 5.57873 4.78391 5.75L4.17008 6.82086L3.45641 4.91961L4.22563 3.10062C4.90649 2.57454 5.68974 2.19647 6.52518 1.99064C7.36063 1.7848 8.22986 1.75574 9.07719 1.90531L9.07649 1.90672ZM1.8125 8C1.81156 7.08033 2.01675 6.17213 2.41297 5.34219L3.21032 7.47055C3.27676 7.64677 3.38639 7.80349 3.52914 7.92633C3.67189 8.04918 3.84319 8.13423 4.02735 8.17367L5.53414 8.49781L5.80203 9.05469C5.895 9.24409 6.03909 9.40372 6.21801 9.51554C6.39692 9.62736 6.60355 9.68693 6.81453 9.6875H6.9186L6.41024 10.8287C6.32067 11.0296 6.29198 11.2524 6.32772 11.4695C6.36346 11.6866 6.46207 11.8884 6.61133 12.05L6.62118 12.0598L8 13.4802L7.8636 14.1833C6.24769 14.1457 4.71047 13.478 3.57996 12.3228C2.44945 11.1676 1.81518 9.61634 1.8125 8ZM9.02516 14.1017L9.10461 13.6932C9.13727 13.5196 9.12884 13.3409 9.08 13.1711C9.03116 13.0014 8.94327 12.8455 8.82336 12.7159C8.81991 12.7128 8.81662 12.7095 8.81352 12.706L7.4375 11.2864L8.40078 9.125L10.0053 9.34156L13.22 11.3187C12.7543 12.0502 12.1403 12.6758 11.4177 13.1551C10.6952 13.6345 9.8801 13.957 9.02516 14.1017Z" fill="#4D4D4D"/>
</svg>
