<svg width="7" height="12" viewBox="0 0 7 12" fill="none" xmlns="http://www.w3.org/2000/svg">
<path d="M6.21393 8.31581C6.254 8.35644 6.28579 8.4047 6.30748 8.45781C6.32917 8.51092 6.34033 8.56785 6.34033 8.62534C6.34033 8.68284 6.32917 8.73977 6.30748 8.79288C6.28579 8.84599 6.254 8.89424 6.21393 8.93488L3.62789 11.5599C3.58786 11.6006 3.54032 11.6328 3.488 11.6548C3.43568 11.6769 3.37959 11.6882 3.32295 11.6882C3.26631 11.6882 3.21022 11.6769 3.1579 11.6548C3.10558 11.6328 3.05804 11.6006 3.01801 11.5599L0.431973 8.93488C0.351099 8.85278 0.305664 8.74144 0.305664 8.62534C0.305664 8.50925 0.351099 8.39791 0.431973 8.31581C0.512847 8.23372 0.622537 8.1876 0.73691 8.1876C0.851284 8.1876 0.960973 8.23372 1.04185 8.31581L3.32295 10.6318L5.60405 8.31581C5.64408 8.27514 5.69162 8.24287 5.74394 8.22085C5.79626 8.19883 5.85235 8.1875 5.90899 8.1875C5.96563 8.1875 6.02172 8.19883 6.07404 8.22085C6.12636 8.24287 6.1739 8.27514 6.21393 8.31581ZM1.04185 3.68488L3.32295 1.36886L5.60405 3.68488C5.68493 3.76697 5.79462 3.81309 5.90899 3.81309C6.02336 3.81309 6.13305 3.76697 6.21393 3.68488C6.2948 3.60278 6.34024 3.49144 6.34024 3.37534C6.34024 3.25925 6.2948 3.14791 6.21393 3.06581L3.62789 0.440813C3.58786 0.400136 3.54032 0.367866 3.488 0.345849C3.43568 0.323832 3.37959 0.3125 3.32295 0.3125C3.26631 0.3125 3.21022 0.323832 3.1579 0.345849C3.10558 0.367866 3.05804 0.400136 3.01801 0.440813L0.431973 3.06581C0.351099 3.14791 0.305664 3.25925 0.305664 3.37534C0.305664 3.49144 0.351099 3.60278 0.431973 3.68488C0.512848 3.76697 0.622537 3.81309 0.73691 3.81309C0.851284 3.81309 0.960973 3.76697 1.04185 3.68488Z" fill="#3f51b5"/>
</svg>
