<svg width="14" height="15" viewBox="0 0 14 15" fill="none" xmlns="http://www.w3.org/2000/svg">
<path d="M13.3867 6.29635L7.76173 0.989166C7.75898 0.986767 7.75639 0.984182 7.75399 0.981431C7.54689 0.793087 7.27702 0.688721 6.99708 0.688721C6.71715 0.688721 6.44727 0.793087 6.24017 0.981431L6.23243 0.989166L0.61376 6.29635C0.499149 6.40174 0.407662 6.52978 0.34509 6.67235C0.282517 6.81492 0.25022 6.96893 0.250244 7.12463V13.625C0.250244 13.9234 0.368771 14.2095 0.579749 14.4205C0.790727 14.6315 1.07688 14.75 1.37524 14.75H4.75024C5.04861 14.75 5.33476 14.6315 5.54574 14.4205C5.75672 14.2095 5.87524 13.9234 5.87524 13.625V10.25H8.12524V13.625C8.12524 13.9234 8.24377 14.2095 8.45475 14.4205C8.66573 14.6315 8.95188 14.75 9.25024 14.75H12.6252C12.9236 14.75 13.2098 14.6315 13.4207 14.4205C13.6317 14.2095 13.7502 13.9234 13.7502 13.625V7.12463C13.7503 6.96893 13.718 6.81492 13.6554 6.67235C13.5928 6.52978 13.5013 6.40174 13.3867 6.29635ZM12.6252 13.625H9.25024V10.25C9.25024 9.95166 9.13172 9.66551 8.92074 9.45453C8.70976 9.24355 8.42361 9.12502 8.12524 9.12502H5.87524C5.57688 9.12502 5.29073 9.24355 5.07975 9.45453C4.86877 9.66551 4.75024 9.95166 4.75024 10.25V13.625H1.37524V7.12463L1.38298 7.1176L7.00024 1.81252L12.6182 7.1162L12.6259 7.12323L12.6252 13.625Z" fill="#4D4D4D"/>
</svg>
