<svg width="207" height="207" viewBox="0 0 207 207" fill="none" xmlns="http://www.w3.org/2000/svg">
<path d="M164.883 115.409V37.9241C164.883 36.6829 164.39 35.4925 163.512 34.6149C162.635 33.7372 161.444 33.2441 160.203 33.2441H49.9291C48.6874 33.2441 47.4965 33.737 46.6181 34.6146C45.7396 35.4921 45.2455 36.6824 45.2441 37.9241V115.409H164.883Z" fill="#4D4D4D"/>
<path d="M157.485 40.2812H52.8936V107.984H157.485V40.2812Z" fill="white"/>
<path d="M45.2457 115.408L27.7368 151.285H182.929L164.885 115.408H45.2457Z" fill="white" stroke="#4D4D4D" stroke-width="1.05102" stroke-miterlimit="10"/>
<path d="M183.331 151.543H27.3145V153.737H183.331V151.543Z" fill="#4D4D4D"/>
<path d="M60.4763 117.538L58.923 121.245H66.8139L68.2382 117.538H60.4763ZM50.8534 121.766L48.9129 126.154H56.3175L58.1488 121.766H50.8534ZM48.6797 126.675L46.7392 131.057H54.2678L56.0991 126.675H48.6797ZM74.1936 126.675L72.8884 131.057H79.2706L80.2284 126.675H74.1936ZM88.0895 121.766L87.5089 126.154H93.5585L93.9556 121.766H88.0895ZM80.7892 126.675L79.7966 131.057H86.3178L86.8984 126.675H80.7892ZM87.4443 126.675L86.8687 131.057H93.1069L93.5089 126.675H87.4443ZM94.4866 121.766L94.0846 126.154H100.005L100.224 121.766H94.4866ZM94.8687 117.538L94.5313 121.245H100.248L100.437 117.538H94.8687ZM106.611 121.766H100.745L100.526 126.154H106.655L106.611 121.766ZM94.03 126.675L93.633 131.057H99.7621L99.9755 126.675H94.03ZM106.665 126.675H100.502L100.278 131.057H106.7L106.665 126.675ZM112.963 126.675H107.182L107.221 131.057H113.201L112.963 126.675ZM118.641 117.538H113.018L113.216 121.245H119.023L118.641 117.538ZM119.082 121.766H113.226L113.46 126.154H119.549L119.082 121.766ZM124.735 117.538H119.157L119.549 121.245H125.296L124.735 117.538ZM125.38 121.766H119.603L120.065 126.154H126.045L125.38 121.766ZM119.599 126.675H113.514L113.747 131.057H120.085L119.599 126.675ZM126.13 126.675H120.125L120.586 131.057H126.805L126.13 126.675ZM156.84 121.766H151.063L152.596 126.154H158.552L156.84 121.766ZM141.157 131.578H134.323L135.167 136.104H142.298L141.157 131.578ZM152.224 126.675H147.38L148.76 131.057H153.763L152.224 126.675ZM158.73 126.675H152.775L154.304 131.057H160.433L158.73 126.675ZM54.6103 131.578L52.7194 136.104H61.0967L62.8386 131.578H54.6103ZM168.949 136.625H163.142L165.257 142.054H164.696L162.587 136.625H44.2677L41.8657 142.054H171.267L168.949 136.625ZM46.5159 131.578L44.5308 136.104H52.1934L54.0792 131.578H46.5159ZM160.661 131.578H154.492L156.07 136.104H162.398L160.661 131.578ZM166.815 131.578H161.197L162.964 136.104H168.731L166.815 131.578ZM164.73 126.675H159.296L160.998 131.057H166.577L164.73 126.675ZM153.961 131.578H148.949L150.373 136.104H155.544L153.961 131.578ZM148.398 131.578H141.688L142.854 136.104H149.802L148.398 131.578ZM133.817 131.578H127.41L128.105 136.104H134.636L133.817 131.578ZM126.899 131.578H120.641L121.112 136.104H127.564L126.899 131.578ZM120.134 131.578H113.752L113.995 136.104H120.591L120.134 131.578ZM113.246 131.578H107.226L107.276 136.104H113.469L113.246 131.578ZM106.725 131.578H100.273L100.05 136.104H106.775L106.725 131.578ZM93.5983 131.578L93.1863 136.104H99.5239L99.7522 131.578H93.5983ZM86.8141 131.578L86.2185 136.104H92.6702L93.0871 131.578H86.8141ZM79.7271 131.578L78.7346 136.104H85.6825L86.2731 131.578H79.7271ZM72.7792 131.578L71.4343 136.104H78.2234L79.216 131.578H72.7792ZM63.4441 131.578L61.7022 136.104H70.8338L72.1836 131.578H63.4441ZM146.874 126.675H140.472L141.594 131.057H148.254L146.874 126.675ZM162.656 121.766H157.39L159.098 126.154H164.482L162.656 121.766ZM160.919 117.697L160.855 117.538H155.748L157.187 121.245H162.393L160.919 117.697ZM155.202 117.538H149.589L150.879 121.245H156.631L155.202 117.538ZM149.043 117.538H144.517L145.683 121.245H150.338L149.043 117.538ZM150.532 121.766H145.857L147.241 126.154H152.065L150.532 121.766ZM145.311 121.766H139.177L140.303 126.154H146.671L145.311 121.766ZM143.981 117.538H138.095L139.048 121.245H145.122L143.981 117.538ZM139.921 126.675H133.42L134.229 131.057H141.023L139.921 126.675ZM132.909 126.675H126.651L127.326 131.057H133.698L132.909 126.675ZM138.666 121.766H132.507L133.321 126.154H139.772L138.666 121.766ZM137.579 117.538H131.723L132.413 121.245H138.507L137.579 117.538ZM131.996 121.766H125.921L126.596 126.154H132.81L131.996 121.766ZM131.216 117.538H125.261L125.827 121.245H131.877L131.216 117.538ZM112.715 121.766H107.127L107.177 126.154H112.933L112.715 121.766ZM112.492 117.538H107.087L107.122 121.245H112.67L112.492 117.538ZM106.586 117.538H100.953L100.77 121.245H106.601L106.586 117.538ZM88.6652 117.538L88.1689 121.245H94.0201L94.3576 117.538H88.6652ZM82.8041 117.538L81.9902 121.245H87.6528L88.1491 117.538H82.8041ZM81.8761 121.766L80.9182 126.154H87.0027L87.5783 121.766H81.8761ZM76.9132 117.538L75.7966 121.245H81.4294L82.2383 117.538H76.9132ZM75.6527 121.766L74.3574 126.154H80.3624L81.3252 121.766H75.6527ZM68.804 117.538L67.3598 121.245H75.2457L76.3425 117.538H68.804ZM67.1811 121.766L65.4938 126.154H73.8115L75.1167 121.766H67.1811ZM65.2903 126.675L63.6079 131.057H72.3524L73.6576 126.675H65.2903ZM56.6698 126.675L54.8386 131.057H63.0421L64.7295 126.675H56.6698ZM58.7195 121.766L56.8882 126.154H64.928L66.6154 121.766H58.7195ZM52.7294 117.538L51.0867 121.245H58.3721L59.9205 117.538H52.7294ZM150.497 121.766H145.822L147.207 126.154H152.031L150.497 121.766Z" fill="#4D4D4D"/>
<path d="M61.4587 136.625L61.3594 136.888L60.873 136.699L60.8979 136.625H61.4587Z" fill="#4D4D4D"/>
<path d="M52.5057 136.625L52.4561 136.749L52.1533 136.625H52.5057Z" fill="#4D4D4D"/>
<path d="M134.448 54.585H76.6803C73.6818 54.585 71.251 57.0158 71.251 60.0143V80.9028C71.251 83.9014 73.6818 86.3322 76.6803 86.3322H134.448C137.446 86.3322 139.877 83.9014 139.877 80.9028V60.0143C139.877 57.0158 137.446 54.585 134.448 54.585Z" fill="#C8C8C8" stroke="#4D4D4D" stroke-width="1.57762" stroke-miterlimit="10"/>
<path d="M79.2713 100.735H131.967C132.731 100.733 133.483 100.532 134.146 100.152C134.809 99.7706 135.361 99.223 135.747 98.5629C136.133 97.9029 136.34 97.1533 136.347 96.3886C136.355 95.6239 136.162 94.8706 135.788 94.2034L109.435 47.1955C109.054 46.517 108.498 45.9522 107.826 45.5592C107.154 45.1661 106.39 44.959 105.612 44.959C104.833 44.959 104.069 45.1661 103.397 45.5592C102.725 45.9522 102.169 46.517 101.788 47.1955L75.435 94.2034C75.0607 94.8717 74.8679 95.6264 74.8757 96.3924C74.8836 97.1583 75.0918 97.9089 75.4798 98.5694C75.8678 99.2299 76.4219 99.7773 77.0871 100.157C77.7523 100.537 78.5053 100.736 79.2713 100.735Z" fill="#3f51b5"/>
<path d="M81.881 97.9401H129.341C131.157 97.9401 132.318 95.8806 131.415 94.2081L107.688 49.6717C107.495 49.2861 107.198 48.9619 106.831 48.7353C106.465 48.5087 106.042 48.3887 105.611 48.3887C105.18 48.3887 104.757 48.5087 104.39 48.7353C104.023 48.9619 103.727 49.2861 103.534 49.6717L79.8065 94.2081C78.9132 95.8806 80.0646 97.9401 81.881 97.9401Z" stroke="white" stroke-width="0.788267" stroke-miterlimit="10"/>
<path d="M104.795 83.3991H106.125C107.147 83.3991 108.006 82.4363 108.11 81.1659L109.42 66.7736C109.554 65.2848 108.621 63.9746 107.435 63.9746H103.271C102.056 63.9746 101.118 65.3096 101.286 66.8183L102.81 81.2105C102.934 82.4611 103.788 83.3991 104.795 83.3991Z" fill="white"/>
<path d="M108.054 88.4957C108.054 89.0296 107.896 89.5516 107.599 89.9956C107.302 90.4396 106.881 90.7856 106.387 90.9899C105.894 91.1943 105.351 91.2478 104.827 91.1436C104.304 91.0394 103.823 90.7823 103.445 90.4047C103.067 90.0271 102.81 89.5461 102.706 89.0224C102.602 88.4987 102.655 87.9558 102.86 87.4625C103.064 86.9692 103.41 86.5475 103.854 86.2509C104.298 85.9542 104.82 85.7959 105.354 85.7959C106.07 85.7959 106.757 86.0803 107.263 86.5866C107.769 87.093 108.054 87.7796 108.054 88.4957Z" fill="white"/>
<path d="M174.34 173.112C170.221 166.799 171.109 165.856 170.33 163.186C169.551 160.516 165.436 154.66 164.067 152.204C162.697 149.747 162.082 137.127 162.082 137.127C162.294 135.624 161.924 134.098 161.049 132.859C161.049 132.859 161.372 130.377 161.501 127.017C161.63 123.657 160.345 122.595 159.635 121.558C158.925 120.521 156.786 114.367 156.161 113.876C155.536 113.384 154.33 115.687 154.33 115.687C153.739 118.362 156.439 123.519 156.439 123.519L155.402 129.737L152.156 125.082C152.156 125.082 150.071 115.156 148.751 113.846C147.431 112.536 142.439 115.345 142.439 115.345C141.829 114.602 141.133 113.936 140.364 113.36C138.905 112.218 129.714 116.71 129.714 116.71C128.314 115.404 124.835 113.32 122.925 114.422C121.014 115.523 116.582 124.323 118.285 125.409C119.987 126.496 123.902 123.583 123.902 123.583C123.902 123.583 128.865 126.586 129.714 128.834C130.563 131.082 132.692 140.06 132.93 141.955C133.168 143.851 131.659 148.611 131.659 148.611C129.426 141.911 121.679 136.05 118.93 136.164C116.18 136.278 116.662 138.119 117.009 139.271C117.357 140.422 120.84 143.35 120.84 143.35L123.039 147.871C123.039 147.871 130.046 163.162 131.029 164.794C132.012 166.427 133.312 166.502 133.312 166.502L148.384 172.234C152.354 176.204 163.62 201.142 163.62 201.142C190.355 207.182 192.519 191.152 192.519 191.152C192.519 191.152 178.469 179.425 174.34 173.112ZM134.051 121.176L136.31 120.585L137.163 120.908L140.141 127.856L134.051 121.176Z" fill="white"/>
<path d="M164.066 202.144C164.066 202.144 151.311 173.707 148.383 172.248C145.455 170.789 133.956 167.439 131.659 165.553C129.361 163.667 122.229 145.066 120.577 142.977C118.924 140.888 115.559 139.424 117.023 136.913C118.487 134.401 127.058 138.168 131.659 148.62C131.659 148.62 133.123 144.019 132.914 141.513C132.755 139.642 131.093 133.364 130.254 130.282C129.915 129.045 129.293 127.903 128.438 126.947C127.76 126.143 126.987 125.425 126.135 124.808C124.646 123.89 123.316 123.463 122.661 121.562" stroke="#4D4D4D" stroke-width="1.05102" stroke-linecap="round" stroke-linejoin="round"/>
<path d="M123.863 123.369C123.863 123.369 121.427 125.568 119.848 125.647C118.27 125.727 117.863 125.488 117.863 123.99C117.863 122.491 121.506 115.146 122.945 114.436C124.384 113.726 127.997 115.305 129.734 116.962C131.471 118.62 140.385 128.094 140.385 128.094L137.074 120.674C136.634 120.602 136.231 120.383 135.93 120.054C135.63 119.724 135.449 119.303 135.417 118.858" stroke="#4D4D4D" stroke-width="1.05102" stroke-linecap="round" stroke-linejoin="round"/>
<path d="M142.444 115.344C142.444 115.344 147.005 112.406 148.752 113.821C150.499 115.235 150.98 124.381 153.149 126.878C155.317 129.374 156.652 131.2 157.149 133.612" stroke="#4D4D4D" stroke-width="1.05102" stroke-linecap="round" stroke-linejoin="round"/>
<path d="M155.529 129.896C155.978 127.795 156.284 125.666 156.448 123.524C154.972 121.183 154.237 118.452 154.338 115.687C154.338 115.687 155.132 114.298 156.165 113.881C157.197 113.464 158.234 120.159 160.343 122.586C162.453 125.013 161.048 132.849 161.048 132.849C161.048 132.849 162.596 135.077 162.08 137.117C162.08 137.117 163.39 150.268 164.065 152.194C164.74 154.12 169.346 159.896 170.433 163.484C171.52 167.073 171.773 169.514 175.038 174.12C178.304 178.725 192.959 191.539 192.959 191.539" stroke="#4D4D4D" stroke-width="1.05102" stroke-linecap="round" stroke-linejoin="round"/>
<path d="M129.714 116.962C129.714 116.962 138.186 112.733 140.365 113.374C142.543 114.014 145.035 120.361 146.643 123.413C148.251 126.466 148.489 127.672 150.499 129.761C152.509 131.85 152.826 132.49 153.149 134.257" stroke="#4D4D4D" stroke-width="1.05102" stroke-linecap="round" stroke-linejoin="round"/>
<path d="M142.875 130.778C143.415 131.316 143.842 131.955 144.133 132.658C144.423 133.362 144.571 134.116 144.568 134.878" stroke="#4D4D4D" stroke-width="1.05102" stroke-linecap="round" stroke-linejoin="round"/>
<g opacity="0.5">
<path d="M146.707 169.98C144.132 168.779 140.449 166.918 137.715 166.154C134.548 165.27 131.293 163.459 130.593 160.025C130.391 159.111 130.48 158.156 130.85 157.296C131.22 156.435 131.85 155.713 132.653 155.231C135.948 153.389 138.563 157.757 142.022 155.077C142.814 154.437 143.441 153.617 143.85 152.686C144.26 151.754 144.44 150.737 144.375 149.722C144.241 146.744 142.648 144.059 141.472 141.32C140.295 138.58 139.665 135.548 141.01 132.729C141.149 132.393 141.365 132.093 141.64 131.856C142.881 130.908 144.41 133.136 145.402 133.612C147.124 134.441 149 131.339 150.886 131.627C152.772 131.915 153.591 133.612 153.913 137.34C155.571 134.397 158.544 134.506 158.906 136.749C159.521 140.595 161.263 146.312 161.516 148.57C162.35 156.044 167.253 155.886 169.02 163.196C171.244 172.392 175.323 177.166 180.504 181.285C182.579 182.933 184.117 185.132 186.058 186.933C186.281 187.139 186.49 187.359 186.683 187.593C188.37 189.628 186.087 192.516 183.656 191.479C182.126 190.827 180.515 190.386 178.866 190.169C171.353 189.176 163.283 193.603 158.415 186.481C154.181 180.278 154.315 173.538 146.707 169.98Z" fill="#3f51b5"/>
<path opacity="0.2" d="M146.707 169.98C144.132 168.779 140.449 166.918 137.715 166.154C134.548 165.27 131.293 163.459 130.593 160.025C130.391 159.111 130.48 158.156 130.85 157.296C131.22 156.435 131.85 155.713 132.653 155.231C135.948 153.389 138.563 157.757 142.022 155.077C142.814 154.437 143.441 153.617 143.85 152.686C144.26 151.754 144.44 150.737 144.375 149.722C144.241 146.744 142.648 144.059 141.472 141.32C140.295 138.58 139.665 135.548 141.01 132.729C141.149 132.393 141.365 132.093 141.64 131.856C142.881 130.908 144.41 133.136 145.402 133.612C147.124 134.441 149 131.339 150.886 131.627C152.772 131.915 153.591 133.612 153.913 137.34C155.571 134.397 158.544 134.506 158.906 136.749C159.521 140.595 161.263 146.312 161.516 148.57C162.35 156.044 167.253 155.886 169.02 163.196C171.244 172.392 175.323 177.166 180.504 181.285C182.579 182.933 184.117 185.132 186.058 186.933C186.281 187.139 186.49 187.359 186.683 187.593C188.37 189.628 186.087 192.516 183.656 191.479C182.126 190.827 180.515 190.386 178.866 190.169C171.353 189.176 163.283 193.603 158.415 186.481C154.181 180.278 154.315 173.538 146.707 169.98Z" fill="white"/>
</g>
<path d="M13.8218 195.538C13.8218 195.538 21.7623 212.005 42.765 205.464L55.8073 177.503C55.8073 177.503 66.6511 169.791 71.604 167.131C76.5569 164.471 82.3187 161.696 83.2418 160.252C84.1649 158.808 88.0012 148.57 88.3585 146.034C88.7158 143.498 89.1277 141.786 89.5496 139.865C89.9714 137.944 89.9069 135.056 87.495 136.649C85.083 138.242 83.3609 139.587 82.5322 143.627C81.7034 147.667 77.2864 149.815 77.2864 149.815C77.2864 149.815 78.7753 137.805 81.2914 134.877C83.8076 131.949 89.9714 125.448 89.9714 125.448C89.9714 125.448 93.4454 128.297 95.8524 126.902C98.2594 125.508 91.0881 117.656 88.6761 118.465C87.8121 118.499 86.9756 118.778 86.2642 119.269L81.9465 115.924C81.9465 115.924 79.4353 113.304 78.1103 113.989C76.7852 114.674 74.6809 117.701 74.6809 117.701C74.6809 117.701 71.8372 114.068 69.46 114.277C67.0829 114.485 63.723 117.785 62.6064 119.443C61.4897 121.101 58.5319 126.153 57.8073 127.145C57.8073 127.145 58.914 120.034 58.8892 118.465C58.8644 116.897 59.2466 111.408 57.6237 111.413C56.0009 111.418 55.1423 116.376 54.2936 120.123C53.445 123.87 52.9835 125.746 51.8668 127.984C50.7502 130.222 46.7452 144.689 46.7452 144.689C46.7452 144.689 41.9114 158.754 40.6558 161.314C39.4002 163.875 36.8692 168.089 35.3208 169.974C33.7723 171.86 13.8218 195.538 13.8218 195.538Z" fill="white"/>
<path d="M86.2641 119.241C86.2641 119.241 82.8546 116.541 79.7777 114.278C76.7007 112.015 71.9364 123.31 68.0654 126.486C64.1944 129.663 63.0033 130.357 62.0107 132.74" stroke="#4D4D4D" stroke-width="1.05102" stroke-linecap="round" stroke-linejoin="round"/>
<path d="M71.5494 120.377C71.0215 122.022 70.309 123.602 69.4253 125.087" stroke="#4D4D4D" stroke-width="1.05102" stroke-linecap="round" stroke-linejoin="round"/>
<path d="M79.1572 125.011C79.6046 123.304 79.7573 121.534 79.6088 119.775" stroke="#4D4D4D" stroke-width="1.05102" stroke-linecap="round" stroke-linejoin="round"/>
<path d="M57.6235 127.369C57.6235 127.369 60.4673 111.558 57.6235 111.384C54.7798 111.21 54.7798 121.687 52.6855 125.965C50.5912 130.243 46.3133 147.528 43.3405 154.948C40.3678 162.367 38.8045 165.335 36.6209 168.303C34.4372 171.27 13.2261 196.238 13.2261 196.238" stroke="#4D4D4D" stroke-width="1.05102" stroke-linecap="round" stroke-linejoin="round"/>
<path d="M74.6802 117.672C74.6802 117.672 71.2063 113.831 68.7248 114.262C66.2434 114.694 63.1466 117.95 60.159 123.339C57.1714 128.729 54.5709 131.136 52.3822 132.714C50.1936 134.292 50.5907 137.285 49.6924 138.58" stroke="#4D4D4D" stroke-width="1.05102" stroke-linecap="round" stroke-linejoin="round"/>
<path d="M60.5025 135.39C60.2632 136.195 60.1445 137.031 60.1501 137.871" stroke="#4D4D4D" stroke-width="1.05102" stroke-linecap="round" stroke-linejoin="round"/>
<path d="M42.3374 206.363C42.3374 206.363 54.3524 180.392 55.8065 177.484C55.8065 177.484 62.4815 172.263 66.8488 169.717C71.2161 167.171 81.4098 162.194 83.2262 160.253C85.0425 158.313 87.3503 149.211 88.0798 147.027C88.8093 144.843 88.4421 142.779 89.5339 139.866C90.6257 136.953 89.5339 135.588 87.3503 136.575C85.1666 137.563 82.983 141.563 82.4966 143.628C82.0103 145.692 77.2856 149.816 77.2856 149.816C77.2856 149.816 78.2782 140.814 81.2907 134.878C81.2907 134.878 88.0947 126.883 89.9706 125.449C89.9706 125.449 93.7871 127.995 95.8516 126.903C97.9161 125.811 95.1221 123.136 93.4248 121.196C91.7275 119.255 88.6902 117.315 86.2634 119.26C83.8366 121.206 75.4643 128.511 71.7025 130.799C67.9406 133.087 67.9406 133.454 67.2359 135.518" stroke="#4D4D4D" stroke-width="1.05102" stroke-linecap="round" stroke-linejoin="round"/>
<g opacity="0.5">
<path d="M66.7004 168.079C70.0303 166.469 73.2573 164.654 76.363 162.645C79.3804 160.759 83.569 157.355 81.3258 153.811C79.7874 150.923 73.7625 156.188 71.2215 153.489C70.7106 152.927 70.3955 152.215 70.3232 151.459C69.9659 148.134 73.1421 145.047 73.5143 141.722C73.7774 139.429 73.5739 134.054 69.9213 132.933C67.6781 132.243 66.5664 135.389 66.5664 138.709C65.3257 136.124 64.4324 133.454 62.1892 133.836C60.1494 133.95 59.142 135.627 59.2115 139.106C56.5613 138.61 56.5762 136.387 56.2338 134.243C55.9112 132.302 53.2561 132.178 51.8615 132.977C50.467 133.776 48.859 139.781 48.4669 141.265C44.1642 157.494 40.0301 166.685 30.5561 177.648C28.7695 179.722 27.1615 181.295 25.4543 183.231C25.2007 183.529 25.0459 183.899 25.0113 184.289C24.9767 184.679 25.064 185.07 25.2612 185.408C25.4584 185.746 25.7557 186.015 26.1121 186.177C26.4684 186.339 26.8664 186.386 27.2509 186.313C33.8117 185.057 40.8639 179.727 46.7349 183.151C47.5111 183.621 48.3795 183.917 49.2809 184.02C53.8764 184.472 52.9285 179.007 55.0774 176.462C57.9311 173.117 62.74 169.896 66.7004 168.079Z" fill="#3f51b5"/>
<path opacity="0.2" d="M66.7004 168.079C70.0303 166.469 73.2573 164.654 76.363 162.645C79.3804 160.759 83.569 157.355 81.3258 153.811C79.7874 150.923 73.7625 156.188 71.2215 153.489C70.7106 152.927 70.3955 152.215 70.3232 151.459C69.9659 148.134 73.1421 145.047 73.5143 141.722C73.7774 139.429 73.5739 134.054 69.9213 132.933C67.6781 132.243 66.5664 135.389 66.5664 138.709C65.3257 136.124 64.4324 133.454 62.1892 133.836C60.1494 133.95 59.142 135.627 59.2115 139.106C56.5613 138.61 56.5762 136.387 56.2338 134.243C55.9112 132.302 53.2561 132.178 51.8615 132.977C50.467 133.776 48.859 139.781 48.4669 141.265C44.1642 157.494 40.0301 166.685 30.5561 177.648C28.7695 179.722 27.1615 181.295 25.4543 183.231C25.2007 183.529 25.0459 183.899 25.0113 184.289C24.9767 184.679 25.064 185.07 25.2612 185.408C25.4584 185.746 25.7557 186.015 26.1121 186.177C26.4684 186.339 26.8664 186.386 27.2509 186.313C33.8117 185.057 40.8639 179.727 46.7349 183.151C47.5111 183.621 48.3795 183.917 49.2809 184.02C53.8764 184.472 52.9285 179.007 55.0774 176.462C57.9311 173.117 62.74 169.896 66.7004 168.079Z" fill="white"/>
</g>
<path d="M158.612 136.044C159.066 136.955 159.26 137.973 159.173 138.987" stroke="#4D4D4D" stroke-width="1.05102" stroke-linecap="round" stroke-linejoin="round"/>
<path d="M136.567 120.521L134.051 121.176" stroke="#4D4D4D" stroke-width="1.05102" stroke-linecap="round" stroke-linejoin="round"/>
<path d="M152.786 136.575C153.21 137.414 153.325 138.375 153.114 139.29" stroke="#4D4D4D" stroke-width="1.05102" stroke-linecap="round" stroke-linejoin="round"/>
</svg>
