<svg width="12" height="12" viewBox="0 0 12 12" fill="none" xmlns="http://www.w3.org/2000/svg">
<path d="M6.52172 9.19075C6.60371 9.27279 6.64976 9.38403 6.64976 9.50001C6.64976 9.616 6.60371 9.72723 6.52172 9.80927L5.97813 10.3561C5.40326 10.9306 4.62372 11.2533 3.81099 11.253C2.99826 11.2527 2.21892 10.9296 1.64442 10.3548C1.06991 9.77991 0.747302 9.00037 0.747559 8.18764C0.747815 7.37491 1.07092 6.59557 1.64578 6.02107L2.96485 4.702C3.51702 4.14939 4.2595 3.82868 5.04036 3.8055C5.82122 3.78232 6.58141 4.05843 7.16539 4.57732C7.20848 4.61552 7.24363 4.66184 7.26881 4.71363C7.294 4.76542 7.30874 4.82166 7.3122 4.87915C7.31565 4.93663 7.30775 4.99424 7.28894 5.04867C7.27013 5.1031 7.24079 5.15329 7.20258 5.19638C7.16437 5.23947 7.11805 5.27461 7.06627 5.2998C7.01448 5.32499 6.95824 5.33973 6.90075 5.34319C6.84327 5.34664 6.78566 5.33874 6.73123 5.31993C6.6768 5.30112 6.62661 5.27177 6.58352 5.23357C6.16642 4.86317 5.62359 4.66611 5.06602 4.68268C4.50845 4.69925 3.97827 4.9282 3.58391 5.32271L2.26485 6.64013C1.85453 7.05045 1.62401 7.60696 1.62401 8.18724C1.62401 8.76752 1.85453 9.32403 2.26485 9.73435C2.67516 10.1447 3.23168 10.3752 3.81196 10.3752C4.39223 10.3752 4.94875 10.1447 5.35906 9.73435L5.90266 9.19075C5.94329 9.15008 5.99154 9.11781 6.04465 9.09579C6.09776 9.07377 6.1547 9.06244 6.21219 9.06244C6.26968 9.06244 6.32661 9.07377 6.37973 9.09579C6.43284 9.11781 6.48109 9.15008 6.52172 9.19075ZM10.3542 1.64388C9.77927 1.07022 9.00024 0.748047 8.18805 0.748047C7.37586 0.748047 6.59683 1.07022 6.02188 1.64388L5.47828 2.18802C5.39626 2.27011 5.35021 2.38143 5.35026 2.49747C5.35032 2.61352 5.39646 2.72479 5.47856 2.80681C5.56065 2.88883 5.67196 2.93488 5.78801 2.93483C5.90405 2.93478 6.01533 2.88863 6.09735 2.80654L6.64094 2.26294C7.05126 1.85262 7.60777 1.62211 8.18805 1.62211C8.76833 1.62211 9.32484 1.85262 9.73516 2.26294C10.1455 2.67326 10.376 3.22977 10.376 3.81005C10.376 4.39033 10.1455 4.94684 9.73516 5.35716L8.4161 6.67732C8.02152 7.0716 7.49123 7.30025 6.93366 7.31651C6.37609 7.33278 5.83337 7.13543 5.41649 6.76482C5.3734 6.72661 5.3232 6.69727 5.26877 6.67846C5.21434 6.65965 5.15674 6.65175 5.09925 6.6552C4.98316 6.66217 4.87459 6.71498 4.79742 6.802C4.75922 6.84509 4.72987 6.89529 4.71106 6.94972C4.69226 7.00415 4.68435 7.06175 4.68781 7.11924C4.69478 7.23533 4.74759 7.34391 4.83461 7.42107C5.41845 7.9401 6.17857 8.2164 6.95943 8.19342C7.74028 8.17044 8.48284 7.84993 9.03516 7.29747L10.3542 5.97841C10.9282 5.40342 11.2506 4.62415 11.2506 3.81169C11.2506 2.99923 10.9282 2.21997 10.3542 1.64497V1.64388Z" fill="#3f51b5"/>
</svg>
