<svg width="14" height="14" viewBox="0 0 14 14" fill="none" xmlns="http://www.w3.org/2000/svg">
<g id="Frame">
<path id="Vector" d="M1.75 3.5C1.75 3.38397 1.79609 3.27269 1.87814 3.19064C1.96019 3.10859 2.07147 3.0625 2.1875 3.0625H11.8125C11.9285 3.0625 12.0398 3.10859 12.1219 3.19064C12.2039 3.27269 12.25 3.38397 12.25 3.5C12.25 3.61603 12.2039 3.72731 12.1219 3.80936C12.0398 3.89141 11.9285 3.9375 11.8125 3.9375H2.1875C2.07147 3.9375 1.96019 3.89141 1.87814 3.80936C1.79609 3.72731 1.75 3.61603 1.75 3.5ZM2.1875 7.4375H11.8125C11.9285 7.4375 12.0398 7.39141 12.1219 7.30936C12.2039 7.22731 12.25 7.11603 12.25 7C12.25 6.88397 12.2039 6.77269 12.1219 6.69064C12.0398 6.60859 11.9285 6.5625 11.8125 6.5625H2.1875C2.07147 6.5625 1.96019 6.60859 1.87814 6.69064C1.79609 6.77269 1.75 6.88397 1.75 7C1.75 7.11603 1.79609 7.22731 1.87814 7.30936C1.96019 7.39141 2.07147 7.4375 2.1875 7.4375ZM7.875 10.0625H2.1875C2.07147 10.0625 1.96019 10.1086 1.87814 10.1906C1.79609 10.2727 1.75 10.384 1.75 10.5C1.75 10.616 1.79609 10.7273 1.87814 10.8094C1.96019 10.8914 2.07147 10.9375 2.1875 10.9375H7.875C7.99103 10.9375 8.10231 10.8914 8.18436 10.8094C8.26641 10.7273 8.3125 10.616 8.3125 10.5C8.3125 10.384 8.26641 10.2727 8.18436 10.1906C8.10231 10.1086 7.99103 10.0625 7.875 10.0625ZM12.6875 10.0625H11.8125V9.1875C11.8125 9.07147 11.7664 8.96019 11.6844 8.87814C11.6023 8.79609 11.491 8.75 11.375 8.75C11.259 8.75 11.1477 8.79609 11.0656 8.87814C10.9836 8.96019 10.9375 9.07147 10.9375 9.1875V10.0625H10.0625C9.94647 10.0625 9.83519 10.1086 9.75314 10.1906C9.67109 10.2727 9.625 10.384 9.625 10.5C9.625 10.616 9.67109 10.7273 9.75314 10.8094C9.83519 10.8914 9.94647 10.9375 10.0625 10.9375H10.9375V11.8125C10.9375 11.9285 10.9836 12.0398 11.0656 12.1219C11.1477 12.2039 11.259 12.25 11.375 12.25C11.491 12.25 11.6023 12.2039 11.6844 12.1219C11.7664 12.0398 11.8125 11.9285 11.8125 11.8125V10.9375H12.6875C12.8035 10.9375 12.9148 10.8914 12.9969 10.8094C13.0789 10.7273 13.125 10.616 13.125 10.5C13.125 10.384 13.0789 10.2727 12.9969 10.1906C12.9148 10.1086 12.8035 10.0625 12.6875 10.0625Z" fill="#3f51b5"/>
</g>
</svg>
