<svg width="26" height="24" viewBox="0 0 26 24" fill="none" xmlns="http://www.w3.org/2000/svg">
<ellipse cx="12.9189" cy="12" rx="12.3818" ry="12" fill="#7367F0" fill-opacity="0.2"/>
<path d="M18.0472 12.0003C18.0472 12.1163 18.0003 12.2276 17.9169 12.3097C17.8336 12.3917 17.7205 12.4378 17.6026 12.4378H11.3779C11.2599 12.4378 11.1469 12.3917 11.0635 12.3097C10.9801 12.2276 10.9333 12.1163 10.9333 12.0003C10.9333 11.8843 10.9801 11.773 11.0635 11.691C11.1469 11.6089 11.2599 11.5628 11.3779 11.5628H17.6026C17.7205 11.5628 17.8336 11.6089 17.9169 11.691C18.0003 11.773 18.0472 11.8843 18.0472 12.0003ZM11.3779 8.93781H17.6026C17.7205 8.93781 17.8336 8.89172 17.9169 8.80967C18.0003 8.72763 18.0472 8.61635 18.0472 8.50031C18.0472 8.38428 18.0003 8.273 17.9169 8.19095C17.8336 8.10891 17.7205 8.06281 17.6026 8.06281H11.3779C11.2599 8.06281 11.1469 8.10891 11.0635 8.19095C10.9801 8.273 10.9333 8.38428 10.9333 8.50031C10.9333 8.61635 10.9801 8.72763 11.0635 8.80967C11.1469 8.89172 11.2599 8.93781 11.3779 8.93781ZM17.6026 15.0628H11.3779C11.2599 15.0628 11.1469 15.1089 11.0635 15.191C10.9801 15.273 10.9333 15.3843 10.9333 15.5003C10.9333 15.6163 10.9801 15.7276 11.0635 15.8097C11.1469 15.8917 11.2599 15.9378 11.3779 15.9378H17.6026C17.7205 15.9378 17.8336 15.8917 17.9169 15.8097C18.0003 15.7276 18.0472 15.6163 18.0472 15.5003C18.0472 15.3843 18.0003 15.273 17.9169 15.191C17.8336 15.1089 17.7205 15.0628 17.6026 15.0628ZM8.01988 8.01688L8.26553 7.89547V10.6878C8.26553 10.8038 8.31237 10.9151 8.39576 10.9972C8.47914 11.0792 8.59223 11.1253 8.71015 11.1253C8.82807 11.1253 8.94116 11.0792 9.02454 10.9972C9.10793 10.9151 9.15477 10.8038 9.15477 10.6878V7.18781C9.15482 7.1132 9.13549 7.03981 9.09859 6.97463C9.06169 6.90944 9.00847 6.85462 8.94398 6.81539C8.87948 6.77615 8.80586 6.75379 8.73011 6.75044C8.65436 6.74709 8.57899 6.76286 8.51118 6.79625L7.62194 7.23375C7.5164 7.28568 7.43615 7.37673 7.39884 7.48688C7.38036 7.54142 7.37298 7.599 7.37712 7.65635C7.38127 7.71369 7.39685 7.76967 7.42298 7.82109C7.4491 7.87252 7.48527 7.91837 7.52941 7.95604C7.57355 7.9937 7.62479 8.02245 7.68022 8.04063C7.79216 8.07734 7.91434 8.0688 8.01988 8.01688ZM10.0312 13.5709C10.0066 13.3977 9.9467 13.2311 9.85501 13.0812C9.76332 12.9313 9.64178 12.8012 9.49768 12.6987C9.20907 12.4925 8.8506 12.4041 8.49727 12.452C8.14393 12.4999 7.82311 12.6804 7.60193 12.9557C7.5174 13.0625 7.45045 13.1817 7.40352 13.309C7.37902 13.3638 7.3662 13.4229 7.36585 13.4827C7.3655 13.5426 7.37764 13.6019 7.4015 13.6569C7.42537 13.712 7.46046 13.7616 7.5046 13.8028C7.54874 13.8439 7.601 13.8758 7.65814 13.8963C7.71528 13.9168 7.77608 13.9255 7.8368 13.922C7.89751 13.9184 7.95684 13.9027 8.01111 13.8757C8.06539 13.8487 8.11346 13.811 8.15234 13.765C8.19123 13.7189 8.2201 13.6656 8.23719 13.6081C8.25275 13.5662 8.27487 13.5269 8.30277 13.4916C8.3812 13.3955 8.49429 13.3328 8.61851 13.3166C8.74274 13.3004 8.86852 13.3319 8.9697 13.4047C9.01837 13.4386 9.05953 13.4818 9.09067 13.5318C9.12182 13.5819 9.1423 13.6376 9.15088 13.6956C9.15872 13.7514 9.15504 13.8081 9.14004 13.8624C9.12505 13.9168 9.09906 13.9675 9.06362 14.0117C9.062 14.0136 9.06052 14.0156 9.05918 14.0177L7.46466 16.1134C7.41525 16.1784 7.38521 16.2557 7.3779 16.3366C7.37059 16.4175 7.3863 16.4987 7.42328 16.5713C7.46025 16.6439 7.51703 16.705 7.58726 16.7476C7.65748 16.7903 7.73839 16.8128 7.82091 16.8128H9.59939C9.71731 16.8128 9.8304 16.7667 9.91378 16.6847C9.99717 16.6026 10.044 16.4913 10.044 16.3753C10.044 16.2593 9.99717 16.148 9.91378 16.066C9.8304 15.9839 9.71731 15.9378 9.59939 15.9378H8.71015L9.77057 14.5416C9.87808 14.4054 9.95657 14.2492 10.0014 14.0824C10.0461 13.9156 10.0563 13.7417 10.0312 13.5709Z" fill="#7367F0"/>
</svg>
