<svg width="12" height="11" viewBox="0 0 12 11" fill="none" xmlns="http://www.w3.org/2000/svg">
<path d="M11.25 6.00031C11.25 6.11635 11.2039 6.22763 11.1219 6.30967C11.0398 6.39172 10.9286 6.43781 10.8125 6.43781H4.68752C4.57149 6.43781 4.46021 6.39172 4.37817 6.30967C4.29612 6.22763 4.25002 6.11635 4.25002 6.00031C4.25002 5.88428 4.29612 5.773 4.37817 5.69095C4.46021 5.60891 4.57149 5.56281 4.68752 5.56281H10.8125C10.9286 5.56281 11.0398 5.60891 11.1219 5.69095C11.2039 5.773 11.25 5.88428 11.25 6.00031ZM4.68752 2.93781H10.8125C10.9286 2.93781 11.0398 2.89172 11.1219 2.80967C11.2039 2.72763 11.25 2.61635 11.25 2.50031C11.25 2.38428 11.2039 2.273 11.1219 2.19095C11.0398 2.10891 10.9286 2.06281 10.8125 2.06281H4.68752C4.57149 2.06281 4.46021 2.10891 4.37817 2.19095C4.29612 2.273 4.25002 2.38428 4.25002 2.50031C4.25002 2.61635 4.29612 2.72763 4.37817 2.80967C4.46021 2.89172 4.57149 2.93781 4.68752 2.93781ZM10.8125 9.06281H4.68752C4.57149 9.06281 4.46021 9.10891 4.37817 9.19095C4.29612 9.273 4.25002 9.38428 4.25002 9.50031C4.25002 9.61635 4.29612 9.72763 4.37817 9.80967C4.46021 9.89172 4.57149 9.93781 4.68752 9.93781H10.8125C10.9286 9.93781 11.0398 9.89172 11.1219 9.80967C11.2039 9.72763 11.25 9.61635 11.25 9.50031C11.25 9.38428 11.2039 9.273 11.1219 9.19095C11.0398 9.10891 10.9286 9.06281 10.8125 9.06281ZM1.38331 2.01688L1.62502 1.89547V4.68781C1.62502 4.80385 1.67112 4.91513 1.75317 4.99717C1.83521 5.07922 1.94649 5.12531 2.06252 5.12531C2.17856 5.12531 2.28984 5.07922 2.37188 4.99717C2.45393 4.91513 2.50002 4.80385 2.50002 4.68781V1.18781C2.50008 1.1132 2.48105 1.03981 2.44474 0.974628C2.40844 0.909442 2.35607 0.854625 2.29261 0.815386C2.22914 0.776147 2.1567 0.75379 2.08216 0.750441C2.00762 0.747092 1.93347 0.762861 1.86674 0.796251L0.991743 1.23375C0.887894 1.28568 0.808926 1.37673 0.77221 1.48688C0.75403 1.54142 0.74677 1.599 0.750845 1.65635C0.754921 1.71369 0.770251 1.76967 0.795962 1.82109C0.821672 1.87252 0.857259 1.91837 0.90069 1.95604C0.944121 1.9937 0.994546 2.02245 1.04909 2.04063C1.15923 2.07734 1.27946 2.0688 1.38331 2.01688ZM3.36245 7.57094C3.33825 7.39766 3.27927 7.23107 3.18905 7.08117C3.09883 6.93128 2.97923 6.80117 2.83745 6.69867C2.55346 6.49246 2.20072 6.40406 1.85305 6.45196C1.50537 6.49987 1.18969 6.68037 0.972056 6.9557C0.888875 7.06251 0.822993 7.18173 0.776821 7.30898C0.752711 7.36376 0.740095 7.4229 0.739753 7.48274C0.739412 7.54259 0.751351 7.60187 0.774835 7.65691C0.798318 7.71196 0.832845 7.7616 0.87628 7.80277C0.919715 7.84394 0.971135 7.87576 1.02736 7.89627C1.08358 7.91677 1.14342 7.92552 1.20316 7.92197C1.2629 7.91843 1.32128 7.90267 1.37468 7.87566C1.42809 7.84865 1.47538 7.81097 1.51365 7.76496C1.55191 7.71894 1.58032 7.66556 1.59713 7.60813C1.61245 7.56617 1.63422 7.52687 1.66166 7.49164C1.73884 7.39548 1.85012 7.33278 1.97236 7.31658C2.09459 7.30039 2.21836 7.33194 2.31791 7.40469C2.3658 7.43856 2.40631 7.48182 2.43695 7.53184C2.4676 7.58185 2.48776 7.63758 2.4962 7.69563C2.50391 7.75138 2.50029 7.80812 2.48553 7.86244C2.47078 7.91676 2.4452 7.96753 2.41034 8.01172C2.40874 8.01362 2.40728 8.01563 2.40596 8.01774L0.836977 10.1134C0.788357 10.1784 0.758797 10.2557 0.751606 10.3366C0.744415 10.4175 0.759876 10.4987 0.796259 10.5713C0.832642 10.6439 0.888511 10.705 0.957613 10.7476C1.02671 10.7903 1.10632 10.8128 1.18752 10.8128H2.93752C3.05356 10.8128 3.16484 10.7667 3.24688 10.6847C3.32893 10.6026 3.37502 10.4913 3.37502 10.3753C3.37502 10.2593 3.32893 10.148 3.24688 10.066C3.16484 9.98391 3.05356 9.93781 2.93752 9.93781H2.06252L3.10596 8.54164C3.21175 8.40538 3.28899 8.24919 3.33306 8.08241C3.37713 7.91563 3.38712 7.74167 3.36245 7.57094Z" fill="#3f51b5"/>
</svg>
