<svg width="18" height="15" viewBox="0 0 18 15" fill="none" xmlns="http://www.w3.org/2000/svg">
<path d="M16.875 13.6248H15.75V7.12439C15.75 6.96869 15.7177 6.81468 15.6552 6.67211C15.5926 6.52953 15.5011 6.4015 15.3865 6.29611L9.76148 0.988921C9.75873 0.986522 9.75615 0.983938 9.75375 0.981187C9.54665 0.792843 9.27677 0.688477 8.99684 0.688477C8.7169 0.688477 8.44702 0.792843 8.23992 0.981187L8.23219 0.988921L2.61352 6.29611C2.4989 6.4015 2.40742 6.52953 2.34485 6.67211C2.28227 6.81468 2.24998 6.96869 2.25 7.12439V13.6248H1.125C0.975816 13.6248 0.832742 13.684 0.727252 13.7895C0.621763 13.895 0.5625 14.0381 0.5625 14.1873C0.5625 14.3365 0.621763 14.4795 0.727252 14.585C0.832742 14.6905 0.975816 14.7498 1.125 14.7498H16.875C17.0242 14.7498 17.1673 14.6905 17.2727 14.585C17.3782 14.4795 17.4375 14.3365 17.4375 14.1873C17.4375 14.0381 17.3782 13.895 17.2727 13.7895C17.1673 13.684 17.0242 13.6248 16.875 13.6248ZM3.375 7.12439L3.38273 7.11736L9 1.81228L14.618 7.11595L14.6257 7.12298V13.6248H11.25V10.2498C11.25 9.95141 11.1315 9.66526 10.9205 9.45429C10.7095 9.24331 10.4234 9.12478 10.125 9.12478H7.875C7.57663 9.12478 7.29048 9.24331 7.0795 9.45429C6.86853 9.66526 6.75 9.95141 6.75 10.2498V13.6248H3.375V7.12439ZM10.125 13.6248H7.875V10.2498H10.125V13.6248Z" fill="#4D4D4D"/>
</svg>
