<svg width="16" height="16" viewBox="0 0 16 16" fill="none" xmlns="http://www.w3.org/2000/svg">
<path d="M15.0488 3.43461L14.7212 3.24547C14.7596 3.04196 14.7596 2.83304 14.7212 2.62953L15.0488 2.44039C15.178 2.3658 15.2724 2.24292 15.311 2.0988C15.3496 1.95468 15.3294 1.80111 15.2548 1.67188C15.1802 1.54264 15.0574 1.44834 14.9132 1.4097C14.7691 1.37107 14.6155 1.39127 14.4863 1.46586L14.158 1.6557C14.0008 1.52088 13.8201 1.41624 13.625 1.34703V0.96875C13.625 0.819566 13.5657 0.676492 13.4602 0.571002C13.3547 0.465513 13.2117 0.40625 13.0625 0.40625C12.9133 0.40625 12.7702 0.465513 12.6647 0.571002C12.5593 0.676492 12.5 0.819566 12.5 0.96875V1.34703C12.3048 1.41624 12.1242 1.52088 11.967 1.6557L11.6387 1.46586C11.5747 1.42893 11.504 1.40496 11.4308 1.39532C11.3575 1.38569 11.2831 1.39057 11.2117 1.4097C11.1404 1.42883 11.0735 1.46183 11.0149 1.50682C10.9563 1.5518 10.9071 1.60789 10.8701 1.67188C10.8332 1.73586 10.8092 1.8065 10.7996 1.87975C10.79 1.953 10.7949 2.02744 10.814 2.0988C10.8331 2.17016 10.8661 2.23706 10.9111 2.29567C10.9561 2.35428 11.0122 2.40346 11.0762 2.44039L11.4038 2.62953C11.3654 2.83304 11.3654 3.04196 11.4038 3.24547L11.0762 3.43461C10.9689 3.49649 10.885 3.59207 10.8376 3.70649C10.7901 3.82092 10.7818 3.9478 10.8139 4.06744C10.8459 4.18709 10.9166 4.29281 11.0148 4.3682C11.1131 4.44358 11.2335 4.48442 11.3574 4.48438C11.4562 4.48468 11.5532 4.45872 11.6387 4.40914L11.967 4.2193C12.1242 4.35412 12.3048 4.45876 12.5 4.52797V4.90625C12.5 5.05543 12.5593 5.19851 12.6647 5.304C12.7702 5.40949 12.9133 5.46875 13.0625 5.46875C13.2117 5.46875 13.3547 5.40949 13.4602 5.304C13.5657 5.19851 13.625 5.05543 13.625 4.90625V4.52797C13.8201 4.45876 14.0008 4.35412 14.158 4.2193L14.4863 4.40914C14.5717 4.45872 14.6688 4.48468 14.7676 4.48438C14.8914 4.48442 15.0119 4.44358 15.1101 4.3682C15.2084 4.29281 15.2791 4.18709 15.3111 4.06744C15.3432 3.9478 15.3348 3.82092 15.2874 3.70649C15.24 3.59207 15.1561 3.49649 15.0488 3.43461ZM12.5 2.9375C12.5 2.82625 12.533 2.71749 12.5948 2.62499C12.6566 2.53249 12.7444 2.46039 12.8472 2.41782C12.95 2.37524 13.0631 2.3641 13.1722 2.38581C13.2813 2.40751 13.3816 2.46109 13.4602 2.53975C13.5389 2.61842 13.5925 2.71865 13.6142 2.82776C13.6359 2.93688 13.6247 3.04998 13.5822 3.15276C13.5396 3.25554 13.4675 3.34339 13.375 3.4052C13.2825 3.46701 13.1737 3.5 13.0625 3.5C12.9133 3.5 12.7702 3.44074 12.6647 3.33525C12.5593 3.22976 12.5 3.08668 12.5 2.9375ZM14.5637 6.32023C14.4165 6.34486 14.2852 6.42691 14.1986 6.54836C14.1119 6.6698 14.0771 6.82068 14.1017 6.96781C14.1588 7.30891 14.1875 7.65416 14.1875 8C14.1888 9.51467 13.6321 10.9767 12.6237 12.107C11.9964 11.1979 11.1143 10.4946 10.0883 10.0855C10.6394 9.65139 11.0415 9.05636 11.2388 8.38313C11.4361 7.7099 11.4186 6.99192 11.1889 6.32906C10.9592 5.66619 10.5287 5.09137 9.95716 4.68455C9.38563 4.27772 8.70153 4.05911 7.99999 4.05911C7.29845 4.05911 6.61435 4.27772 6.04281 4.68455C5.47128 5.09137 5.04073 5.66619 4.81103 6.32906C4.58133 6.99192 4.5639 7.7099 4.76116 8.38313C4.95843 9.05636 5.36059 9.65139 5.91171 10.0855C4.88572 10.4946 4.00359 11.1979 3.37624 12.107C2.58502 11.2154 2.06819 10.1142 1.88789 8.93589C1.70759 7.75757 1.8715 6.55225 2.3599 5.46486C2.8483 4.37747 3.6404 3.45431 4.64096 2.80637C5.64153 2.15844 6.80795 1.81331 7.99999 1.8125C8.34583 1.81244 8.69108 1.84114 9.03218 1.89828C9.17864 1.92139 9.32831 1.88573 9.44863 1.79906C9.56894 1.71239 9.65017 1.58172 9.67463 1.43547C9.6991 1.28922 9.66483 1.13923 9.57928 1.01812C9.49373 0.897005 9.36382 0.814572 9.2178 0.78875C7.69022 0.531768 6.12049 0.766907 4.73526 1.46022C3.35003 2.15353 2.22098 3.26913 1.51112 4.64595C0.801257 6.02277 0.547323 7.58957 0.785979 9.12012C1.02464 10.6507 1.74353 12.0658 2.83887 13.1611C3.93421 14.2565 5.34932 14.9754 6.87987 15.214C8.41042 15.4527 9.97721 15.1987 11.354 14.4889C12.7309 13.779 13.8465 12.65 14.5398 11.2647C15.2331 9.87949 15.4682 8.30977 15.2112 6.78219C15.1866 6.63506 15.1046 6.50373 14.9831 6.4171C14.8617 6.33047 14.7108 6.29563 14.5637 6.32023ZM5.74999 7.4375C5.74999 6.99249 5.88195 6.55748 6.12918 6.18747C6.37641 5.81746 6.72782 5.52907 7.13895 5.35877C7.55008 5.18847 8.00248 5.14392 8.43894 5.23073C8.8754 5.31755 9.27631 5.53184 9.59098 5.84651C9.90565 6.16118 10.1199 6.56209 10.2068 6.99855C10.2936 7.435 10.249 7.8874 10.0787 8.29854C9.90842 8.70967 9.62003 9.06107 9.25002 9.30831C8.88001 9.55554 8.445 9.6875 7.99999 9.6875C7.40325 9.6875 6.83095 9.45045 6.409 9.02849C5.98704 8.60653 5.74999 8.03424 5.74999 7.4375ZM4.20874 12.8867C4.61566 12.2503 5.17624 11.7266 5.83881 11.3638C6.50137 11.001 7.2446 10.8109 7.99999 10.8109C8.75537 10.8109 9.4986 11.001 10.1612 11.3638C10.8237 11.7266 11.3843 12.2503 11.7912 12.8867C10.7073 13.7298 9.37321 14.1875 7.99999 14.1875C6.62677 14.1875 5.29272 13.7298 4.20874 12.8867Z" fill="#4D4D4D"/>
</svg>
