<svg width="25" height="24" viewBox="0 0 25 24" fill="none" xmlns="http://www.w3.org/2000/svg">
<ellipse cx="12.1835" cy="12" rx="12.1835" ry="12" fill="#F3C11B" fill-opacity="0.15"/>
<g clip-path="url(#clip0_1955_47082)">
<path d="M19.018 12.3097L17.7055 13.6222C17.6649 13.6628 17.6166 13.6951 17.5635 13.7171C17.5104 13.7391 17.4535 13.7505 17.396 13.7505C17.3385 13.7505 17.2816 13.7391 17.2285 13.7171C17.1753 13.6951 17.1271 13.6628 17.0865 13.6222L15.774 12.3097C15.6919 12.2276 15.6458 12.1162 15.6458 12.0001C15.6458 11.884 15.6919 11.7727 15.774 11.6906C15.8561 11.6085 15.9674 11.5624 16.0835 11.5624C16.1996 11.5624 16.3109 11.6085 16.393 11.6906L16.9585 12.2566V12.0001C16.959 10.9811 16.636 9.98822 16.0361 9.1645C15.4362 8.34079 14.5902 7.72877 13.6202 7.41662C12.6502 7.10446 11.6061 7.10828 10.6383 7.42752C9.6706 7.74676 8.82918 8.36495 8.23529 9.19302C8.16756 9.2873 8.06515 9.35081 7.95059 9.36958C7.83603 9.38834 7.71871 9.36084 7.62443 9.2931C7.53016 9.22537 7.46665 9.12296 7.44788 9.0084C7.42911 8.89384 7.45662 8.77652 7.52435 8.68224C8.22626 7.70362 9.2207 6.97306 10.3644 6.59581C11.5081 6.21857 12.742 6.2141 13.8884 6.58306C15.0348 6.95202 16.0345 7.67535 16.7435 8.64887C17.4525 9.62238 17.8341 10.7958 17.8335 12.0001V12.2566L18.399 11.6906C18.4811 11.6085 18.5924 11.5624 18.7085 11.5624C18.8246 11.5624 18.9359 11.6085 19.018 11.6906C19.1001 11.7727 19.1462 11.884 19.1462 12.0001C19.1462 12.1162 19.1001 12.2276 19.018 12.3097ZM16.766 15.3175C16.0639 16.2954 15.0696 17.0252 13.9263 17.4021C12.7829 17.7789 11.5495 17.7832 10.4036 17.4144C9.25761 17.0456 8.25825 16.3227 7.54931 15.3497C6.84038 14.3768 6.45845 13.204 6.4585 12.0001V11.7436L5.89303 12.3097C5.81093 12.3918 5.69959 12.4379 5.5835 12.4379C5.4674 12.4379 5.35606 12.3918 5.27396 12.3097C5.19187 12.2276 5.14575 12.1162 5.14575 12.0001C5.14575 11.884 5.19187 11.7727 5.27396 11.6906L6.58646 10.3781C6.6271 10.3374 6.67535 10.3052 6.72846 10.2831C6.78157 10.2611 6.8385 10.2498 6.896 10.2498C6.95349 10.2498 7.01042 10.2611 7.06353 10.2831C7.11664 10.3052 7.16489 10.3374 7.20553 10.3781L8.51803 11.6906C8.60012 11.7727 8.64624 11.884 8.64624 12.0001C8.64624 12.1162 8.60012 12.2276 8.51803 12.3097C8.43593 12.3918 8.32459 12.4379 8.20849 12.4379C8.0924 12.4379 7.98106 12.3918 7.89896 12.3097L7.3335 11.7436V12.0001C7.33246 13.1782 7.76544 14.3154 8.54975 15.1944C9.03768 14.4874 9.72379 13.9403 10.5218 13.6222C10.0931 13.2845 9.78034 12.8217 9.62691 12.2981C9.47348 11.7745 9.48704 11.2161 9.66569 10.7005C9.84435 10.1849 10.1792 9.73787 10.6237 9.42145C11.0683 9.10503 11.6004 8.935 12.146 8.935C12.6916 8.935 13.2237 9.10503 13.6682 9.42145C14.1128 9.73787 14.4476 10.1849 14.6263 10.7005C14.805 11.2161 14.8185 11.7745 14.6651 12.2981C14.5117 12.8217 14.1989 13.2845 13.7702 13.6222C14.5689 13.9404 15.2555 14.4881 15.7433 15.1961C15.854 15.0718 15.9582 14.9421 16.0556 14.8072C16.1233 14.713 16.2257 14.6495 16.3403 14.6307C16.4549 14.6119 16.5722 14.6394 16.6665 14.7072C16.7607 14.7749 16.8242 14.8773 16.843 14.9919C16.8618 15.1064 16.8343 15.2237 16.7665 15.318L16.766 15.3175ZM12.146 13.3126C12.4921 13.3126 12.8305 13.21 13.1182 13.0177C13.406 12.8254 13.6303 12.5521 13.7628 12.2323C13.8952 11.9126 13.9299 11.5607 13.8624 11.2212C13.7948 10.8818 13.6282 10.5699 13.3834 10.3252C13.1387 10.0805 12.8269 9.91378 12.4874 9.84626C12.1479 9.77873 11.7961 9.81339 11.4763 9.94584C11.1565 10.0783 10.8832 10.3026 10.6909 10.5904C10.4986 10.8782 10.396 11.2165 10.396 11.5626C10.396 12.0268 10.5804 12.4719 10.9086 12.8001C11.2367 13.1283 11.6819 13.3126 12.146 13.3126ZM12.146 16.8126C13.2137 16.8112 14.2508 16.4556 15.0947 15.8015C14.7782 15.3065 14.3422 14.8991 13.8269 14.617C13.3116 14.3348 12.7335 14.1869 12.146 14.1869C11.5585 14.1869 10.9804 14.3348 10.4651 14.617C9.94975 14.8991 9.51374 15.3065 9.19725 15.8015C10.0399 16.4579 11.0778 16.8139 12.146 16.8126Z" fill="#F3C11B"/>
</g>
<defs>
<clipPath id="clip0_1955_47082">
<rect width="14" height="14" fill="white" transform="translate(5.146 5)"/>
</clipPath>
</defs>
</svg>
