<svg width="15" height="16" viewBox="0 0 15 16" fill="none" xmlns="http://www.w3.org/2000/svg">
<path d="M5.54065 6.5C5.54065 6.36739 5.5893 6.24021 5.67589 6.14645C5.76248 6.05268 5.87992 6 6.00238 6H9.69618C9.81864 6 9.93608 6.05268 10.0227 6.14645C10.1093 6.24021 10.1579 6.36739 10.1579 6.5C10.1579 6.63261 10.1093 6.75979 10.0227 6.85355C9.93608 6.94732 9.81864 7 9.69618 7H6.00238C5.87992 7 5.76248 6.94732 5.67589 6.85355C5.5893 6.75979 5.54065 6.63261 5.54065 6.5ZM6.00238 9H9.69618C9.81864 9 9.93608 8.94732 10.0227 8.85355C10.1093 8.75979 10.1579 8.63261 10.1579 8.5C10.1579 8.36739 10.1093 8.24021 10.0227 8.14645C9.93608 8.05268 9.81864 8 9.69618 8H6.00238C5.87992 8 5.76248 8.05268 5.67589 8.14645C5.5893 8.24021 5.54065 8.36739 5.54065 8.5C5.54065 8.63261 5.5893 8.75979 5.67589 8.85355C5.76248 8.94732 5.87992 9 6.00238 9ZM13.39 12C13.39 12.5304 13.1954 13.0391 12.849 13.4142C12.5027 13.7893 12.0329 14 11.5431 14H5.07893C4.5891 14 4.11933 13.7893 3.77297 13.4142C3.42661 13.0391 3.23202 12.5304 3.23202 12V4C3.23202 3.73478 3.13473 3.48043 2.96155 3.29289C2.78837 3.10536 2.55349 3 2.30857 3C2.06366 3 1.82877 3.10536 1.65559 3.29289C1.48241 3.48043 1.38512 3.73478 1.38512 4C1.38512 4.35875 1.66389 4.60125 1.66677 4.60375C1.74319 4.66743 1.79928 4.75542 1.82717 4.85538C1.85506 4.95533 1.85335 5.06223 1.82229 5.16108C1.79122 5.25993 1.73236 5.34577 1.65396 5.40655C1.57555 5.46734 1.48155 5.50001 1.38512 5.5C1.28527 5.50019 1.18814 5.46483 1.10866 5.39937C1.04171 5.34625 0.46167 4.85063 0.46167 4C0.46167 3.46957 0.656254 2.96086 1.00262 2.58579C1.34898 2.21071 1.81874 2 2.30857 2H10.1579C10.6477 2 11.1175 2.21071 11.4639 2.58579C11.8102 2.96086 12.0048 3.46957 12.0048 4V10.5H12.4665C12.5664 10.5 12.6636 10.5351 12.7436 10.6C12.8128 10.6538 13.39 11.1494 13.39 12ZM5.55566 10.8425C5.5872 10.7417 5.64741 10.6542 5.72766 10.5927C5.8079 10.5312 5.90406 10.4987 6.00238 10.5H11.0814V4C11.0814 3.73478 10.9841 3.48043 10.8109 3.29289C10.6377 3.10536 10.4028 3 10.1579 3H3.90672C4.07002 3.30357 4.15587 3.64868 4.15547 4V12C4.15547 12.2652 4.25277 12.5196 4.42595 12.7071C4.59913 12.8946 4.83401 13 5.07893 13C5.32384 13 5.55872 12.8946 5.7319 12.7071C5.90508 12.5196 6.00238 12.2652 6.00238 12C6.00238 11.6412 5.72361 11.3987 5.72072 11.3962C5.64204 11.3353 5.58352 11.2486 5.5538 11.1489C5.52408 11.0492 5.52473 10.9418 5.55566 10.8425ZM12.4665 12C12.4608 11.8147 12.3947 11.6377 12.2801 11.5H6.85484C6.90124 11.6619 6.92479 11.8305 6.92467 12C6.92512 12.3512 6.83969 12.6962 6.67707 13H11.5431C11.788 13 12.0229 12.8946 12.1961 12.7071C12.3692 12.5196 12.4665 12.2652 12.4665 12Z" fill="#4D4D4D"/>
</svg>
