<svg width="16" height="15" viewBox="0 0 16 15" fill="none" xmlns="http://www.w3.org/2000/svg">
<path d="M8.00031 1.25031C6.66529 1.25031 5.36025 1.64619 4.25021 2.38789C3.14018 3.12959 2.27502 4.1838 1.76413 5.4172C1.25323 6.6506 1.11956 8.0078 1.38001 9.31717C1.64046 10.6265 2.28334 11.8293 3.22734 12.7733C4.17135 13.7173 5.37408 14.3602 6.68345 14.6206C7.99283 14.8811 9.35003 14.7474 10.5834 14.2365C11.8168 13.7256 12.871 12.8604 13.6127 11.7504C14.3544 10.6404 14.7503 9.33534 14.7503 8.00031C14.7483 6.21073 14.0365 4.49503 12.771 3.2296C11.5056 1.96418 9.7899 1.25236 8.00031 1.25031ZM8.00031 13.6253C6.88779 13.6253 5.80026 13.2954 4.87523 12.6773C3.9502 12.0592 3.22923 11.1807 2.80349 10.1529C2.37775 9.12507 2.26635 7.99407 2.4834 6.90293C2.70044 5.81179 3.23617 4.80951 4.02284 4.02284C4.80951 3.23617 5.81179 2.70044 6.90293 2.4834C7.99407 2.26635 9.12507 2.37775 10.1529 2.80349C11.1807 3.22923 12.0592 3.9502 12.6773 4.87523C13.2954 5.80026 13.6253 6.88779 13.6253 8.00031C13.6236 9.49164 13.0305 10.9214 11.9759 11.9759C10.9214 13.0305 9.49164 13.6236 8.00031 13.6253ZM3.33578 1.08578L1.08578 3.33578C1.03352 3.38804 0.971475 3.4295 0.903192 3.45778C0.834908 3.48607 0.761722 3.50063 0.687813 3.50063C0.613903 3.50063 0.540717 3.48607 0.472434 3.45778C0.40415 3.4295 0.342106 3.38804 0.289844 3.33578C0.184296 3.23023 0.125 3.08708 0.125 2.93781C0.125 2.78855 0.184296 2.64539 0.289844 2.53984L2.53984 0.289844C2.59211 0.237582 2.65415 0.196126 2.72243 0.167842C2.79072 0.139558 2.8639 0.125 2.93781 0.125C3.01172 0.125 3.08491 0.139558 3.15319 0.167842C3.22148 0.196126 3.28352 0.237582 3.33578 0.289844C3.38804 0.342106 3.4295 0.40415 3.45778 0.472434C3.48607 0.540717 3.50063 0.613903 3.50063 0.687813C3.50063 0.761722 3.48607 0.834908 3.45778 0.903192C3.4295 0.971475 3.38804 1.03352 3.33578 1.08578ZM15.7108 3.33578C15.6585 3.38808 15.5965 3.42957 15.5282 3.45788C15.4599 3.48618 15.3867 3.50076 15.3128 3.50076C15.2389 3.50076 15.1657 3.48618 15.0974 3.45788C15.0291 3.42957 14.9671 3.38808 14.9148 3.33578L12.6648 1.08578C12.5593 0.980234 12.5 0.83708 12.5 0.687813C12.5 0.538546 12.5593 0.395392 12.6648 0.289844C12.7704 0.184296 12.9135 0.125 13.0628 0.125C13.2121 0.125 13.3552 0.184296 13.4608 0.289844L15.7108 2.53984C15.7631 2.59209 15.8046 2.65412 15.8329 2.72241C15.8612 2.7907 15.8758 2.86389 15.8758 2.93781C15.8758 3.01173 15.8612 3.08493 15.8329 3.15322C15.8046 3.2215 15.7631 3.28354 15.7108 3.33578ZM11.9378 7.43781C12.087 7.43781 12.2301 7.49708 12.3356 7.60257C12.4411 7.70805 12.5003 7.85113 12.5003 8.00031C12.5003 8.1495 12.4411 8.29257 12.3356 8.39806C12.2301 8.50355 12.087 8.56281 11.9378 8.56281H8.00031C7.85113 8.56281 7.70805 8.50355 7.60257 8.39806C7.49708 8.29257 7.43781 8.1495 7.43781 8.00031V4.06281C7.43781 3.91363 7.49708 3.77055 7.60257 3.66507C7.70805 3.55958 7.85113 3.50031 8.00031 3.50031C8.1495 3.50031 8.29257 3.55958 8.39806 3.66507C8.50355 3.77055 8.56281 3.91363 8.56281 4.06281V7.43781H11.9378Z" fill="#4D4D4D"/>
</svg>
