<svg xmlns="http://www.w3.org/2000/svg" width="14" height="14" viewBox="0 0 14 14" fill="none">
<path d="M11.9673 5.67497L7.59227 1.54716C7.59013 1.54529 7.58812 1.54328 7.58625 1.54114C7.42517 1.39465 7.21527 1.31348 6.99754 1.31348C6.77981 1.31348 6.56991 1.39465 6.40883 1.54114L6.40281 1.54716L2.03273 5.67497C1.94359 5.75694 1.87244 5.85652 1.82377 5.96741C1.7751 6.0783 1.74998 6.19809 1.75 6.31919V11.375C1.75 11.6071 1.84219 11.8297 2.00628 11.9938C2.17038 12.1579 2.39294 12.25 2.625 12.25H11.375C11.6071 12.25 11.8296 12.1579 11.9937 11.9938C12.1578 11.8297 12.25 11.6071 12.25 11.375V6.31919C12.25 6.19809 12.2249 6.0783 12.1762 5.96741C12.1276 5.85652 12.0564 5.75694 11.9673 5.67497ZM11.375 11.375H2.625V6.31919L2.63102 6.31372L7 2.18755L11.3695 6.31262L11.3755 6.31809L11.375 11.375Z" fill="#3f51b5"/>
</svg>
