<svg xmlns="http://www.w3.org/2000/svg" width="18" height="18" viewBox="0 0 18 18" fill="none">
<path d="M16.875 14.6252H15.75V6.75024C15.75 6.45187 15.6315 6.16573 15.4205 5.95475C15.2095 5.74377 14.9234 5.62524 14.625 5.62524H10.125V2.25024C10.1251 2.04652 10.0699 1.84659 9.96533 1.67178C9.86071 1.49698 9.71059 1.35386 9.53098 1.2577C9.35138 1.16155 9.14904 1.11597 8.94556 1.12583C8.74208 1.13569 8.54509 1.20062 8.37563 1.31368L2.75062 5.06274C2.59632 5.16569 2.46986 5.30521 2.38252 5.46886C2.29517 5.6325 2.24965 5.81521 2.25 6.00071V14.6252H1.125C0.975816 14.6252 0.832742 14.6845 0.727252 14.79C0.621763 14.8955 0.5625 15.0386 0.5625 15.1877C0.5625 15.3369 0.621763 15.48 0.727252 15.5855C0.832742 15.691 0.975816 15.7502 1.125 15.7502H16.875C17.0242 15.7502 17.1673 15.691 17.2727 15.5855C17.3782 15.48 17.4375 15.3369 17.4375 15.1877C17.4375 15.0386 17.3782 14.8955 17.2727 14.79C17.1673 14.6845 17.0242 14.6252 16.875 14.6252ZM14.625 6.75024V14.6252H10.125V6.75024H14.625ZM3.375 6.00071L9 2.25024V14.6252H3.375V6.00071ZM7.875 7.87524V9.00024C7.875 9.14943 7.81574 9.2925 7.71025 9.39799C7.60476 9.50348 7.46168 9.56274 7.3125 9.56274C7.16332 9.56274 7.02024 9.50348 6.91475 9.39799C6.80926 9.2925 6.75 9.14943 6.75 9.00024V7.87524C6.75 7.72606 6.80926 7.58298 6.91475 7.4775C7.02024 7.37201 7.16332 7.31274 7.3125 7.31274C7.46168 7.31274 7.60476 7.37201 7.71025 7.4775C7.81574 7.58298 7.875 7.72606 7.875 7.87524ZM5.625 7.87524V9.00024C5.625 9.14943 5.56574 9.2925 5.46025 9.39799C5.35476 9.50348 5.21168 9.56274 5.0625 9.56274C4.91332 9.56274 4.77024 9.50348 4.66475 9.39799C4.55926 9.2925 4.5 9.14943 4.5 9.00024V7.87524C4.5 7.72606 4.55926 7.58298 4.66475 7.4775C4.77024 7.37201 4.91332 7.31274 5.0625 7.31274C5.21168 7.31274 5.35476 7.37201 5.46025 7.4775C5.56574 7.58298 5.625 7.72606 5.625 7.87524ZM5.625 11.8127V12.9377C5.625 13.0869 5.56574 13.23 5.46025 13.3355C5.35476 13.441 5.21168 13.5002 5.0625 13.5002C4.91332 13.5002 4.77024 13.441 4.66475 13.3355C4.55926 13.23 4.5 13.0869 4.5 12.9377V11.8127C4.5 11.6636 4.55926 11.5205 4.66475 11.415C4.77024 11.3095 4.91332 11.2502 5.0625 11.2502C5.21168 11.2502 5.35476 11.3095 5.46025 11.415C5.56574 11.5205 5.625 11.6636 5.625 11.8127ZM7.875 11.8127V12.9377C7.875 13.0869 7.81574 13.23 7.71025 13.3355C7.60476 13.441 7.46168 13.5002 7.3125 13.5002C7.16332 13.5002 7.02024 13.441 6.91475 13.3355C6.80926 13.23 6.75 13.0869 6.75 12.9377V11.8127C6.75 11.6636 6.80926 11.5205 6.91475 11.415C7.02024 11.3095 7.16332 11.2502 7.3125 11.2502C7.46168 11.2502 7.60476 11.3095 7.71025 11.415C7.81574 11.5205 7.875 11.6636 7.875 11.8127Z" fill="#4D4D4D"/>
</svg>
