<svg width="18" height="19" viewBox="0 0 18 19" fill="none" xmlns="http://www.w3.org/2000/svg">
<path d="M2.625 11.5H1.125C0.926088 11.5 0.735322 11.579 0.59467 11.7197C0.454018 11.8603 0.375 12.0511 0.375 12.25V17.5C0.375 17.6989 0.454018 17.8897 0.59467 18.0303C0.735322 18.171 0.926088 18.25 1.125 18.25C1.32391 18.25 1.51468 18.171 1.65533 18.0303C1.79598 17.8897 1.875 17.6989 1.875 17.5V16.75H2.625C3.32119 16.75 3.98887 16.4734 4.48116 15.9812C4.97344 15.4889 5.25 14.8212 5.25 14.125C5.25 13.4288 4.97344 12.7611 4.48116 12.2688C3.98887 11.7766 3.32119 11.5 2.625 11.5ZM2.625 15.25H1.875V13H2.625C2.92337 13 3.20952 13.1185 3.4205 13.3295C3.63147 13.5405 3.75 13.8266 3.75 14.125C3.75 14.4234 3.63147 14.7095 3.4205 14.9205C3.20952 15.1315 2.92337 15.25 2.625 15.25ZM18 16.8316C18 17.0247 17.9254 17.2104 17.7919 17.35C17.5307 17.6311 17.2149 17.8559 16.8638 18.0107C16.5127 18.1655 16.1337 18.2469 15.75 18.25C14.0953 18.25 12.75 16.7359 12.75 14.875C12.75 13.0141 14.0953 11.5 15.75 11.5C16.3013 11.5019 16.8394 11.6687 17.295 11.9791C17.46 12.091 17.5737 12.2638 17.6113 12.4596C17.6488 12.6553 17.607 12.858 17.4952 13.023C17.3833 13.1879 17.2104 13.3017 17.0147 13.3392C16.8189 13.3768 16.6162 13.335 16.4513 13.2231C16.2455 13.0794 16.001 13.0016 15.75 13C14.9231 13 14.25 13.8438 14.25 14.875C14.25 15.9062 14.9231 16.75 15.75 16.75C16.0208 16.747 16.2835 16.6577 16.5 16.495V16C16.3011 16 16.1103 15.921 15.9697 15.7803C15.829 15.6397 15.75 15.4489 15.75 15.25C15.75 15.0511 15.829 14.8603 15.9697 14.7197C16.1103 14.579 16.3011 14.5 16.5 14.5H17.25C17.4489 14.5 17.6397 14.579 17.7803 14.7197C17.921 14.8603 18 15.0511 18 15.25V16.8316ZM11.625 12.25V17.5C11.625 17.6589 11.5745 17.8138 11.4809 17.9422C11.3872 18.0706 11.2551 18.1659 11.1038 18.2144C11.0298 18.2382 10.9526 18.2502 10.875 18.25C10.7556 18.25 10.638 18.2215 10.5318 18.1669C10.4257 18.1123 10.3341 18.0331 10.2647 17.9359L7.875 14.5938V17.5C7.875 17.6989 7.79598 17.8897 7.65533 18.0303C7.51468 18.171 7.32391 18.25 7.125 18.25C6.92609 18.25 6.73532 18.171 6.59467 18.0303C6.45402 17.8897 6.375 17.6989 6.375 17.5V12.25C6.37499 12.0911 6.42546 11.9363 6.51912 11.8079C6.61278 11.6796 6.74479 11.5842 6.89611 11.5358C7.04744 11.4873 7.21026 11.4881 7.36108 11.5381C7.51191 11.5881 7.64295 11.6848 7.73531 11.8141L10.125 15.1562V12.25C10.125 12.0511 10.204 11.8603 10.3447 11.7197C10.4853 11.579 10.6761 11.5 10.875 11.5C11.0739 11.5 11.2647 11.579 11.4053 11.7197C11.546 11.8603 11.625 12.0511 11.625 12.25ZM1.5 9.25C1.69891 9.25 1.88968 9.17098 2.03033 9.03033C2.17098 8.88968 2.25 8.69891 2.25 8.5V1.75H10.5V6.25C10.5 6.44891 10.579 6.63968 10.7197 6.78033C10.8603 6.92098 11.0511 7 11.25 7H15.75V8.5C15.75 8.69891 15.829 8.88968 15.9697 9.03033C16.1103 9.17098 16.3011 9.25 16.5 9.25C16.6989 9.25 16.8897 9.17098 17.0303 9.03033C17.171 8.88968 17.25 8.69891 17.25 8.5V6.25C17.2501 6.15148 17.2307 6.05391 17.1931 5.96286C17.1555 5.87182 17.1003 5.78908 17.0306 5.71938L11.7806 0.469375C11.7109 0.399749 11.6282 0.344539 11.5371 0.306898C11.4461 0.269257 11.3485 0.249923 11.25 0.25H2.25C1.85218 0.25 1.47064 0.408035 1.18934 0.68934C0.908035 0.970645 0.75 1.35218 0.75 1.75V8.5C0.75 8.69891 0.829018 8.88968 0.96967 9.03033C1.11032 9.17098 1.30109 9.25 1.5 9.25ZM12 2.81031L14.6897 5.5H12V2.81031Z" fill="#DDDDDD"/>
</svg>
