<svg width="12" height="12" viewBox="0 0 12 12" fill="none" xmlns="http://www.w3.org/2000/svg">
<path d="M11.4316 3.01229L8.98758 0.568852C8.90633 0.48758 8.80986 0.42311 8.70369 0.379125C8.59751 0.335139 8.48372 0.3125 8.36879 0.3125C8.25387 0.3125 8.14007 0.335139 8.0339 0.379125C7.92773 0.42311 7.83126 0.48758 7.75 0.568852L1.00649 7.31237C0.924884 7.39332 0.860185 7.4897 0.816154 7.59588C0.772123 7.70206 0.749637 7.81593 0.750004 7.93088V10.3749C0.750004 10.6069 0.842192 10.8295 1.00629 10.9936C1.17038 11.1577 1.39294 11.2499 1.625 11.2499H10.8125C10.9285 11.2499 11.0398 11.2038 11.1219 11.1217C11.2039 11.0397 11.25 10.9284 11.25 10.8124C11.25 10.6963 11.2039 10.5851 11.1219 10.503C11.0398 10.421 10.9285 10.3749 10.8125 10.3749H5.30657L11.4316 4.24987C11.5128 4.16861 11.5773 4.07215 11.6213 3.96597C11.6653 3.8598 11.6879 3.746 11.6879 3.63108C11.6879 3.51616 11.6653 3.40236 11.6213 3.29618C11.5773 3.19001 11.5128 3.09354 11.4316 3.01229ZM4.06899 10.3749H1.625V7.93088L6.4375 3.11838L8.88149 5.56237L4.06899 10.3749ZM9.5 4.94385L7.05657 2.49987L8.36907 1.18737L10.8125 3.63135L9.5 4.94385Z" fill="#3f51b5"/>
</svg>
