<svg width="14" height="14" viewBox="0 0 14 14" fill="none" xmlns="http://www.w3.org/2000/svg">
<path d="M13.4324 12.2497C12.4805 10.6041 11.0137 9.42412 9.3018 8.86475C10.1486 8.36066 10.8065 7.59255 11.1744 6.67837C11.5424 5.76419 11.6001 4.7545 11.3387 3.80435C11.0773 2.85419 10.5112 2.01612 9.72741 1.41883C8.94359 0.821532 7.98538 0.498047 6.99993 0.498047C6.01447 0.498047 5.05626 0.821532 4.27244 1.41883C3.48863 2.01612 2.92255 2.85419 2.66114 3.80435C2.39973 4.7545 2.45744 5.76419 2.82542 6.67837C3.19339 7.59255 3.85128 8.36066 4.69805 8.86475C2.98618 9.4235 1.5193 10.6035 0.567425 12.2497C0.532518 12.3067 0.509365 12.37 0.499331 12.436C0.489297 12.502 0.492585 12.5694 0.509003 12.6341C0.52542 12.6988 0.554634 12.7596 0.59492 12.8128C0.635206 12.8661 0.685749 12.9107 0.743566 12.9441C0.801383 12.9775 0.865303 12.999 0.931555 13.0073C0.997807 13.0156 1.06505 13.0105 1.12931 12.9924C1.19358 12.9743 1.25356 12.9435 1.30573 12.9018C1.3579 12.8601 1.40119 12.8084 1.43305 12.7497C2.61055 10.7147 4.6918 9.49975 6.99993 9.49975C9.30805 9.49975 11.3893 10.7147 12.5668 12.7497C12.5987 12.8084 12.642 12.8601 12.6941 12.9018C12.7463 12.9435 12.8063 12.9743 12.8705 12.9924C12.9348 13.0105 13.002 13.0156 13.0683 13.0073C13.1345 12.999 13.1985 12.9775 13.2563 12.9441C13.3141 12.9107 13.3646 12.8661 13.4049 12.8128C13.4452 12.7596 13.4744 12.6988 13.4908 12.6341C13.5073 12.5694 13.5106 12.502 13.5005 12.436C13.4905 12.37 13.4673 12.3067 13.4324 12.2497ZM3.49993 4.99975C3.49993 4.30751 3.7052 3.63082 4.08978 3.05525C4.47437 2.47968 5.02099 2.03108 5.66053 1.76617C6.30007 1.50126 7.00381 1.43195 7.68274 1.567C8.36168 1.70205 8.98531 2.03539 9.4748 2.52487C9.96428 3.01436 10.2976 3.638 10.4327 4.31693C10.5677 4.99586 10.4984 5.6996 10.2335 6.33914C9.9686 6.97868 9.51999 7.52531 8.94442 7.90989C8.36885 8.29448 7.69216 8.49975 6.99993 8.49975C6.07197 8.49875 5.18231 8.12969 4.52615 7.47353C3.86999 6.81736 3.50092 5.9277 3.49993 4.99975Z" fill="#4D4D4D"/>
</svg>
