<svg width="14" height="12" viewBox="0 0 14 12" fill="none" xmlns="http://www.w3.org/2000/svg">
<path d="M11.7398 2.9375H10.9375V1.1875C10.9375 1.07147 10.8914 0.960188 10.8094 0.878141C10.7273 0.796094 10.616 0.75 10.5 0.75H3.5C3.38397 0.75 3.27269 0.796094 3.19064 0.878141C3.10859 0.960188 3.0625 1.07147 3.0625 1.1875V2.9375H2.26023C1.49625 2.9375 0.875 3.52648 0.875 4.25V8.625C0.875 8.74103 0.921094 8.85231 1.00314 8.93436C1.08519 9.01641 1.19647 9.0625 1.3125 9.0625H3.0625V10.8125C3.0625 10.9285 3.10859 11.0398 3.19064 11.1219C3.27269 11.2039 3.38397 11.25 3.5 11.25H10.5C10.616 11.25 10.7273 11.2039 10.8094 11.1219C10.8914 11.0398 10.9375 10.9285 10.9375 10.8125V9.0625H12.6875C12.8035 9.0625 12.9148 9.01641 12.9969 8.93436C13.0789 8.85231 13.125 8.74103 13.125 8.625V4.25C13.125 3.52648 12.5037 2.9375 11.7398 2.9375ZM3.9375 1.625H10.0625V2.9375H3.9375V1.625ZM10.0625 10.375H3.9375V7.75H10.0625V10.375ZM12.25 8.1875H10.9375V7.3125C10.9375 7.19647 10.8914 7.08519 10.8094 7.00314C10.7273 6.92109 10.616 6.875 10.5 6.875H3.5C3.38397 6.875 3.27269 6.92109 3.19064 7.00314C3.10859 7.08519 3.0625 7.19647 3.0625 7.3125V8.1875H1.75V4.25C1.75 4.00883 1.97914 3.8125 2.26023 3.8125H11.7398C12.0209 3.8125 12.25 4.00883 12.25 4.25V8.1875ZM10.9375 5.34375C10.9375 5.47354 10.899 5.60042 10.8269 5.70834C10.7548 5.81626 10.6523 5.90038 10.5324 5.95005C10.4125 5.99972 10.2805 6.01271 10.1532 5.98739C10.0259 5.96207 9.90899 5.89957 9.81721 5.80779C9.72543 5.71601 9.66293 5.59908 9.63761 5.47178C9.61229 5.34448 9.62528 5.21253 9.67495 5.09261C9.72462 4.9727 9.80874 4.87021 9.91666 4.7981C10.0246 4.72599 10.1515 4.6875 10.2812 4.6875C10.4553 4.6875 10.6222 4.75664 10.7453 4.87971C10.8684 5.00278 10.9375 5.1697 10.9375 5.34375Z" fill="#4D4D4D"/>
</svg>
