<svg width="20" height="20" viewBox="0 0 20 20" fill="none" xmlns="http://www.w3.org/2000/svg">
<path d="M10 0.25C11.9284 0.25 13.8134 0.821828 15.4168 1.89317C17.0202 2.96451 18.2699 4.48726 19.0078 6.26884C19.7458 8.05042 19.9389 10.0108 19.5627 11.9021C19.1864 13.7934 18.2578 15.5307 16.8943 16.8943C15.5307 18.2579 13.7934 19.1865 11.9021 19.5627C10.0108 19.9389 8.05041 19.7458 6.26883 19.0078C4.48725 18.2699 2.96451 17.0202 1.89317 15.4168C0.821823 13.8134 0.249996 11.9284 0.249996 10C0.252726 7.41498 1.28083 4.93661 3.10872 3.10872C4.93661 1.28084 7.41497 0.25273 10 0.25ZM10 18.25C11.6317 18.25 13.2267 17.7661 14.5835 16.8596C15.9402 15.9531 16.9976 14.6646 17.622 13.1571C18.2464 11.6496 18.4098 9.99085 18.0915 8.3905C17.7731 6.79016 16.9874 5.32015 15.8336 4.16637C14.6798 3.01259 13.2098 2.22685 11.6095 1.90852C10.0091 1.59019 8.35035 1.75357 6.84286 2.37799C5.33537 3.00242 4.04689 4.05984 3.14037 5.41655C2.23385 6.77325 1.75 8.3683 1.75 10C1.75248 12.1873 2.62247 14.2843 4.16911 15.8309C5.71574 17.3775 7.81272 18.2475 10 18.25ZM4 10C4 11.1867 4.35189 12.3467 5.01118 13.3334C5.67047 14.3201 6.60754 15.0892 7.70389 15.5433C8.80025 15.9974 10.0067 16.1162 11.1705 15.8847C12.3344 15.6532 13.4035 15.0818 14.2426 14.2426C15.0818 13.4035 15.6532 12.3344 15.8847 11.1705C16.1162 10.0067 15.9974 8.80026 15.5433 7.7039C15.0891 6.60754 14.3201 5.67047 13.3334 5.01118C12.3467 4.35189 11.1867 4 10 4C8.40923 4.00174 6.88412 4.63444 5.75927 5.75928C4.63443 6.88412 4.00173 8.40923 4 10Z" fill="#DDDDDD"/>
</svg>
