<svg width="15" height="16" viewBox="0 0 15 16" fill="none" xmlns="http://www.w3.org/2000/svg">
<path d="M4.84905 11.2625C4.90817 11.3069 4.97547 11.3393 5.04709 11.3577C5.11872 11.3761 5.19327 11.3801 5.26648 11.3697C5.33969 11.3592 5.41012 11.3345 5.47374 11.2968C5.53737 11.2591 5.59293 11.2092 5.63726 11.15C5.97782 10.6959 6.41944 10.3273 6.92713 10.0735C7.43482 9.81966 7.99464 9.6875 8.56226 9.6875C9.12987 9.6875 9.68969 9.81966 10.1974 10.0735C10.7051 10.3273 11.1467 10.6959 11.4873 11.15C11.5316 11.2091 11.5871 11.2589 11.6507 11.2965C11.7142 11.3342 11.7846 11.3589 11.8577 11.3693C11.9308 11.3798 12.0053 11.3757 12.0769 11.3574C12.1484 11.3391 12.2157 11.3068 12.2748 11.2625C12.3339 11.2182 12.3836 11.1627 12.4213 11.0991C12.4589 11.0355 12.4837 10.9652 12.4941 10.892C12.5045 10.8189 12.5005 10.7445 12.4822 10.6729C12.4638 10.6013 12.4316 10.5341 12.3873 10.475C11.8892 9.80721 11.225 9.28143 10.4607 8.94992C10.8795 8.56752 11.173 8.06742 11.3025 7.51526C11.4321 6.9631 11.3916 6.38468 11.1866 5.85591C10.9815 5.32713 10.6213 4.87271 10.1534 4.55228C9.68542 4.23185 9.13152 4.06038 8.56437 4.06038C7.99721 4.06038 7.44331 4.23185 6.97535 4.55228C6.5074 4.87271 6.14725 5.32713 5.94217 5.85591C5.73709 6.38468 5.69667 6.9631 5.82621 7.51526C5.95575 8.06742 6.24919 8.56752 6.66804 8.94992C5.90222 9.2808 5.2365 9.80664 4.73726 10.475C4.64767 10.5943 4.60912 10.7442 4.63009 10.8919C4.65105 11.0396 4.72981 11.1729 4.84905 11.2625ZM6.87476 6.875C6.87476 6.54124 6.97373 6.21498 7.15915 5.93748C7.34458 5.65997 7.60813 5.44368 7.91648 5.31595C8.22483 5.18823 8.56413 5.15481 8.89147 5.21992C9.21881 5.28504 9.5195 5.44576 9.7555 5.68176C9.9915 5.91776 10.1522 6.21844 10.2173 6.54578C10.2824 6.87313 10.249 7.21243 10.1213 7.52078C9.99358 7.82913 9.77729 8.09268 9.49978 8.27811C9.22227 8.46353 8.89601 8.5625 8.56226 8.5625C8.1147 8.5625 7.68548 8.38471 7.36901 8.06824C7.05255 7.75178 6.87476 7.32255 6.87476 6.875ZM13.6248 0.6875H3.49976C3.20139 0.6875 2.91524 0.806026 2.70426 1.017C2.49328 1.22798 2.37476 1.51413 2.37476 1.8125V3.5H1.24976C1.10057 3.5 0.957497 3.55926 0.852008 3.66475C0.746519 3.77024 0.687256 3.91332 0.687256 4.0625C0.687256 4.21168 0.746519 4.35476 0.852008 4.46025C0.957497 4.56574 1.10057 4.625 1.24976 4.625H2.37476V7.4375H1.24976C1.10057 7.4375 0.957497 7.49676 0.852008 7.60225C0.746519 7.70774 0.687256 7.85082 0.687256 8C0.687256 8.14918 0.746519 8.29226 0.852008 8.39775C0.957497 8.50324 1.10057 8.5625 1.24976 8.5625H2.37476V11.375H1.24976C1.10057 11.375 0.957497 11.4343 0.852008 11.5398C0.746519 11.6452 0.687256 11.7883 0.687256 11.9375C0.687256 12.0867 0.746519 12.2298 0.852008 12.3352C0.957497 12.4407 1.10057 12.5 1.24976 12.5H2.37476V14.1875C2.37476 14.4859 2.49328 14.772 2.70426 14.983C2.91524 15.194 3.20139 15.3125 3.49976 15.3125H13.6248C13.9231 15.3125 14.2093 15.194 14.4203 14.983C14.6312 14.772 14.7498 14.4859 14.7498 14.1875V1.8125C14.7498 1.51413 14.6312 1.22798 14.4203 1.017C14.2093 0.806026 13.9231 0.6875 13.6248 0.6875ZM13.6248 14.1875H3.49976V1.8125H13.6248V14.1875Z" fill="#4D4D4D"/>
</svg>
