<svg width="19" height="20" viewBox="0 0 19 20" fill="none" xmlns="http://www.w3.org/2000/svg">
<path d="M15.3747 8.70651L18.1066 6.13589L18.1225 6.11995C18.6852 5.55728 19.0013 4.79413 19.0013 3.99839C19.0013 3.20265 18.6852 2.4395 18.1225 1.87683C17.5598 1.31415 16.7967 0.998047 16.0009 0.998047C15.2052 0.998047 14.4421 1.31415 13.8794 1.87683C13.8794 1.88245 13.8691 1.88714 13.8634 1.89276L11.2928 4.62464L3.51157 1.79339C3.37746 1.74461 3.23221 1.73511 3.09289 1.76599C2.95356 1.79688 2.82594 1.86688 2.72501 1.96776L0.475007 4.21776C0.396603 4.29623 0.33658 4.39111 0.299263 4.49557C0.261946 4.60003 0.248265 4.71147 0.259205 4.82185C0.270144 4.93223 0.305433 5.03882 0.362527 5.13392C0.419622 5.22902 0.497101 5.31028 0.589382 5.37183L6.57907 9.36464L5.18969 10.7493H3.25001C3.05136 10.7494 2.86086 10.8283 2.72032 10.9687L0.470319 13.2187C0.382571 13.3062 0.317884 13.4142 0.282043 13.5328C0.246201 13.6514 0.240323 13.7771 0.264934 13.8986C0.289545 14.0201 0.343878 14.1336 0.423073 14.2289C0.502268 14.3242 0.603858 14.3985 0.718757 14.445L4.17063 15.8259L5.54876 19.2712L5.55438 19.2862C5.60206 19.4016 5.67779 19.5033 5.77471 19.582C5.87164 19.6607 5.98668 19.714 6.10941 19.737C6.23214 19.76 6.35867 19.752 6.47752 19.7137C6.59637 19.6754 6.70378 19.6081 6.79001 19.5178L9.02782 17.279C9.09784 17.2097 9.15351 17.1272 9.19163 17.0363C9.22976 16.9454 9.24959 16.8479 9.25001 16.7493V14.8096L10.6338 13.4259L14.6266 19.4156C14.6881 19.5079 14.7694 19.5853 14.8645 19.6424C14.9596 19.6995 15.0662 19.7348 15.1765 19.7458C15.2869 19.7567 15.3984 19.743 15.5028 19.7057C15.6073 19.6684 15.7022 19.6084 15.7806 19.53L18.0306 17.28C18.1315 17.179 18.2015 17.0514 18.2324 16.9121C18.2633 16.7727 18.2538 16.6275 18.205 16.4934L15.3747 8.70651ZM15.3681 17.8218L11.3753 11.8331C11.3141 11.7401 11.233 11.6619 11.1378 11.6042C11.0426 11.5464 10.9358 11.5106 10.825 11.4993C10.7997 11.4993 10.7753 11.4993 10.7509 11.4993C10.6524 11.4994 10.5547 11.5189 10.4637 11.5567C10.3726 11.5945 10.2899 11.6498 10.2203 11.7196L7.97032 13.9696C7.82959 14.11 7.75035 14.3005 7.75001 14.4993V16.439L6.52469 17.6643L5.44657 14.9681C5.40885 14.8745 5.35262 14.7894 5.28126 14.7181C5.2099 14.6467 5.12486 14.5905 5.03126 14.5528L2.33688 13.4746L3.56126 12.2493H5.50001C5.59853 12.2494 5.6961 12.2301 5.78714 12.1924C5.87819 12.1548 5.96093 12.0996 6.03063 12.03L8.28063 9.77995C8.35921 9.70148 8.41938 9.60654 8.45679 9.50199C8.49421 9.39743 8.50795 9.28587 8.497 9.17536C8.48606 9.06485 8.45071 8.95815 8.39352 8.86297C8.33632 8.76778 8.2587 8.68649 8.16626 8.62495L2.17751 4.6312L3.44313 3.36651L11.245 6.20339C11.3825 6.2539 11.5317 6.26306 11.6743 6.22974C11.8169 6.19642 11.9467 6.12208 12.0475 6.01589L14.9481 2.93058C15.2309 2.65612 15.6102 2.50393 16.0042 2.5069C16.3982 2.50986 16.7753 2.66775 17.0538 2.94643C17.3324 3.22511 17.4901 3.60221 17.4929 3.99623C17.4957 4.39024 17.3433 4.76954 17.0688 5.05214L13.9872 7.95183C13.881 8.05268 13.8067 8.18241 13.7733 8.32502C13.74 8.46762 13.7492 8.61687 13.7997 8.75433L16.6366 16.5562L15.3681 17.8218Z" fill="#3f51b5"/>
</svg>
