<svg width="14" height="14" viewBox="0 0 14 14" fill="none" xmlns="http://www.w3.org/2000/svg">
<path d="M12.6876 6.125C12.6866 7.05295 12.3175 7.9426 11.6614 8.59876C11.0052 9.25491 10.1155 9.62399 9.1876 9.625H2.80612L4.68463 11.503C4.76672 11.5851 4.81284 11.6964 4.81284 11.8125C4.81284 11.9286 4.76672 12.0399 4.68463 12.122C4.60254 12.2041 4.4912 12.2502 4.3751 12.2502C4.259 12.2502 4.14766 12.2041 4.06557 12.122L1.44057 9.49703C1.39989 9.4564 1.36762 9.40815 1.34561 9.35504C1.32359 9.30193 1.31226 9.24499 1.31226 9.1875C1.31226 9.13001 1.32359 9.07308 1.34561 9.01996C1.36762 8.96685 1.39989 8.9186 1.44057 8.87797L4.06557 6.25297C4.14766 6.17088 4.259 6.12476 4.3751 6.12476C4.4912 6.12476 4.60254 6.17088 4.68463 6.25297C4.76672 6.33506 4.81284 6.4464 4.81284 6.5625C4.81284 6.6786 4.76672 6.78994 4.68463 6.87203L2.80612 8.75H9.1876C9.88379 8.75 10.5515 8.47344 11.0438 7.98116C11.536 7.48887 11.8126 6.82119 11.8126 6.125C11.8126 5.42881 11.536 4.76113 11.0438 4.26884C10.5515 3.77656 9.88379 3.5 9.1876 3.5H4.3751C4.25907 3.5 4.14779 3.45391 4.06574 3.37186C3.98369 3.28981 3.9376 3.17853 3.9376 3.0625C3.9376 2.94647 3.98369 2.83519 4.06574 2.75314C4.14779 2.67109 4.25907 2.625 4.3751 2.625H9.1876C10.1155 2.62601 11.0052 2.99509 11.6614 3.65125C12.3175 4.3074 12.6866 5.19705 12.6876 6.125Z" fill="#EA5455"/>
</svg>
