<svg width="17" height="14" viewBox="0 0 17 14" fill="none" xmlns="http://www.w3.org/2000/svg">
<path d="M6.75024 5.3125C6.75024 5.16332 6.80951 5.02024 6.915 4.91475C7.02049 4.80926 7.16356 4.75 7.31274 4.75H11.8127C11.9619 4.75 12.105 4.80926 12.2105 4.91475C12.316 5.02024 12.3752 5.16332 12.3752 5.3125C12.3752 5.46168 12.316 5.60476 12.2105 5.71025C12.105 5.81574 11.9619 5.875 11.8127 5.875H7.31274C7.16356 5.875 7.02049 5.81574 6.915 5.71025C6.80951 5.60476 6.75024 5.46168 6.75024 5.3125ZM7.31274 8.125H11.8127C11.9619 8.125 12.105 8.06574 12.2105 7.96025C12.316 7.85476 12.3752 7.71168 12.3752 7.5625C12.3752 7.41332 12.316 7.27024 12.2105 7.16475C12.105 7.05926 11.9619 7 11.8127 7H7.31274C7.16356 7 7.02049 7.05926 6.915 7.16475C6.80951 7.27024 6.75024 7.41332 6.75024 7.5625C6.75024 7.71168 6.80951 7.85476 6.915 7.96025C7.02049 8.06574 7.16356 8.125 7.31274 8.125ZM16.3127 11.5C16.3127 12.0967 16.0757 12.669 15.6537 13.091C15.2318 13.5129 14.6595 13.75 14.0627 13.75H6.18774C5.59101 13.75 5.01871 13.5129 4.59675 13.091C4.1748 12.669 3.93774 12.0967 3.93774 11.5V2.5C3.93774 2.20163 3.81922 1.91548 3.60824 1.7045C3.39726 1.49353 3.11111 1.375 2.81274 1.375C2.51438 1.375 2.22823 1.49353 2.01725 1.7045C1.80627 1.91548 1.68774 2.20163 1.68774 2.5C1.68774 2.90359 2.02735 3.17641 2.03087 3.17922C2.12396 3.25086 2.19229 3.34985 2.22627 3.4623C2.26025 3.57475 2.25817 3.69501 2.22033 3.80622C2.18248 3.91742 2.11077 4.01399 2.01526 4.08237C1.91974 4.15075 1.80521 4.18752 1.68774 4.1875C1.5661 4.18771 1.44777 4.14793 1.35095 4.0743C1.26938 4.01453 0.562744 3.45695 0.562744 2.5C0.562744 1.90326 0.799797 1.33097 1.22175 0.90901C1.64371 0.487053 2.21601 0.25 2.81274 0.25H12.3752C12.972 0.25 13.5443 0.487053 13.9662 0.90901C14.3882 1.33097 14.6252 1.90326 14.6252 2.5V9.8125H15.1877C15.3095 9.8125 15.4279 9.85198 15.5252 9.925C15.6096 9.98547 16.3127 10.543 16.3127 11.5ZM6.76853 10.1978C6.80696 10.0844 6.88031 9.98599 6.97806 9.91678C7.07582 9.84757 7.19297 9.81106 7.31274 9.8125H13.5002V2.5C13.5002 2.20163 13.3817 1.91548 13.1707 1.7045C12.9598 1.49353 12.6736 1.375 12.3752 1.375H4.7597C4.95864 1.71651 5.06323 2.10477 5.06274 2.5V11.5C5.06274 11.7984 5.18127 12.0845 5.39225 12.2955C5.60323 12.5065 5.88938 12.625 6.18774 12.625C6.48611 12.625 6.77226 12.5065 6.98324 12.2955C7.19422 12.0845 7.31274 11.7984 7.31274 11.5C7.31274 11.0964 6.97313 10.8236 6.96962 10.8208C6.87376 10.7522 6.80247 10.6546 6.76626 10.5425C6.73006 10.4303 6.73085 10.3095 6.76853 10.1978ZM15.1877 11.5C15.1807 11.2916 15.1003 11.0924 14.9606 10.9375H8.35126C8.40779 11.1196 8.43648 11.3093 8.43634 11.5C8.43688 11.8951 8.3328 12.2832 8.1347 12.625H14.0627C14.3611 12.625 14.6473 12.5065 14.8582 12.2955C15.0692 12.0845 15.1877 11.7984 15.1877 11.5Z" fill="#4D4D4D"/>
</svg>
