<svg width="19" height="18" viewBox="0 0 19 18" fill="none" xmlns="http://www.w3.org/2000/svg">
<path d="M12.8323 4.94714C12.8323 3.69602 12.8323 2.44447 12.8323 1.17942C9.09848 1.17942 5.38739 1.17942 1.65797 1.17942C1.65797 6.38669 1.65797 11.5948 1.65797 16.8169C5.37343 16.8169 9.08496 16.8169 12.8323 16.8169C12.8323 16.7251 12.8323 16.6337 12.8323 16.5427C12.8323 15.1215 12.8344 13.7002 12.8292 12.2785C12.8288 12.1283 12.872 12.0226 12.9801 11.9182C13.3034 11.6061 13.6157 11.2828 13.9687 10.9268C13.9783 11.0352 13.9879 11.0948 13.9879 11.1544C13.9887 13.2067 13.9896 15.259 13.9887 17.3112C13.9887 17.7669 13.7601 17.9988 13.3078 17.9988C9.25858 18.0001 5.2094 18.0001 1.16022 17.9988C0.713077 17.9988 0.468347 17.7573 0.468347 17.3138C0.467474 11.7667 0.467474 6.21915 0.469219 0.671578C0.469219 0.240759 0.71395 0.000979136 1.15063 0.000979136C5.20722 -0.000326379 9.26338 -0.000326379 13.32 0.000979136C13.7623 0.000979136 13.9887 0.23162 13.9896 0.674625C13.9913 1.68248 13.9913 2.69077 13.9874 3.69863C13.987 3.77261 13.9739 3.86835 13.9277 3.91665C13.5861 4.27088 13.234 4.6151 12.8855 4.96281C12.868 4.95758 12.8501 4.95236 12.8323 4.94714Z" fill="#4D4D4D"/>
<path d="M18.3126 4.32068C18.317 4.69058 18.1691 4.99259 17.91 5.25064C16.3932 6.762 14.8786 8.27509 13.3631 9.78731C12.6952 10.4536 12.0229 11.1155 11.3625 11.7891C11.085 12.072 10.7705 12.2682 10.3866 12.3727C9.87532 12.5115 9.37146 12.676 8.86062 12.8178C8.77512 12.8418 8.63945 12.8392 8.58797 12.7878C8.53519 12.7352 8.5269 12.599 8.55089 12.5141C8.7123 11.9427 8.87022 11.3687 9.06696 10.8091C9.15072 10.5706 9.28857 10.3274 9.46569 10.1494C11.6866 7.9152 13.9184 5.69191 16.1493 3.46775C16.5424 3.07566 17.0087 2.9686 17.5296 3.16922C18.0073 3.35373 18.3105 3.8124 18.3126 4.32068Z" fill="#4D4D4D"/>
<path d="M7.24515 2.61726C8.45877 2.61726 9.67239 2.61682 10.886 2.61813C10.9798 2.61813 11.0766 2.61856 11.1674 2.63902C11.3698 2.68471 11.5046 2.86705 11.4994 3.06766C11.4937 3.2674 11.348 3.44321 11.146 3.47977C11.0609 3.495 10.9724 3.49456 10.8856 3.49456C8.45135 3.49543 6.0167 3.49543 3.58248 3.495C3.17285 3.495 2.96389 3.34051 2.97087 3.04503C2.97742 2.76217 3.18419 2.61726 3.58335 2.61726C4.80352 2.61726 6.02455 2.61726 7.24515 2.61726Z" fill="#4D4D4D"/>
<path d="M7.22315 5.91311C5.97289 5.91311 4.72262 5.91399 3.47192 5.91224C3.1731 5.91181 2.97592 5.74079 2.96938 5.48665C2.96371 5.26514 3.1334 5.07149 3.36548 5.0406C3.43005 5.03189 3.49592 5.03624 3.56135 5.03624C6.00386 5.03624 8.44637 5.03624 10.8889 5.03624C11.288 5.03624 11.4944 5.18246 11.4996 5.4675C11.5053 5.76211 11.2981 5.91268 10.8863 5.91311C9.66566 5.91311 8.44462 5.91311 7.22315 5.91311Z" fill="#4D4D4D"/>
<path d="M10.3733 7.4834C10.0789 7.77236 9.82455 8.02998 9.55931 8.27542C9.50915 8.32198 9.41492 8.34026 9.34119 8.34069C7.38553 8.34417 5.42987 8.34461 3.4742 8.342C3.16927 8.34156 2.96424 8.14922 2.97035 7.88898C2.97646 7.63528 3.15968 7.46469 3.45021 7.46469C5.71124 7.46208 7.97227 7.46295 10.2333 7.46339C10.2608 7.46382 10.2883 7.47122 10.3733 7.4834Z" fill="#4D4D4D"/>
<path d="M8.07683 9.87756C7.98042 10.1474 7.90058 10.3937 7.80199 10.6321C7.77931 10.687 7.69381 10.7509 7.6371 10.7514C6.22891 10.7575 4.82117 10.7583 3.41299 10.7514C3.14252 10.7501 2.96671 10.5582 2.96977 10.3136C2.97326 10.0716 3.15779 9.88017 3.42084 9.8793C4.96687 9.87538 6.51291 9.87756 8.07683 9.87756Z" fill="#4D4D4D"/>
<path d="M7.26811 12.312C7.28774 12.6014 7.3065 12.879 7.32569 13.168C7.29036 13.1706 7.23408 13.178 7.17824 13.178C5.93758 13.1784 4.69691 13.1793 3.45624 13.1776C3.21413 13.1771 3.044 13.0605 2.9899 12.8638C2.93625 12.6676 2.99208 12.5013 3.1596 12.3882C3.22765 12.342 3.3197 12.3077 3.40084 12.3072C4.68513 12.3029 5.96942 12.3051 7.25328 12.3068C7.2668 12.3068 7.27989 12.3168 7.26811 12.312Z" fill="#4D4D4D"/>
</svg>
