<svg width="15" height="15" viewBox="0 0 15 15" fill="none" xmlns="http://www.w3.org/2000/svg">
<path d="M14.6706 13.5171L12.0343 10.9933C13.0576 9.76179 13.5532 8.19872 13.4191 6.62543C13.285 5.05214 12.5315 3.58823 11.3134 2.5347C10.0953 1.48118 8.50529 0.918116 6.87028 0.961296C5.23526 1.00448 3.67953 1.65062 2.52296 2.76685C1.3664 3.88309 0.696916 5.38459 0.652176 6.9626C0.607436 8.54061 1.19084 10.0752 2.28242 11.2508C3.37401 12.4264 4.89081 13.1537 6.52093 13.2831C8.15105 13.4125 9.7706 12.9342 11.0465 11.9466L13.6616 14.4704C13.7276 14.5347 13.8062 14.5857 13.8928 14.6205C13.9794 14.6553 14.0723 14.6733 14.1661 14.6733C14.2599 14.6733 14.3528 14.6553 14.4394 14.6205C14.526 14.5857 14.6046 14.5347 14.6706 14.4704C14.7987 14.3425 14.8703 14.1716 14.8703 13.9938C14.8703 13.8159 14.7987 13.645 14.6706 13.5171ZM7.06006 11.9466C6.07625 11.9466 5.11454 11.665 4.29653 11.1375C3.47853 10.61 2.84097 9.86018 2.46448 8.98295C2.08799 8.10572 1.98949 7.14044 2.18142 6.20918C2.37335 5.27792 2.8471 4.4225 3.54276 3.75109C4.23841 3.07969 5.12474 2.62246 6.08964 2.43722C7.05455 2.25198 8.0547 2.34705 8.96362 2.71041C9.87254 3.07377 10.6494 3.6891 11.196 4.47859C11.7426 5.26807 12.0343 6.19626 12.0343 7.14577C12.0343 8.41902 11.5102 9.64012 10.5774 10.5404C9.64452 11.4408 8.37931 11.9466 7.06006 11.9466Z" fill="#4D4D4D"/>
</svg>
