<svg xmlns="http://www.w3.org/2000/svg" width="17" height="17" viewBox="0 0 17 17" fill="none">
<path d="M0.238701 15.5668L3.39033 12.4383C2.16697 10.9118 1.57453 8.97425 1.73482 7.02403C1.89511 5.07381 2.79596 3.25917 4.25212 1.95324C5.70828 0.647302 7.60908 -0.0506594 9.56367 0.00286579C11.5183 0.056391 13.3781 0.857335 14.7607 2.24101C16.1433 3.62468 16.9437 5.4859 16.9971 7.44198C17.0506 9.39805 16.3532 11.3003 15.0482 12.7576C13.7433 14.2148 11.93 15.1164 9.9813 15.2768C8.03256 15.4372 6.09647 14.8443 4.57112 13.62L1.44498 16.7485C1.36601 16.8282 1.27206 16.8915 1.16854 16.9346C1.06502 16.9778 0.953985 17 0.841841 17C0.729698 17 0.618664 16.9778 0.515144 16.9346C0.411627 16.8915 0.317673 16.8282 0.238701 16.7485C0.0855885 16.59 0 16.3782 0 16.1577C0 15.9372 0.0855885 15.7254 0.238701 15.5668ZM9.33679 13.62C10.5129 13.62 11.6626 13.271 12.6405 12.6171C13.6184 11.9632 14.3805 11.0338 14.8306 9.94637C15.2807 8.85897 15.3984 7.66243 15.169 6.50805C14.9396 5.35368 14.3732 4.29331 13.5416 3.46105C12.7099 2.62879 11.6504 2.06202 10.4969 1.8324C9.34339 1.60278 8.14775 1.72062 7.06118 2.17104C5.9746 2.62146 5.04589 3.38421 4.39249 4.36284C3.73908 5.34148 3.39033 6.49204 3.39033 7.66903C3.39033 9.24733 4.01683 10.761 5.13201 11.877C6.24718 12.993 7.75969 13.62 9.33679 13.62Z" fill="#4D4D4D"/>
</svg>
