<svg width="12" height="12" viewBox="0 0 12 12" fill="none" xmlns="http://www.w3.org/2000/svg">
<path d="M10.8125 0.625H1.18752C0.955451 0.625 0.732891 0.717187 0.568797 0.881282C0.404702 1.04538 0.312515 1.26794 0.312515 1.5V10.25C0.311527 10.4168 0.358675 10.5803 0.448305 10.721C0.537934 10.8616 0.666239 10.9734 0.817828 11.043C0.933666 11.0968 1.0598 11.1247 1.18752 11.125C1.39292 11.1245 1.59152 11.0513 1.74806 10.9183C1.75067 10.9166 1.75306 10.9146 1.75517 10.9123L3.51173 9.375H10.8125C11.0446 9.375 11.2671 9.28281 11.4312 9.11872C11.5953 8.95462 11.6875 8.73206 11.6875 8.5V1.5C11.6875 1.26794 11.5953 1.04538 11.4312 0.881282C11.2671 0.717187 11.0446 0.625 10.8125 0.625ZM10.8125 8.5H3.51173C3.30568 8.4999 3.10621 8.57253 2.94845 8.70508L2.94189 8.71109L1.18752 10.25V1.5H10.8125V8.5ZM5.34377 5C5.34377 4.87021 5.38225 4.74333 5.45436 4.63541C5.52647 4.52749 5.62897 4.44337 5.74888 4.3937C5.86879 4.34403 6.00074 4.33104 6.12804 4.35636C6.25534 4.38168 6.37228 4.44418 6.46405 4.53596C6.55583 4.62774 6.61833 4.74467 6.64366 4.87197C6.66898 4.99927 6.65598 5.13122 6.60631 5.25114C6.55664 5.37105 6.47253 5.47354 6.36461 5.54565C6.25669 5.61776 6.12981 5.65625 6.00002 5.65625C5.82597 5.65625 5.65905 5.58711 5.53598 5.46404C5.41291 5.34097 5.34377 5.17405 5.34377 5ZM2.93752 5C2.93752 4.87021 2.976 4.74333 3.04811 4.63541C3.12022 4.52749 3.22272 4.44337 3.34263 4.3937C3.46254 4.34403 3.59449 4.33104 3.72179 4.35636C3.84909 4.38168 3.96603 4.44418 4.0578 4.53596C4.14958 4.62774 4.21208 4.74467 4.23741 4.87197C4.26273 4.99927 4.24973 5.13122 4.20006 5.25114C4.15039 5.37105 4.06628 5.47354 3.95836 5.54565C3.85044 5.61776 3.72356 5.65625 3.59377 5.65625C3.41972 5.65625 3.2528 5.58711 3.12973 5.46404C3.00666 5.34097 2.93752 5.17405 2.93752 5ZM7.75002 5C7.75002 4.87021 7.7885 4.74333 7.86061 4.63541C7.93272 4.52749 8.03522 4.44337 8.15513 4.3937C8.27504 4.34403 8.40699 4.33104 8.53429 4.35636C8.66159 4.38168 8.77853 4.44418 8.8703 4.53596C8.96208 4.62774 9.02458 4.74467 9.04991 4.87197C9.07523 4.99927 9.06223 5.13122 9.01256 5.25114C8.96289 5.37105 8.87878 5.47354 8.77086 5.54565C8.66294 5.61776 8.53606 5.65625 8.40627 5.65625C8.23222 5.65625 8.0653 5.58711 7.94223 5.46404C7.81916 5.34097 7.75002 5.17405 7.75002 5Z" fill="#3f51b5"/>
</svg>
