<svg width="12" height="11" viewBox="0 0 12 11" fill="none" xmlns="http://www.w3.org/2000/svg">
<path d="M11.4928 3.88607L6.24281 0.386066C6.17092 0.338098 6.08643 0.3125 6 0.3125C5.91357 0.3125 5.82908 0.338098 5.75719 0.386066L0.507188 3.88607C0.447256 3.92605 0.398127 3.98022 0.364163 4.04376C0.3302 4.1073 0.312453 4.17824 0.3125 4.25028V9.93779C0.3125 10.1698 0.404687 10.3924 0.568782 10.5565C0.732876 10.7206 0.955436 10.8128 1.1875 10.8128H10.8125C11.0446 10.8128 11.2671 10.7206 11.4312 10.5565C11.5953 10.3924 11.6875 10.1698 11.6875 9.93779V4.25028C11.6875 4.17824 11.6698 4.1073 11.6358 4.04376C11.6019 3.98022 11.5527 3.92605 11.4928 3.88607ZM4.28938 7.31279L1.1875 9.50029V5.09958L4.28938 7.31279ZM5.18461 7.75029H6.81539L9.91234 9.93779H2.08766L5.18461 7.75029ZM7.71062 7.31279L10.8125 5.09958V9.50029L7.71062 7.31279ZM6 1.27583L10.4795 4.26232L6.81539 6.87528H5.1857L1.52164 4.26232L6 1.27583Z" fill="#3f51b5"/>
</svg>
