<svg width="14" height="11" viewBox="0 0 14 11" fill="none" xmlns="http://www.w3.org/2000/svg">
<path d="M12.997 4.81581L8.622 0.440813C8.56084 0.379591 8.48291 0.337879 8.39805 0.320952C8.31319 0.304025 8.22521 0.312644 8.14525 0.345718C8.06529 0.378792 7.99693 0.434835 7.94882 0.506761C7.90071 0.578687 7.87501 0.663265 7.87497 0.749798V2.95644C6.45637 3.07784 4.88958 3.77238 3.60059 4.86558C2.04856 6.18245 1.08223 7.87941 0.879342 9.64363C0.863487 9.78079 0.891297 9.91945 0.958816 10.0399C1.02633 10.1603 1.13012 10.2564 1.2554 10.3144C1.38069 10.3725 1.52109 10.3895 1.65662 10.3631C1.79215 10.3368 1.91591 10.2683 2.01028 10.1675C2.61184 9.52714 4.75231 7.50206 7.87497 7.32378V9.4998C7.87501 9.58633 7.90071 9.67091 7.94882 9.74283C7.99693 9.81476 8.06529 9.8708 8.14525 9.90388C8.22521 9.93695 8.31319 9.94557 8.39805 9.92864C8.48291 9.91172 8.56084 9.87 8.622 9.80878L12.997 5.43378C13.0788 5.35177 13.1248 5.24065 13.1248 5.1248C13.1248 5.00895 13.0788 4.89783 12.997 4.81581ZM8.74997 8.44378V6.8748C8.74997 6.75877 8.70387 6.64749 8.62183 6.56544C8.53978 6.48339 8.4285 6.4373 8.31247 6.4373C6.77684 6.4373 5.28114 6.83816 3.86692 7.62949C3.14666 8.0343 2.47557 8.52096 1.867 9.0798C2.18419 7.77605 2.98372 6.53628 4.16661 5.53277C5.43645 4.45597 6.98629 3.8123 8.31247 3.8123C8.4285 3.8123 8.53978 3.7662 8.62183 3.68416C8.70387 3.60211 8.74997 3.49083 8.74997 3.3748V1.80636L12.069 5.1248L8.74997 8.44378Z" fill="#3f51b5"/>
</svg>
