<svg width="15" height="14" viewBox="0 0 15 14" fill="none" xmlns="http://www.w3.org/2000/svg">
<path d="M11.0851 7.06073L8.08308 5.97219L6.97789 3.01307C6.91244 2.83795 6.79403 2.68681 6.63863 2.58005C6.48323 2.4733 6.29832 2.41606 6.10886 2.41606C5.91939 2.41606 5.73449 2.4733 5.57909 2.58005C5.42369 2.68681 5.30528 2.83795 5.23983 3.01307L4.13347 5.96875L1.1291 7.05729C0.951295 7.12175 0.797846 7.23838 0.689456 7.39144C0.581065 7.5445 0.522949 7.72662 0.522949 7.91323C0.522949 8.09984 0.581065 8.28196 0.689456 8.43502C0.797846 8.58808 0.951295 8.70471 1.1291 8.76917L4.1294 9.86458L5.23459 12.822C5.30004 12.9971 5.41845 13.1482 5.57385 13.255C5.72925 13.3618 5.91416 13.419 6.10362 13.419C6.29309 13.419 6.47799 13.3618 6.63339 13.255C6.78879 13.1482 6.9072 12.9971 6.97265 12.822L8.07784 9.86516L11.0822 8.77661C11.26 8.71215 11.4135 8.59552 11.5219 8.44247C11.6303 8.28941 11.6884 8.10729 11.6884 7.92068C11.6884 7.73407 11.6303 7.55195 11.5219 7.39889C11.4135 7.24583 11.26 7.1292 11.0822 7.06474L11.0851 7.06073ZM7.7585 9.00521C7.63275 9.05067 7.51855 9.12254 7.42383 9.21584C7.32911 9.30913 7.25613 9.42161 7.20998 9.54547L6.10479 12.4937L5.00192 9.54318C4.95573 9.41997 4.88299 9.30809 4.7887 9.21522C4.69441 9.12235 4.58081 9.0507 4.45572 9.00521L1.4624 7.91667L4.45572 6.82812C4.58081 6.78263 4.69441 6.71098 4.7887 6.61811C4.88299 6.52525 4.95573 6.41336 5.00192 6.29016L6.10711 3.34193L7.2123 6.29016C7.25846 6.41401 7.33143 6.5265 7.42615 6.61979C7.52087 6.71308 7.63508 6.78496 7.76083 6.83042L10.7542 7.91896L7.7585 9.00521ZM7.96849 1.95833C7.96849 1.83678 8.01752 1.7202 8.10478 1.63424C8.19205 1.54829 8.31042 1.5 8.43383 1.5H9.36452V0.583333C9.36452 0.461776 9.41355 0.345197 9.50082 0.259243C9.58808 0.173289 9.70645 0.125 9.82986 0.125C9.95328 0.125 10.0716 0.173289 10.1589 0.259243C10.2462 0.345197 10.2952 0.461776 10.2952 0.583333V1.5H11.2259C11.3493 1.5 11.4677 1.54829 11.5549 1.63424C11.6422 1.7202 11.6912 1.83678 11.6912 1.95833C11.6912 2.07989 11.6422 2.19647 11.5549 2.28242C11.4677 2.36838 11.3493 2.41667 11.2259 2.41667H10.2952V3.33333C10.2952 3.45489 10.2462 3.57147 10.1589 3.65742C10.0716 3.74338 9.95328 3.79167 9.82986 3.79167C9.70645 3.79167 9.58808 3.74338 9.50082 3.65742C9.41355 3.57147 9.36452 3.45489 9.36452 3.33333V2.41667H8.43383C8.31042 2.41667 8.19205 2.36838 8.10478 2.28242C8.01752 2.19647 7.96849 2.07989 7.96849 1.95833ZM14.018 4.70833C14.018 4.82989 13.9689 4.94647 13.8817 5.03242C13.7944 5.11838 13.676 5.16667 13.5526 5.16667H13.0873V5.625C13.0873 5.74656 13.0382 5.86314 12.951 5.94909C12.8637 6.03504 12.7453 6.08333 12.6219 6.08333C12.4985 6.08333 12.3801 6.03504 12.2929 5.94909C12.2056 5.86314 12.1566 5.74656 12.1566 5.625V5.16667H11.6912C11.5678 5.16667 11.4495 5.11838 11.3622 5.03242C11.2749 4.94647 11.2259 4.82989 11.2259 4.70833C11.2259 4.58678 11.2749 4.4702 11.3622 4.38424C11.4495 4.29829 11.5678 4.25 11.6912 4.25H12.1566V3.79167C12.1566 3.67011 12.2056 3.55353 12.2929 3.46758C12.3801 3.38162 12.4985 3.33333 12.6219 3.33333C12.7453 3.33333 12.8637 3.38162 12.951 3.46758C13.0382 3.55353 13.0873 3.67011 13.0873 3.79167V4.25H13.5526C13.676 4.25 13.7944 4.29829 13.8817 4.38424C13.9689 4.4702 14.018 4.58678 14.018 4.70833Z" fill="#4D4D4D"/>
</svg>
