<svg width="26" height="24" viewBox="0 0 26 24" fill="none" xmlns="http://www.w3.org/2000/svg">
<ellipse cx="13.0376" cy="12" rx="12.1835" ry="12" fill="#F3C11B" fill-opacity="0.15"/>
<g clip-path="url(#clip0_1349_91676)">
<path d="M17.0851 12.0607L14.0831 10.9722L12.9779 8.01307C12.9124 7.83795 12.794 7.68681 12.6386 7.58005C12.4832 7.4733 12.2983 7.41606 12.1089 7.41606C11.9194 7.41606 11.7345 7.4733 11.5791 7.58005C11.4237 7.68681 11.3053 7.83795 11.2398 8.01307L10.1335 10.9688L7.1291 12.0573C6.95129 12.1218 6.79785 12.2384 6.68946 12.3914C6.58107 12.5445 6.52295 12.7266 6.52295 12.9132C6.52295 13.0998 6.58107 13.282 6.68946 13.435C6.79785 13.5881 6.95129 13.7047 7.1291 13.7692L10.1294 14.8646L11.2346 17.822C11.3 17.9971 11.4185 18.1482 11.5739 18.255C11.7293 18.3618 11.9142 18.419 12.1036 18.419C12.2931 18.419 12.478 18.3618 12.6334 18.255C12.7888 18.1482 12.9072 17.9971 12.9727 17.822L14.0778 14.8652L17.0822 13.7766C17.26 13.7122 17.4135 13.5955 17.5219 13.4425C17.6303 13.2894 17.6884 13.1073 17.6884 12.9207C17.6884 12.7341 17.6303 12.5519 17.5219 12.3989C17.4135 12.2458 17.26 12.1292 17.0822 12.0647L17.0851 12.0607ZM13.7585 14.0052C13.6327 14.0507 13.5185 14.1225 13.4238 14.2158C13.3291 14.3091 13.2561 14.4216 13.21 14.5455L12.1048 17.4937L11.0019 14.5432C10.9557 14.42 10.883 14.3081 10.7887 14.2152C10.6944 14.1224 10.5808 14.0507 10.4557 14.0052L7.4624 12.9167L10.4557 11.8281C10.5808 11.7826 10.6944 11.711 10.7887 11.6181C10.883 11.5252 10.9557 11.4134 11.0019 11.2902L12.1071 8.34193L13.2123 11.2902C13.2585 11.414 13.3314 11.5265 13.4262 11.6198C13.5209 11.7131 13.6351 11.785 13.7608 11.8304L16.7542 12.919L13.7585 14.0052ZM13.9685 6.95833C13.9685 6.83678 14.0175 6.7202 14.1048 6.63424C14.1921 6.54829 14.3104 6.5 14.4338 6.5H15.3645V5.58333C15.3645 5.46178 15.4135 5.3452 15.5008 5.25924C15.5881 5.17329 15.7064 5.125 15.8299 5.125C15.9533 5.125 16.0716 5.17329 16.1589 5.25924C16.2462 5.3452 16.2952 5.46178 16.2952 5.58333V6.5H17.2259C17.3493 6.5 17.4677 6.54829 17.5549 6.63424C17.6422 6.7202 17.6912 6.83678 17.6912 6.95833C17.6912 7.07989 17.6422 7.19647 17.5549 7.28242C17.4677 7.36838 17.3493 7.41667 17.2259 7.41667H16.2952V8.33333C16.2952 8.45489 16.2462 8.57147 16.1589 8.65742C16.0716 8.74338 15.9533 8.79167 15.8299 8.79167C15.7064 8.79167 15.5881 8.74338 15.5008 8.65742C15.4135 8.57147 15.3645 8.45489 15.3645 8.33333V7.41667H14.4338C14.3104 7.41667 14.1921 7.36838 14.1048 7.28242C14.0175 7.19647 13.9685 7.07989 13.9685 6.95833ZM20.018 9.70833C20.018 9.82989 19.9689 9.94647 19.8817 10.0324C19.7944 10.1184 19.676 10.1667 19.5526 10.1667H19.0873V10.625C19.0873 10.7466 19.0382 10.8631 18.951 10.9491C18.8637 11.035 18.7453 11.0833 18.6219 11.0833C18.4985 11.0833 18.3801 11.035 18.2929 10.9491C18.2056 10.8631 18.1566 10.7466 18.1566 10.625V10.1667H17.6912C17.5678 10.1667 17.4495 10.1184 17.3622 10.0324C17.2749 9.94647 17.2259 9.82989 17.2259 9.70833C17.2259 9.58678 17.2749 9.4702 17.3622 9.38424C17.4495 9.29829 17.5678 9.25 17.6912 9.25H18.1566V8.79167C18.1566 8.67011 18.2056 8.55353 18.2929 8.46758C18.3801 8.38162 18.4985 8.33333 18.6219 8.33333C18.7453 8.33333 18.8637 8.38162 18.951 8.46758C19.0382 8.55353 19.0873 8.67011 19.0873 8.79167V9.25H19.5526C19.676 9.25 19.7944 9.29829 19.8817 9.38424C19.9689 9.4702 20.018 9.58678 20.018 9.70833Z" fill="#F3C11B"/>
</g>
<defs>
<clipPath id="clip0_1349_91676">
<rect width="14.891" height="14.6667" fill="white" transform="translate(5.59229 4.66699)"/>
</clipPath>
</defs>
</svg>
