<svg width="24" height="24" viewBox="0 0 24 24" fill="none" xmlns="http://www.w3.org/2000/svg">
<circle cx="12" cy="12" r="12" fill="#F3C11B" fill-opacity="0.15"/>
<path d="M17.019 9.655L13.8537 6.48969C13.8116 6.44771 13.7618 6.41442 13.7069 6.39173C13.652 6.36903 13.5931 6.35738 13.5338 6.35742H8.1075C7.86764 6.35742 7.63761 6.4527 7.46801 6.62231C7.29841 6.79191 7.20313 7.02194 7.20312 7.2618V17.2099C7.20312 17.4498 7.29841 17.6798 7.46801 17.8494C7.63761 18.019 7.86764 18.1143 8.1075 18.1143H16.2469C16.4867 18.1143 16.7168 18.019 16.8864 17.8494C17.056 17.6798 17.1512 17.4498 17.1512 17.2099V9.97492C17.1513 9.91552 17.1396 9.8567 17.1169 9.8018C17.0943 9.74691 17.061 9.69702 17.019 9.655ZM13.9859 7.90108L15.6076 9.52273H13.9859V7.90108ZM16.2469 17.2099H8.1075V7.2618H13.0816V9.97492C13.0816 10.0948 13.1292 10.2099 13.214 10.2947C13.2988 10.3795 13.4138 10.4271 13.5338 10.4271H16.2469V17.2099ZM13.8537 12.5558L12.8165 13.5924L13.8537 14.6291C13.8957 14.6711 13.929 14.721 13.9517 14.7758C13.9745 14.8307 13.9862 14.8896 13.9862 14.949C13.9862 15.0084 13.9745 15.0672 13.9517 15.1221C13.929 15.177 13.8957 15.2269 13.8537 15.2689C13.8117 15.3109 13.7618 15.3442 13.7069 15.367C13.652 15.3897 13.5932 15.4014 13.5338 15.4014C13.4743 15.4014 13.4155 15.3897 13.3606 15.367C13.3057 15.3442 13.2558 15.3109 13.2138 15.2689L12.1772 14.2317L11.1405 15.2689C11.0985 15.3109 11.0487 15.3442 10.9938 15.367C10.9389 15.3897 10.88 15.4014 10.8206 15.4014C10.7612 15.4014 10.7024 15.3897 10.6475 15.367C10.5926 15.3442 10.5427 15.3109 10.5007 15.2689C10.4587 15.2269 10.4254 15.177 10.4026 15.1221C10.3799 15.0672 10.3682 15.0084 10.3682 14.949C10.3682 14.8896 10.3799 14.8307 10.4026 14.7758C10.4254 14.721 10.4587 14.6711 10.5007 14.6291L11.5379 13.5924L10.5007 12.5558C10.4159 12.4709 10.3682 12.3559 10.3682 12.2359C10.3682 12.1159 10.4159 12.0008 10.5007 11.9159C10.5856 11.8311 10.7006 11.7834 10.8206 11.7834C10.9406 11.7834 11.0557 11.8311 11.1405 11.9159L12.1772 12.9531L13.2138 11.9159C13.2558 11.8739 13.3057 11.8406 13.3606 11.8179C13.4155 11.7951 13.4743 11.7834 13.5338 11.7834C13.5932 11.7834 13.652 11.7951 13.7069 11.8179C13.7618 11.8406 13.8117 11.8739 13.8537 11.9159C13.8957 11.9579 13.929 12.0078 13.9517 12.0627C13.9745 12.1176 13.9862 12.1764 13.9862 12.2359C13.9862 12.2953 13.9745 12.3541 13.9517 12.409C13.929 12.4639 13.8957 12.5138 13.8537 12.5558Z" fill="#F3C11B"/>
</svg>
