<svg width="24" height="24" viewBox="0 0 24 24" fill="none" xmlns="http://www.w3.org/2000/svg">
<circle cx="12" cy="12" r="12" fill="#EA5455" fill-opacity="0.12"/>
<path d="M16.7567 7.26172H7.71297C7.47311 7.26172 7.24308 7.357 7.07348 7.5266C6.90388 7.69621 6.80859 7.92624 6.80859 8.16609V11.488C6.80859 16.5536 11.0942 18.2335 11.9522 18.5184C12.1354 18.5811 12.3343 18.5811 12.5175 18.5184C13.3766 18.2329 17.6611 16.553 17.6611 11.4874V8.16609C17.6611 7.92624 17.5658 7.69621 17.3962 7.5266C17.2266 7.357 16.9966 7.26172 16.7567 7.26172ZM16.7567 11.4891C16.7567 15.9217 13.007 17.4026 12.2348 17.6603C11.4701 17.406 7.71297 15.9262 7.71297 11.4891V8.16609H16.7567V11.4891ZM11.7827 12.688V10.427C11.7827 10.3071 11.8303 10.1921 11.9151 10.1073C11.9999 10.0225 12.1149 9.97484 12.2348 9.97484C12.3548 9.97484 12.4698 10.0225 12.5546 10.1073C12.6394 10.1921 12.687 10.3071 12.687 10.427V12.688C12.687 12.8079 12.6394 12.9229 12.5546 13.0077C12.4698 13.0925 12.3548 13.1402 12.2348 13.1402C12.1149 13.1402 11.9999 13.0925 11.9151 13.0077C11.8303 12.9229 11.7827 12.8079 11.7827 12.688ZM11.5566 14.7228C11.5566 14.5887 11.5963 14.4575 11.6709 14.346C11.7454 14.2344 11.8513 14.1475 11.9753 14.0962C12.0992 14.0448 12.2356 14.0314 12.3672 14.0576C12.4987 14.0837 12.6196 14.1483 12.7145 14.2432C12.8093 14.3381 12.8739 14.4589 12.9001 14.5905C12.9263 14.7221 12.9128 14.8584 12.8615 14.9824C12.8102 15.1063 12.7232 15.2123 12.6117 15.2868C12.5001 15.3613 12.369 15.4011 12.2348 15.4011C12.055 15.4011 11.8824 15.3296 11.7552 15.2024C11.628 15.0752 11.5566 14.9027 11.5566 14.7228Z" fill="#EA5455"/>
</svg>
