<svg width="25" height="24" viewBox="0 0 25 24" fill="none" xmlns="http://www.w3.org/2000/svg">
<circle cx="12.4141" cy="12" r="12" fill="#7367F0" fill-opacity="0.2"/>
<path d="M17.4907 9.65305L14.3254 6.48773C14.2833 6.44576 14.2334 6.41247 14.1786 6.38977C14.1237 6.36708 14.0648 6.35542 14.0054 6.35547H8.57918C8.33932 6.35547 8.10929 6.45075 7.93969 6.62035C7.77009 6.78996 7.6748 7.01999 7.6748 7.25984V17.208C7.6748 17.4478 7.77009 17.6779 7.93969 17.8475C8.10929 18.0171 8.33932 18.1123 8.57918 18.1123H16.7186C16.9584 18.1123 17.1884 18.0171 17.358 17.8475C17.5276 17.6779 17.6229 17.4478 17.6229 17.208V9.97297C17.623 9.91357 17.6113 9.85474 17.5886 9.79985C17.5659 9.74496 17.5326 9.69507 17.4907 9.65305ZM14.4576 7.89912L16.0793 9.52078H14.4576V7.89912ZM16.7186 17.208H8.57918V7.25984H13.5532V9.97297C13.5532 10.0929 13.6009 10.2079 13.6857 10.2927C13.7705 10.3775 13.8855 10.4252 14.0054 10.4252H16.7186V17.208ZM14.9098 12.6861C14.9098 12.806 14.8622 12.921 14.7774 13.0058C14.6926 13.0906 14.5775 13.1383 14.4576 13.1383H10.8401C10.7202 13.1383 10.6052 13.0906 10.5204 13.0058C10.4356 12.921 10.3879 12.806 10.3879 12.6861C10.3879 12.5662 10.4356 12.4512 10.5204 12.3663C10.6052 12.2815 10.7202 12.2339 10.8401 12.2339H14.4576C14.5775 12.2339 14.6926 12.2815 14.7774 12.3663C14.8622 12.4512 14.9098 12.5662 14.9098 12.6861ZM14.9098 14.4948C14.9098 14.6148 14.8622 14.7298 14.7774 14.8146C14.6926 14.8994 14.5775 14.947 14.4576 14.947H10.8401C10.7202 14.947 10.6052 14.8994 10.5204 14.8146C10.4356 14.7298 10.3879 14.6148 10.3879 14.4948C10.3879 14.3749 10.4356 14.2599 10.5204 14.1751C10.6052 14.0903 10.7202 14.0427 10.8401 14.0427H14.4576C14.5775 14.0427 14.6926 14.0903 14.7774 14.1751C14.8622 14.2599 14.9098 14.3749 14.9098 14.4948Z" fill="#7367F0"/>
</svg>
