<svg width="25" height="24" viewBox="0 0 25 24" fill="none" xmlns="http://www.w3.org/2000/svg">
<circle cx="12.4707" cy="12" r="12" fill="#15D7A1" fill-opacity="0.12"/>
<path d="M16.5473 9.655L13.382 6.48969C13.34 6.44771 13.2901 6.41442 13.2352 6.39173C13.1803 6.36903 13.1215 6.35738 13.0621 6.35742H7.63582C7.39597 6.35742 7.16593 6.4527 6.99633 6.62231C6.82673 6.79191 6.73145 7.02194 6.73145 7.2618V17.2099C6.73145 17.4498 6.82673 17.6798 6.99633 17.8494C7.16593 18.019 7.39597 18.1143 7.63582 18.1143H15.7752C16.0151 18.1143 16.2451 18.019 16.4147 17.8494C16.5843 17.6798 16.6796 17.4498 16.6796 17.2099V9.97492C16.6796 9.91552 16.668 9.8567 16.6453 9.8018C16.6226 9.74691 16.5893 9.69702 16.5473 9.655ZM13.5143 7.90108L15.1359 9.52273H13.5143V7.90108ZM15.7752 17.2099H7.63582V7.2618H12.6099V9.97492C12.6099 10.0948 12.6575 10.2099 12.7423 10.2947C12.8271 10.3795 12.9421 10.4271 13.0621 10.4271H15.7752V17.2099ZM13.382 12.8203C13.424 12.8623 13.4573 12.9122 13.4801 12.9671C13.5028 13.022 13.5145 13.0808 13.5145 13.1402C13.5145 13.1996 13.5028 13.2585 13.4801 13.3134C13.4573 13.3683 13.424 13.4181 13.382 13.4602C13.34 13.5022 13.2901 13.5355 13.2352 13.5582C13.1803 13.581 13.1215 13.5927 13.0621 13.5927C13.0027 13.5927 12.9438 13.581 12.8889 13.5582C12.834 13.5355 12.7842 13.5022 12.7421 13.4602L12.1577 12.8751V15.4012C12.1577 15.5211 12.1101 15.6361 12.0253 15.7209C11.9405 15.8057 11.8254 15.8534 11.7055 15.8534C11.5856 15.8534 11.4706 15.8057 11.3858 15.7209C11.301 15.6361 11.2533 15.5211 11.2533 15.4012V12.8751L10.6689 13.4602C10.6269 13.5022 10.577 13.5355 10.5221 13.5582C10.4672 13.581 10.4084 13.5927 10.3489 13.5927C10.2895 13.5927 10.2307 13.581 10.1758 13.5582C10.1209 13.5355 10.071 13.5022 10.029 13.4602C9.98701 13.4181 9.95368 13.3683 9.93095 13.3134C9.90821 13.2585 9.89651 13.1996 9.89651 13.1402C9.89651 13.0808 9.90821 13.022 9.93095 12.9671C9.95368 12.9122 9.98701 12.8623 10.029 12.8203L11.3856 11.4637C11.4276 11.4217 11.4775 11.3884 11.5323 11.3656C11.5872 11.3428 11.6461 11.3311 11.7055 11.3311C11.7649 11.3311 11.8238 11.3428 11.8787 11.3656C11.9336 11.3884 11.9834 11.4217 12.0254 11.4637L13.382 12.8203Z" fill="#15D7A1"/>
</svg>
