<svg width="196" height="156" viewBox="0 0 196 156" fill="none" xmlns="http://www.w3.org/2000/svg">
<path d="M28.662 141.027C66.8779 160.991 128.842 160.991 167.058 141.027C205.274 121.062 205.274 88.6927 167.058 68.724C128.842 48.7552 66.8954 48.7596 28.662 68.724C-9.57146 88.6884 -9.53651 121.062 28.662 141.027Z" fill="#F5F5F5"/>
<path d="M18.0085 108.286L5.58594 101.115V74.4697L18.0085 81.6445V108.286Z" fill="#E0E0E0"/>
<path d="M18.0088 81.6445L35.7578 71.3979V98.039L18.0088 108.286V81.6445Z" fill="#EBEBEB"/>
<path d="M35.7576 71.3984L18.0085 81.645L5.58594 74.4702L23.335 64.2236L35.7576 71.3984Z" fill="#F5F5F5"/>
<path d="M19.7871 82.667L33.9837 74.4697L34.3114 74.6576V84.5284L20.1104 92.7256L19.7827 92.5378L19.7871 82.667Z" fill="#E0E0E0"/>
<path d="M20.1104 82.8598L34.3113 74.6582V84.529L20.1104 92.7262V82.8598Z" fill="#F5F5F5"/>
<path d="M25.6769 81.3172L28.0933 79.9233C28.4035 79.7398 28.6569 79.8228 28.6569 80.1068C28.6344 80.2808 28.5718 80.4471 28.474 80.5927C28.3761 80.7383 28.2458 80.8592 28.0933 80.9458L25.6769 82.3397C25.3623 82.5232 25.1089 82.4402 25.1089 82.1561C25.1315 81.9817 25.1947 81.8149 25.2933 81.6693C25.392 81.5236 25.5233 81.403 25.6769 81.3172Z" fill="#E0E0E0"/>
<path d="M19.4595 95.1552L33.6561 86.958V96.8288L33.9838 97.0167L19.7828 105.214L19.4595 105.026V95.1552Z" fill="#E0E0E0"/>
<path d="M19.7827 95.3432L33.9837 87.146V97.0168L19.7827 105.214V95.3432Z" fill="#F5F5F5"/>
<path d="M25.3494 93.8055L27.7876 92.416C28.1022 92.2325 28.3557 92.3155 28.3557 92.5995C28.333 92.774 28.2698 92.9407 28.1712 93.0864C28.0726 93.2321 27.9412 93.3526 27.7876 93.4385L25.3713 94.8323C25.0567 95.0159 24.8032 94.9328 24.8032 94.6488C24.8229 94.4756 24.8824 94.3093 24.9772 94.1629C25.0719 94.0166 25.1994 93.8943 25.3494 93.8055Z" fill="#E0E0E0"/>
<path d="M18.0085 80.1068L5.58594 72.9321V46.291L18.0085 53.4614V80.1068Z" fill="#E0E0E0"/>
<path d="M18.0088 53.4614L35.7578 43.2148V69.8603L18.0088 80.1068V53.4614Z" fill="#EBEBEB"/>
<path d="M35.7576 43.2148L18.0085 53.4614L5.58594 46.291L23.335 36.0444L35.7576 43.2148Z" fill="#F5F5F5"/>
<path d="M19.7827 54.4883L33.9837 46.291L34.3114 46.4789V56.3497L20.1104 64.5469L19.7827 64.3547V54.4883Z" fill="#E0E0E0"/>
<path d="M25.6769 53.1338L28.0889 51.7399C28.4035 51.5608 28.6569 51.6438 28.6569 51.9278C28.6336 52.1021 28.5702 52.2685 28.4716 52.4141C28.3731 52.5597 28.242 52.6804 28.0889 52.7668L25.6769 54.1606C25.3623 54.3398 25.1089 54.2611 25.1089 53.9771C25.1319 53.8022 25.1952 53.635 25.2937 53.4887C25.3923 53.3423 25.5235 53.2209 25.6769 53.1338Z" fill="#E0E0E0"/>
<path d="M19.4595 66.9761L33.6561 58.7788V68.6452L33.9838 68.8331L19.7828 77.0303L19.4595 76.8425V66.9761Z" fill="#E0E0E0"/>
<path d="M19.7827 67.164L33.9837 58.9668V68.8332L19.7827 77.0304V67.164Z" fill="#F5F5F5"/>
<path d="M25.3493 65.6221L27.7875 64.2282C28.0977 64.0491 28.3555 64.1321 28.3555 64.4161C28.3309 64.5899 28.267 64.7559 28.1685 64.9013C28.0701 65.0467 27.9398 65.1677 27.7875 65.255L25.3493 66.6358C25.0347 66.815 24.7812 66.7319 24.7812 66.4523C24.8062 66.2797 24.8703 66.1151 24.9688 65.9712C25.0673 65.8273 25.1974 65.7078 25.3493 65.6221Z" fill="#E0E0E0"/>
<path d="M19.7827 54.4883L33.9837 46.291V56.1574L19.7827 64.3547V54.4883Z" fill="#E0E0E0"/>
<path d="M41.0839 51.1672L33.3105 46.6797V55.3751L41.0839 59.8582V51.1672Z" fill="#E0E0E0"/>
<path d="M25.1089 65.7616V53.4614L28.1544 51.6961L28.6569 52.4389L37.5315 47.3135V58.5869L25.1089 65.7616Z" fill="#EBEBEB"/>
<path d="M25.1089 65.7617L25.9959 54.9995L38.4185 47.8291L37.5315 58.5869L25.1089 65.7617Z" fill="#F5F5F5"/>
<path d="M26.8831 59.3648L20.1104 55.4541V64.1495L26.8831 68.0558V59.3648Z" fill="#EBEBEB"/>
<path d="M26.8828 58.5869L41.0838 50.3896V60.256L26.8828 68.4533V58.5869Z" fill="#F5F5F5"/>
<path d="M32.4494 57.0444L34.8614 55.6506C35.176 55.4714 35.4294 55.5544 35.4294 55.8385C35.4058 56.0126 35.3422 56.1789 35.2437 56.3245C35.1451 56.47 35.0143 56.5908 34.8614 56.6774L32.4494 58.0713C32.1348 58.2504 31.8813 58.1674 31.8813 57.8878C31.9043 57.7128 31.9676 57.5456 32.0662 57.3993C32.1647 57.253 32.2959 57.1315 32.4494 57.0444Z" fill="#E0E0E0"/>
<path d="M26.8835 58.5868L26.4116 58.3159V68.1823L26.8835 68.4532V58.5868Z" fill="#E0E0E0"/>
<path d="M26.4116 58.3159L40.6082 50.1143L41.0845 50.3895L26.8835 58.5868L26.4116 58.3159Z" fill="#EBEBEB"/>
<path d="M164.773 92.1449L152.346 84.9701V58.3291L164.773 65.4995V92.1449Z" fill="#E0E0E0"/>
<path d="M164.773 65.4995L182.522 55.2529V81.8983L164.773 92.1449V65.4995Z" fill="#EBEBEB"/>
<path d="M182.522 55.2529L164.773 65.4995L152.346 58.3291L170.099 48.0781L182.522 55.2529Z" fill="#F5F5F5"/>
<path d="M166.546 66.5263L180.747 58.3291L181.075 58.517L181.07 68.3834L166.874 76.5806L166.546 76.3927V66.5263Z" fill="#E0E0E0"/>
<path d="M166.875 66.7138L181.075 58.5166L181.071 68.383L166.875 76.5802V66.7138Z" fill="#F5F5F5"/>
<path d="M172.441 65.1716L174.853 63.7777C175.167 63.5986 175.421 63.6816 175.421 63.9612C175.398 64.1362 175.334 64.3034 175.236 64.4497C175.137 64.596 175.006 64.7175 174.853 64.8046L172.441 66.1984C172.126 66.3776 171.873 66.2946 171.873 66.0149C171.896 65.84 171.959 65.6728 172.057 65.5264C172.156 65.3801 172.287 65.2586 172.441 65.1716Z" fill="#E0E0E0"/>
<path d="M166.218 79.0141L180.419 70.8125V80.6833L180.747 80.8712L166.546 89.0684L166.218 88.8805V79.0141Z" fill="#E0E0E0"/>
<path d="M166.546 79.2021L180.747 71.0049V80.8713L166.546 89.0685V79.2021Z" fill="#F5F5F5"/>
<path d="M172.113 77.6594L174.53 76.2655C174.84 76.0864 175.093 76.1694 175.093 76.449C175.07 76.6234 175.007 76.79 174.91 76.9362C174.812 77.0825 174.682 77.2043 174.53 77.2924L172.113 78.6862C171.799 78.8654 171.545 78.7824 171.545 78.4983C171.569 78.3242 171.633 78.1579 171.731 78.0123C171.83 77.8668 171.961 77.746 172.113 77.6594Z" fill="#E0E0E0"/>
<path d="M46.5774 119.992C46.5774 119.992 46.6255 113.062 42.2559 107.866C38.3889 103.265 36.3308 100.346 37.5499 99.0007C38.769 97.6548 41.3907 97.3315 44.9257 101.054C48.4607 104.777 48.7359 115.089 48.2466 117.423L46.5774 119.992Z" fill="#3f51b5"/>
<path opacity="0.2" d="M46.5774 119.992C46.5774 119.992 46.6255 113.062 42.2559 107.866C38.3889 103.265 36.3308 100.346 37.5499 99.0007C38.769 97.6548 41.3907 97.3315 44.9257 101.054C48.4607 104.777 48.7359 115.089 48.2466 117.423L46.5774 119.992Z" fill="black"/>
<path d="M47.3111 112.542C47.2613 112.542 47.213 112.526 47.174 112.495C47.1351 112.464 47.1079 112.42 47.097 112.372C45.5676 105.219 41.6438 101.264 39.4372 99.5427C39.3915 99.5073 39.3617 99.4552 39.3543 99.3979C39.347 99.3406 39.3626 99.2827 39.3978 99.2368C39.434 99.1909 39.4869 99.161 39.5449 99.1536C39.6029 99.1463 39.6616 99.162 39.7081 99.1975C41.9584 100.945 45.9652 104.992 47.5252 112.28C47.5316 112.308 47.5323 112.337 47.5274 112.365C47.5225 112.393 47.512 112.42 47.4965 112.444C47.481 112.468 47.4609 112.489 47.4373 112.505C47.4137 112.521 47.3871 112.532 47.3591 112.538L47.3111 112.542Z" fill="white"/>
<path d="M46.4114 122.565L44.633 123.592C44.4433 123.074 44.1234 122.613 43.704 122.254C43.2847 121.895 42.78 121.65 42.2385 121.543C40.2941 121.106 38.2754 121.18 36.9121 119.494C35.5488 117.807 37.2092 115.972 36.9121 114.731C36.6149 113.49 36.4227 113.132 33.9845 111.891C31.5463 110.65 30.585 108.592 32.4202 107.198C34.2554 105.804 37.2267 106.826 39.0269 108.072C40.6262 109.164 42.1468 109.453 43.9339 109.675C45.7211 109.898 48.6312 110.89 48.1855 115.041C47.8936 117.611 47.2981 120.136 46.4114 122.565Z" fill="#3f51b5"/>
<path d="M39.5857 117.112C39.5391 117.112 39.4939 117.097 39.4562 117.069C39.4186 117.042 39.3905 117.004 39.3759 116.959C39.3594 116.904 39.3652 116.844 39.3921 116.792C39.4191 116.741 39.465 116.702 39.5201 116.684C39.6774 116.636 43.4527 115.439 45.0563 116.723C45.0961 116.761 45.1204 116.812 45.1243 116.867C45.1282 116.921 45.1115 116.975 45.0774 117.018C45.0433 117.061 44.9944 117.09 44.9404 117.098C44.8863 117.107 44.831 117.094 44.7854 117.064C43.3697 115.928 39.6906 117.09 39.6512 117.104L39.5857 117.112Z" fill="white"/>
<path d="M46.6075 122.233C46.5543 122.234 46.5029 122.214 46.4633 122.178C46.4237 122.143 46.3988 122.094 46.3934 122.041C45.419 112.839 34.3334 108.474 34.2242 108.43C34.1971 108.42 34.1723 108.404 34.1513 108.384C34.1302 108.365 34.1133 108.341 34.1015 108.314C34.0897 108.288 34.0833 108.259 34.0826 108.231C34.0819 108.202 34.087 108.173 34.0975 108.146C34.119 108.093 34.16 108.05 34.212 108.027C34.2641 108.003 34.3232 108 34.3771 108.019C34.4951 108.067 45.8253 112.524 46.8259 122.002C46.8321 122.059 46.8153 122.116 46.7793 122.161C46.7433 122.206 46.691 122.235 46.6337 122.242L46.6075 122.233Z" fill="white"/>
<path d="M155.292 116.523C155.34 116.37 157.214 106.722 155.292 99.879C153.544 93.6043 151.263 91.2885 148.012 90.7773C144.761 90.266 143.35 92.6081 145.076 95.7804C146.802 98.9527 150.957 103.161 151.975 110.248C152.412 113.167 152.744 115.701 152.744 115.701L155.292 116.523Z" fill="#3f51b5"/>
<path opacity="0.2" d="M155.292 116.523C155.34 116.37 157.214 106.722 155.292 99.879C153.544 93.6043 151.263 91.2885 148.012 90.7773C144.761 90.266 143.35 92.6081 145.076 95.7804C146.802 98.9527 150.957 103.161 151.975 110.248C152.412 113.167 152.744 115.701 152.744 115.701L155.292 116.523Z" fill="black"/>
<path d="M154.194 110.982C154.166 110.98 154.138 110.973 154.112 110.96C154.086 110.948 154.063 110.93 154.044 110.909C154.025 110.887 154.01 110.862 154.001 110.835C153.991 110.808 153.987 110.779 153.989 110.75C154.426 102.938 151.874 95.9638 147.299 92.5425C147.253 92.5077 147.222 92.4559 147.214 92.3986C147.206 92.3412 147.221 92.2829 147.256 92.2366C147.291 92.1912 147.343 92.1613 147.4 92.1531C147.457 92.145 147.515 92.1592 147.561 92.1929C152.25 95.6885 154.88 102.82 154.422 110.777C154.418 110.834 154.393 110.887 154.35 110.926C154.308 110.964 154.252 110.984 154.194 110.982Z" fill="white"/>
<path d="M160.321 121.547C160.072 119.751 161.103 117.06 163.554 116.422C166.006 115.784 167.098 114.377 166.215 112.839C165.333 111.301 165.538 109.889 167.762 109.251C169.986 108.613 171.935 107.504 170.655 105.153C169.724 103.453 169.519 102.352 171.8 99.0049C173.692 96.2258 172.145 94.596 169.776 94.9019C167.408 95.2077 165.944 98.0305 164.463 98.5024C162.982 98.9743 162.641 96.4574 160.688 97.5848C158.735 98.7121 158.853 101.6 158.791 103.615C158.73 105.629 158.599 106.084 156.834 105.839C155.069 105.594 153.338 105.883 153.378 110.152C153.408 113.813 155.361 118.349 155.361 118.349L160.321 121.547Z" fill="#3f51b5"/>
<path d="M157.223 118.816H157.201C157.143 118.81 157.089 118.78 157.053 118.734C157.016 118.688 156.998 118.63 157.005 118.571C158.237 107.565 167.684 98.2794 170.148 96.3961C170.195 96.3607 170.253 96.3453 170.311 96.353C170.369 96.3608 170.421 96.3912 170.456 96.4376C170.492 96.484 170.507 96.5425 170.499 96.6002C170.492 96.658 170.461 96.7103 170.415 96.7457C167.981 98.6027 158.656 107.766 157.442 118.62C157.435 118.673 157.41 118.723 157.369 118.759C157.329 118.795 157.277 118.815 157.223 118.816Z" fill="white"/>
<path d="M161.531 107.049C161.487 107.049 161.443 107.036 161.407 107.011C161.37 106.986 161.342 106.951 161.326 106.91C161.307 106.855 161.31 106.794 161.334 106.741C161.359 106.689 161.403 106.647 161.457 106.626C164.978 105.315 168.972 105.935 169.143 105.961C169.199 105.971 169.25 106.003 169.283 106.049C169.317 106.096 169.331 106.154 169.322 106.211C169.311 106.267 169.279 106.317 169.233 106.351C169.187 106.385 169.13 106.401 169.073 106.394C169.033 106.394 165.022 105.765 161.61 107.036C161.584 107.045 161.558 107.049 161.531 107.049Z" fill="white"/>
<path d="M158.394 113.665C158.363 113.664 158.333 113.658 158.305 113.645C158.277 113.632 158.252 113.613 158.232 113.59C156.767 111.885 155.775 109.826 155.353 107.617C155.348 107.589 155.35 107.56 155.356 107.532C155.363 107.504 155.376 107.478 155.393 107.455C155.41 107.432 155.431 107.412 155.456 107.397C155.48 107.382 155.508 107.372 155.536 107.368C155.565 107.364 155.594 107.365 155.621 107.372C155.649 107.379 155.676 107.391 155.699 107.408C155.722 107.425 155.741 107.447 155.756 107.471C155.771 107.496 155.781 107.523 155.785 107.552C156.203 109.673 157.158 111.651 158.56 113.298C158.587 113.33 158.605 113.369 158.611 113.411C158.617 113.453 158.61 113.495 158.593 113.534C158.576 113.572 158.548 113.605 158.512 113.628C158.477 113.651 158.436 113.664 158.394 113.665Z" fill="white"/>
<path d="M46.4111 54.9389V122.571L115.633 82.6068L115.629 21.123L64.1602 50.8402L62.3818 45.7148L46.4111 54.9389Z" fill="#3f51b5"/>
<path opacity="0.7" d="M46.4111 54.9389V122.571L115.633 82.6068L115.629 21.123L64.1602 50.8402L62.3818 45.7148L46.4111 54.9389Z" fill="black"/>
<path d="M46.4111 122.571L49.9592 61.0868L119.181 21.123L115.633 82.6068L46.4111 122.571Z" fill="#E0E0E0"/>
<path d="M46.4111 122.57L51.7332 62.1136L120.955 22.1455L115.633 82.6067L46.4111 122.57Z" fill="#3f51b5"/>
<path opacity="0.7" d="M46.4111 122.57L51.7332 62.1136L120.955 22.1455L115.633 82.6067L46.4111 122.57Z" fill="black"/>
<path d="M57.0596 61.0858V128.722L126.282 88.7537V27.27L74.8086 56.9872L73.0346 51.8618L57.0596 61.0858Z" fill="#3f51b5"/>
<path opacity="0.5" d="M57.0596 61.0858V128.722L126.282 88.7537V27.27L74.8086 56.9872L73.0346 51.8618L57.0596 61.0858Z" fill="black"/>
<path d="M57.0596 128.722L60.6076 67.2338L129.83 27.27L126.282 88.7537L57.0596 128.722Z" fill="#E0E0E0"/>
<path d="M57.0596 128.722L62.3817 68.2606L131.604 28.2925L126.282 88.7537L57.0596 128.722Z" fill="#3f51b5"/>
<path opacity="0.5" d="M57.0596 128.722L62.3817 68.2606L131.604 28.2925L126.282 88.7537L57.0596 128.722Z" fill="black"/>
<path d="M115.616 150.242C103.189 143.067 91.6618 135.267 86.4009 126.118L102.393 116.885L115.616 150.242Z" fill="#E0E0E0"/>
<path d="M69.4824 68.2606V135.892L138.705 95.9285V34.4448L87.2315 64.162L85.4574 59.0366L69.4824 68.2606Z" fill="#3f51b5"/>
<path opacity="0.2" d="M69.4824 68.2606V135.892L138.705 95.9285V34.4448L87.2315 64.162L85.4574 59.0366L69.4824 68.2606Z" fill="black"/>
<path d="M89.4246 88.2557C89.2498 88.2557 89.2236 88.0547 89.2236 87.9367V30.2589C89.2377 30.0351 89.3034 29.8177 89.4156 29.6236C89.5278 29.4295 89.6834 29.2641 89.8703 29.1403L139.832 0.301359C139.9 0.258684 139.978 0.234585 140.059 0.231445C140.234 0.231445 140.26 0.432445 140.26 0.550423V58.2283C140.246 58.4527 140.181 58.6709 140.068 58.8657C139.956 59.0606 139.8 59.2267 139.613 59.3512L89.6518 88.1901C89.5828 88.2308 89.5047 88.2533 89.4246 88.2557Z" fill="white"/>
<path d="M140.033 0.432653C140.037 0.464598 140.037 0.496837 140.033 0.528783V58.2066C140.019 58.3927 139.963 58.5731 139.87 58.7349C139.777 58.8967 139.649 59.0356 139.496 59.1417L89.5346 87.9806L89.4472 88.02C89.4414 87.9882 89.4414 87.9556 89.4472 87.9238V30.246C89.4622 30.0607 89.5182 29.8811 89.6112 29.7201C89.7041 29.5592 89.8317 29.4209 89.9847 29.3153L139.946 0.476347C139.973 0.457072 140.005 0.443687 140.038 0.437023M140.064 6.98052e-05C139.945 0.00361227 139.829 0.0382632 139.727 0.100571L89.7662 28.9395C89.5466 29.0838 89.3638 29.2775 89.2325 29.5051C89.1012 29.7328 89.0251 29.988 89.0103 30.2503V87.9282C89.0103 88.269 89.1807 88.4656 89.4472 88.4656C89.5663 88.4625 89.6824 88.4278 89.7837 88.3651L139.745 59.5262C139.966 59.383 140.149 59.1895 140.28 58.9616C140.412 58.7338 140.487 58.478 140.501 58.2154V0.537524C140.501 0.1967 140.33 -0.00429973 140.064 6.98052e-05Z" fill="#3f51b5"/>
<path opacity="0.7" d="M140.033 0.432653C140.037 0.464598 140.037 0.496837 140.033 0.528783V58.2066C140.019 58.3927 139.963 58.5731 139.87 58.7349C139.777 58.8967 139.649 59.0356 139.496 59.1417L89.5346 87.9806L89.4472 88.02C89.4414 87.9882 89.4414 87.9556 89.4472 87.9238V30.246C89.4622 30.0607 89.5182 29.8811 89.6112 29.7201C89.7041 29.5592 89.8317 29.4209 89.9847 29.3153L139.946 0.476347C139.973 0.457072 140.005 0.443687 140.038 0.437023M140.064 6.98052e-05C139.945 0.00361227 139.829 0.0382632 139.727 0.100571L89.7662 28.9395C89.5466 29.0838 89.3638 29.2775 89.2325 29.5051C89.1012 29.7328 89.0251 29.988 89.0103 30.2503V87.9282C89.0103 88.269 89.1807 88.4656 89.4472 88.4656C89.5663 88.4625 89.6824 88.4278 89.7837 88.3651L139.745 59.5262C139.966 59.383 140.149 59.1895 140.28 58.9616C140.412 58.7338 140.487 58.478 140.501 58.2154V0.537524C140.501 0.1967 140.33 -0.00429973 140.064 6.98052e-05Z" fill="white"/>
<path d="M94.332 32.4482L112.081 22.2017V42.6948L94.332 52.9413V32.4482Z" fill="#3f51b5"/>
<path opacity="0.8" d="M94.332 32.4482L112.081 22.2017V42.6948L94.332 52.9413V32.4482Z" fill="white"/>
<path d="M109.42 27.3096V33.4706L108.86 33.7808V31.8976C108.86 30.8576 108.017 30.5037 106.968 31.1067L99.4484 35.4544C98.4041 36.0574 97.5564 37.3901 97.5564 38.43V40.3133L97.0015 40.6454V34.4975L109.42 27.3096Z" fill="white"/>
<path d="M106.003 42.9961C105.094 43.5204 104.356 42.9699 104.356 41.7595V31.8975L102.07 33.1384V43.0791C102.07 44.2851 101.332 45.7008 100.423 46.2121L98.7715 47.1646V47.82L107.646 42.6946V42.0435L106.003 42.9961Z" fill="white"/>
<path d="M115.615 21.1924C115.615 21.7605 116.126 21.9221 116.751 21.5638L134.02 11.5794C134.326 11.4058 134.588 11.1635 134.785 10.8717C134.982 10.5798 135.109 10.2463 135.156 9.89717C135.156 9.3335 134.645 9.16746 134.02 9.53013L116.764 19.4927C116.453 19.666 116.187 19.9102 115.987 20.2054C115.787 20.5007 115.66 20.8388 115.615 21.1924Z" fill="#4D4D4D"/>
<path d="M115.615 27.3097C115.615 27.8778 116.126 28.0438 116.751 27.6811L134.007 17.7186C134.313 17.5449 134.575 17.3027 134.772 17.0108C134.969 16.719 135.096 16.3854 135.143 16.0363C135.143 15.4727 134.631 15.3066 134.007 15.6693L116.751 25.6318C116.445 25.8051 116.184 26.0466 115.987 26.3377C115.79 26.6287 115.663 26.9614 115.615 27.3097Z" fill="#4D4D4D"/>
<path d="M115.615 33.4707C115.615 34.0387 116.126 34.2047 116.751 33.8421L134.007 23.8795C134.312 23.7063 134.574 23.4647 134.771 23.1737C134.968 22.8826 135.095 22.5499 135.143 22.2016C135.143 21.6336 134.631 21.4675 134.007 21.8302L116.751 31.7928C116.445 31.966 116.184 32.2076 115.987 32.4986C115.79 32.7897 115.663 33.1224 115.615 33.4707Z" fill="#4D4D4D"/>
<path d="M115.615 39.6186C115.615 40.1866 116.126 40.3527 116.751 39.99L134.007 30.0275C134.312 29.8543 134.574 29.6127 134.771 29.3216C134.968 29.0306 135.095 28.6979 135.143 28.3496C135.143 27.7815 134.631 27.6155 134.007 27.9782L116.751 37.9407C116.445 38.1139 116.184 38.3555 115.987 38.6466C115.79 38.9376 115.663 39.2703 115.615 39.6186Z" fill="#4D4D4D"/>
<path d="M94.332 58.0667C94.332 58.6347 94.8389 58.8008 95.4681 58.4381L134.021 36.1535C134.327 35.9808 134.589 35.7393 134.786 35.4482C134.983 35.157 135.11 34.8241 135.157 34.4756C135.157 33.9075 134.645 33.7459 134.021 34.1042L95.4681 56.3888C95.1616 56.5612 94.8994 56.8026 94.7022 57.0938C94.5051 57.385 94.3783 57.7181 94.332 58.0667Z" fill="#4D4D4D"/>
<path d="M94.332 64.215C94.332 64.783 94.8389 64.9491 95.4681 64.5864L134.021 42.328C134.327 42.1543 134.589 41.9121 134.786 41.6202C134.983 41.3283 135.11 40.9948 135.157 40.6457C135.157 40.082 134.645 39.916 134.021 40.2787L95.4681 62.5371C95.1616 62.7095 94.8994 62.9509 94.7022 63.2421C94.5051 63.5333 94.3783 63.8664 94.332 64.215Z" fill="#4D4D4D"/>
<path d="M94.332 70.3673C94.332 70.931 94.8389 71.097 95.4681 70.7343L134.021 48.4759C134.327 48.3023 134.589 48.06 134.786 47.7681C134.983 47.4763 135.11 47.1427 135.157 46.7937C135.157 46.23 134.645 46.0639 134.021 46.4266L95.4681 68.685C95.1611 68.8579 94.8985 69.0999 94.7013 69.3919C94.5041 69.684 94.3777 70.0179 94.332 70.3673Z" fill="#4D4D4D"/>
<path d="M69.4824 135.893L81.905 81.5838L151.127 41.6157L138.705 95.929L69.4824 135.893Z" fill="#3f51b5"/>
<path d="M86.4185 85.835V126.118L102.393 116.894V76.6152L86.4185 85.835Z" fill="#3f51b5"/>
<path opacity="0.2" d="M86.4185 85.835V126.118L102.393 116.894V76.6152L86.4185 85.835Z" fill="black"/>
<path d="M115.646 149.98C114.287 148.966 101.187 138.956 94.5279 124.637C87.4405 109.413 87.4492 91.6553 87.4492 84.9743V84.7645L134.937 57.3501C134.937 64.0923 134.937 81.8763 142.055 97.1522C148.562 111.135 161.159 121.019 163.156 122.53L115.646 149.98Z" fill="white"/>
<path d="M134.719 57.7432C134.719 64.7694 134.855 82.2126 141.859 97.2612C148.147 110.763 160.102 120.472 162.763 122.522L115.659 149.717C113.82 148.332 101.214 138.488 94.7291 124.562C87.6505 109.382 87.6505 91.6595 87.6505 84.9872V84.9042L134.702 57.7388M135.139 56.9829L87.2135 84.6551C87.2135 90.9429 87.0825 109.212 94.314 124.746C101.432 139.991 115.616 150.242 115.616 150.242L163.554 122.565C163.554 122.565 149.353 112.314 142.257 97.069C135.021 81.5353 135.156 63.2663 135.156 56.9785L135.139 56.9829Z" fill="#3f51b5"/>
<path opacity="0.7" d="M134.719 57.7432C134.719 64.7694 134.855 82.2126 141.859 97.2612C148.147 110.763 160.102 120.472 162.763 122.522L115.659 149.717C113.82 148.332 101.214 138.488 94.7291 124.562C87.6505 109.382 87.6505 91.6595 87.6505 84.9872V84.9042L134.702 57.7388M135.139 56.9829L87.2135 84.6551C87.2135 90.9429 87.0825 109.212 94.314 124.746C101.432 139.991 115.616 150.242 115.616 150.242L163.554 122.565C163.554 122.565 149.353 112.314 142.257 97.069C135.021 81.5353 135.156 63.2663 135.156 56.9785L135.139 56.9829Z" fill="white"/>
<path d="M129.734 66.264L114.581 75.0031C114.277 75.1701 114.019 75.4078 113.827 75.6961C113.635 75.9845 113.516 76.3149 113.479 76.6592C113.501 77.2141 114.03 77.3714 114.655 77.0087L129.813 68.2697C130.113 68.1043 130.368 67.8697 130.559 67.5854C130.75 67.3012 130.87 66.9755 130.91 66.6354C130.883 66.0587 130.363 65.9014 129.734 66.264Z" fill="#4D4D4D"/>
<path d="M130.057 72.2284L114.904 80.9674C114.604 81.1286 114.35 81.3629 114.165 81.6487C113.98 81.9344 113.87 82.2622 113.846 82.6016C113.894 83.1391 114.445 83.2833 115.07 82.9206L130.228 74.1815C130.526 74.021 130.778 73.7871 130.961 73.502C131.144 73.2168 131.251 72.8897 131.272 72.5517C131.228 72.0099 130.686 71.8788 130.057 72.2284Z" fill="#4D4D4D"/>
<path d="M130.665 78.0267L115.507 86.7658C114.882 87.1284 114.428 87.8494 114.502 88.3694C114.576 88.8894 115.149 89.0248 115.778 88.6621L130.936 79.9231C131.561 79.5604 132.006 78.8438 131.928 78.3238C131.849 77.8039 131.29 77.664 130.665 78.0267Z" fill="#4D4D4D"/>
<path d="M131.574 83.6504L116.416 92.3895C115.791 92.7521 115.359 93.46 115.463 93.9669C115.568 94.4737 116.163 94.5873 116.774 94.2247L131.928 85.4856C132.557 85.1229 132.977 84.4194 132.872 83.9126C132.767 83.4057 132.221 83.2877 131.574 83.6504Z" fill="#4D4D4D"/>
<path d="M132.805 89.0862L117.648 97.8253C117.023 98.188 116.616 98.8783 116.774 99.3634C116.931 99.8484 117.53 99.9576 118.154 99.5949L133.312 90.8559C133.942 90.4932 134.335 89.8072 134.186 89.3178C134.038 88.8284 133.43 88.7236 132.805 89.0862Z" fill="#4D4D4D"/>
<path d="M134.404 94.3254L97.4642 115.653C96.8394 116.016 96.4592 116.689 96.6296 117.156C96.8001 117.624 97.4511 117.711 98.0759 117.348L135.016 96.0208C135.645 95.6581 136.008 94.9896 135.837 94.5177C135.667 94.0458 135.007 93.9627 134.404 94.3254Z" fill="#4D4D4D"/>
<path d="M136.349 99.3282L99.413 120.656C98.7838 121.019 98.4386 121.674 98.6483 122.12C98.8581 122.565 99.5222 122.635 100.16 122.273L137.1 100.945C137.729 100.582 138.066 99.9269 137.856 99.4812C137.646 99.0355 136.978 98.9699 136.349 99.3282Z" fill="#4D4D4D"/>
<path d="M138.774 104.095L101.834 125.423C101.205 125.786 100.895 126.424 101.144 126.848C101.393 127.271 102.105 127.315 102.734 126.952L139.648 105.625C140.273 105.266 140.574 104.633 140.325 104.209C140.076 103.785 139.386 103.733 138.774 104.095Z" fill="#4D4D4D"/>
<path d="M141.601 108.605L104.666 129.928C104.036 130.291 103.757 130.915 104.041 131.313C104.325 131.711 105.072 131.75 105.701 131.383L142.637 110.055C143.266 109.693 143.537 109.077 143.253 108.675C142.969 108.273 142.23 108.242 141.601 108.605Z" fill="#4D4D4D"/>
<path d="M144.826 112.892L107.886 134.215C107.261 134.578 107.012 135.185 107.327 135.565C107.642 135.945 108.415 135.963 109.044 135.6L145.984 114.264C146.609 113.901 146.858 113.302 146.535 112.922C146.211 112.542 145.456 112.516 144.826 112.892Z" fill="#4D4D4D"/>
<path d="M148.387 116.972L111.46 138.296C110.831 138.658 110.587 139.253 110.954 139.606C111.321 139.96 112.098 139.969 112.723 139.606L149.663 118.279C150.293 117.916 150.511 117.331 150.161 116.968C149.812 116.605 149.025 116.614 148.387 116.972Z" fill="#4D4D4D"/>
<path d="M152.319 120.875L115.379 142.198C114.754 142.561 114.549 143.142 114.942 143.487C115.336 143.832 116.14 143.819 116.769 143.456L153.678 122.129C154.303 121.766 154.5 121.198 154.115 120.848C153.731 120.499 152.931 120.512 152.319 120.875Z" fill="#4D4D4D"/>
<path d="M109.088 78.1885L91.6621 88.2384C91.8544 94.5524 92.5753 103.658 95.2145 112.83L112.645 102.78C110.001 93.6086 109.28 84.4981 109.088 78.1885Z" fill="#3f51b5"/>
<path opacity="0.8" d="M109.088 78.1885L91.6621 88.2384C91.8544 94.5524 92.5753 103.658 95.2145 112.83L112.645 102.78C110.001 93.6086 109.28 84.4981 109.088 78.1885Z" fill="white"/>
<path d="M98.767 86.8492C98.7905 86.4416 98.7271 86.0337 98.5809 85.6525C98.4348 85.2713 98.2092 84.9256 97.9193 84.6382L91.6621 88.2474C91.7145 89.9166 91.8019 91.7824 91.9549 93.7923C92.7688 93.886 93.5921 93.7338 94.3188 93.3554C96.7788 92.2281 98.767 89.3048 98.767 86.8492Z" fill="#3f51b5"/>
<path opacity="0.6" d="M98.767 86.8492C98.7905 86.4416 98.7271 86.0337 98.5809 85.6525C98.4348 85.2713 98.2092 84.9256 97.9193 84.6382L91.6621 88.2474C91.7145 89.9166 91.8019 91.7824 91.9549 93.7923C92.7688 93.886 93.5921 93.7338 94.3188 93.3554C96.7788 92.2281 98.767 89.3048 98.767 86.8492Z" fill="white"/>
<path d="M111.163 96.7503C110.001 95.2865 107.637 90.764 106.628 88.7934C106.588 88.7155 106.526 88.6513 106.45 88.609C106.373 88.5668 106.286 88.5485 106.199 88.5565C106.112 88.5645 106.029 88.5984 105.961 88.6539C105.894 88.7094 105.844 88.7838 105.82 88.8676C104.728 92.6003 104.094 96.4519 103.932 100.338C102.477 99.1824 101.226 97.791 100.231 96.2216C100.189 96.1608 100.13 96.1133 100.061 96.0849C99.9927 96.0565 99.9175 96.0482 99.8445 96.061C99.7715 96.0739 99.7037 96.1073 99.6491 96.1575C99.5944 96.2076 99.5553 96.2723 99.5362 96.3439C97.6311 103.68 98.588 110.899 98.588 110.899L112.645 102.78C112.059 100.753 111.574 98.7341 111.163 96.7503Z" fill="#3f51b5"/>
<path opacity="0.6" d="M111.163 96.7503C110.001 95.2865 107.637 90.764 106.628 88.7934C106.588 88.7155 106.526 88.6513 106.45 88.609C106.373 88.5668 106.286 88.5485 106.199 88.5565C106.112 88.5645 106.029 88.5984 105.961 88.6539C105.894 88.7094 105.844 88.7838 105.82 88.8676C104.728 92.6003 104.094 96.4519 103.932 100.338C102.477 99.1824 101.226 97.791 100.231 96.2216C100.189 96.1608 100.13 96.1133 100.061 96.0849C99.9927 96.0565 99.9175 96.0482 99.8445 96.061C99.7715 96.0739 99.7037 96.1073 99.6491 96.1575C99.5944 96.2076 99.5553 96.2723 99.5362 96.3439C97.6311 103.68 98.588 110.899 98.588 110.899L112.645 102.78C112.059 100.753 111.574 98.7341 111.163 96.7503Z" fill="white"/>
</svg>
