<svg width="18" height="16" viewBox="0 0 18 16" fill="none" xmlns="http://www.w3.org/2000/svg">
<path d="M17.8353 8.398L16.1478 10.0855C16.0956 10.1378 16.0335 10.1793 15.9652 10.2076C15.8969 10.2359 15.8237 10.2505 15.7498 10.2505C15.6759 10.2505 15.6027 10.2359 15.5344 10.2076C15.4661 10.1793 15.4041 10.1378 15.3519 10.0855L13.6644 8.398C13.5588 8.29245 13.4995 8.1493 13.4995 8.00003C13.4995 7.85076 13.5588 7.70761 13.6644 7.60206C13.7699 7.49651 13.9131 7.43722 14.0623 7.43722C14.2116 7.43722 14.3547 7.49651 14.4603 7.60206L15.1873 8.3298V8.00003C15.188 6.68985 14.7727 5.41328 14.0014 4.35422C13.23 3.29516 12.1424 2.50828 10.8952 2.10694C9.64803 1.70559 8.30563 1.7105 7.0614 2.12096C5.81718 2.53141 4.73535 3.32622 3.97178 4.39089C3.88469 4.5121 3.75302 4.59376 3.60573 4.61789C3.45844 4.64202 3.3076 4.60665 3.18639 4.51956C3.06517 4.43248 2.98352 4.30081 2.95939 4.15352C2.93526 4.00623 2.97063 3.85538 3.05772 3.73417C3.96017 2.47594 5.23873 1.53666 6.7092 1.05162C8.17968 0.566587 9.76616 0.560844 11.2401 1.03522C12.7141 1.50959 13.9994 2.4396 14.9109 3.69126C15.8225 4.94292 16.3132 6.45163 16.3123 8.00003V8.3298L17.0394 7.60206C17.1449 7.49651 17.2881 7.43722 17.4373 7.43722C17.5866 7.43722 17.7297 7.49651 17.8353 7.60206C17.9408 7.70761 18.0001 7.85076 18.0001 8.00003C18.0001 8.1493 17.9408 8.29245 17.8353 8.398ZM14.9398 12.2652C14.0371 13.5225 12.7587 14.4609 11.2887 14.9454C9.81873 15.4298 8.23291 15.4354 6.75955 14.9612C5.28619 14.487 4.00129 13.5576 3.0898 12.3066C2.17832 11.0557 1.68726 9.54782 1.68732 8.00003V7.67027L0.960293 8.398C0.854745 8.50355 0.711592 8.56284 0.562325 8.56284C0.413057 8.56284 0.269904 8.50355 0.164356 8.398C0.0588079 8.29245 -0.000488281 8.1493 -0.000488281 8.00003C-0.000488281 7.85076 0.0588079 7.70761 0.164356 7.60206L1.85186 5.91456C1.9041 5.86226 1.96613 5.82077 2.03442 5.79247C2.10271 5.76416 2.1759 5.74959 2.24982 5.74959C2.32375 5.74959 2.39694 5.76416 2.46523 5.79247C2.53351 5.82077 2.59555 5.86226 2.64779 5.91456L4.33529 7.60206C4.44084 7.70761 4.50014 7.85076 4.50014 8.00003C4.50014 8.1493 4.44084 8.29245 4.33529 8.398C4.22975 8.50355 4.08659 8.56284 3.93732 8.56284C3.78806 8.56284 3.6449 8.50355 3.53936 8.398L2.81232 7.67027V8.00003C2.81099 9.5147 3.36769 10.9768 4.37607 12.107C5.00342 11.1979 5.88556 10.4946 6.91154 10.0855C6.36042 9.65142 5.95827 9.05639 5.761 8.38316C5.56373 7.70993 5.58116 6.99196 5.81086 6.32909C6.04056 5.66622 6.47112 5.0914 7.04265 4.68458C7.61418 4.27775 8.29829 4.05914 8.99983 4.05914C9.70136 4.05914 10.3855 4.27775 10.957 4.68458C11.5285 5.0914 11.9591 5.66622 12.1888 6.32909C12.4185 6.99196 12.4359 7.70993 12.2386 8.38316C12.0414 9.05639 11.6392 9.65142 11.0881 10.0855C12.115 10.4947 12.9978 11.1988 13.625 12.1091C13.7672 11.9494 13.9012 11.7825 14.0265 11.6092C14.1136 11.488 14.2452 11.4063 14.3925 11.3822C14.5398 11.358 14.6906 11.3934 14.8119 11.4805C14.9331 11.5676 15.0147 11.6993 15.0389 11.8465C15.063 11.9938 15.0276 12.1447 14.9405 12.2659L14.9398 12.2652ZM8.99983 9.68753C9.44483 9.68753 9.87985 9.55557 10.2499 9.30834C10.6199 9.0611 10.9083 8.7097 11.0786 8.29857C11.2489 7.88743 11.2934 7.43504 11.2066 6.99858C11.1198 6.56212 10.9055 6.16121 10.5908 5.84654C10.2761 5.53187 9.87524 5.31758 9.43878 5.23076C9.00232 5.14395 8.54992 5.1885 8.13879 5.3588C7.72765 5.5291 7.37625 5.81749 7.12902 6.1875C6.88178 6.55751 6.74982 6.99252 6.74982 7.43753C6.74982 8.03427 6.98688 8.60656 7.40883 9.02852C7.83079 9.45048 8.40309 9.68753 8.99983 9.68753ZM8.99983 14.1875C10.3726 14.1857 11.7061 13.7285 12.7911 12.8875C12.3842 12.251 11.8236 11.7273 11.161 11.3645C10.4984 11.0017 9.75521 10.8116 8.99983 10.8116C8.24444 10.8116 7.50121 11.0017 6.83864 11.3645C6.17608 11.7273 5.6155 12.251 5.20857 12.8875C6.29197 13.7315 7.62645 14.1891 8.99983 14.1875Z" fill="#4D4D4D"/>
</svg>
