<svg width="24" height="20" viewBox="0 0 24 20" fill="none" xmlns="http://www.w3.org/2000/svg">
<path d="M23.781 10.532L21.531 12.782C21.4614 12.8517 21.3787 12.907 21.2876 12.9448C21.1966 12.9825 21.099 13.0019 21.0004 13.0019C20.9019 13.0019 20.8043 12.9825 20.7132 12.9448C20.6222 12.907 20.5394 12.8517 20.4698 12.782L18.2198 10.532C18.0791 10.3912 18 10.2004 18 10.0013C18 9.80232 18.0791 9.61145 18.2198 9.47072C18.3605 9.32999 18.5514 9.25093 18.7504 9.25093C18.9494 9.25093 19.1403 9.32999 19.281 9.47072L20.2504 10.441V10.0013C20.2513 8.25444 19.6976 6.55234 18.6691 5.14027C17.6407 3.72819 16.1905 2.67901 14.5276 2.14389C12.8647 1.60876 11.0748 1.6153 9.41586 2.16258C7.75689 2.70985 6.31446 3.76959 5.29635 5.18916C5.18024 5.35077 5.00468 5.45964 4.80829 5.49182C4.61191 5.52399 4.41078 5.47683 4.24917 5.36072C4.08755 5.2446 3.97868 5.06904 3.94651 4.87266C3.91433 4.67627 3.96149 4.47515 4.0776 4.31353C5.28087 2.63589 6.98562 1.38351 8.94625 0.736798C10.9069 0.0900849 13.0222 0.0824271 14.9875 0.714928C16.9527 1.34743 18.6665 2.58744 19.8819 4.25632C21.0973 5.9252 21.7515 7.9368 21.7504 10.0013V10.441L22.7198 9.47072C22.8605 9.32999 23.0514 9.25093 23.2504 9.25093C23.4494 9.25093 23.6403 9.32999 23.781 9.47072C23.9218 9.61145 24.0008 9.80232 24.0008 10.0013C24.0008 10.2004 23.9218 10.3912 23.781 10.532ZM19.9204 15.6882C18.7168 17.3646 17.0123 18.6158 15.0523 19.2618C13.0923 19.9078 10.9779 19.9151 9.01338 19.2829C7.04891 18.6507 5.3357 17.4114 4.12039 15.7435C2.90507 14.0756 2.25033 12.0651 2.25042 10.0013V9.56166L1.28104 10.532C1.14031 10.6727 0.94944 10.7518 0.750417 10.7518C0.551394 10.7518 0.360523 10.6727 0.219792 10.532C0.0790615 10.3912 0 10.2004 0 10.0013C0 9.80232 0.0790615 9.61145 0.219792 9.47072L2.46979 7.22072C2.53945 7.15099 2.62216 7.09567 2.71321 7.05792C2.80426 7.02018 2.90186 7.00075 3.00042 7.00075C3.09898 7.00075 3.19657 7.02018 3.28762 7.05792C3.37867 7.09567 3.46139 7.15099 3.53104 7.22072L5.78104 9.47072C5.92177 9.61145 6.00083 9.80232 6.00083 10.0013C6.00083 10.2004 5.92177 10.3912 5.78104 10.532C5.64031 10.6727 5.44944 10.7518 5.25042 10.7518C5.05139 10.7518 4.86052 10.6727 4.71979 10.532L3.75042 9.56166V10.0013C3.74864 12.0209 4.4909 13.9703 5.83542 15.4773C6.67188 14.2652 7.84806 13.3274 9.21604 12.782C8.48121 12.2032 7.94501 11.4098 7.68198 10.5122C7.41896 9.61454 7.4422 8.65724 7.74847 7.77342C8.05473 6.88959 8.62881 6.12317 9.39085 5.58074C10.1529 5.03831 11.065 4.74682 12.0004 4.74682C12.9358 4.74682 13.8479 5.03831 14.61 5.58074C15.372 6.12317 15.9461 6.88959 16.2524 7.77342C16.5586 8.65724 16.5819 9.61454 16.3188 10.5122C16.0558 11.4098 15.5196 12.2032 14.7848 12.782C16.154 13.3275 17.331 14.2664 18.1673 15.4801C18.3569 15.2671 18.5356 15.0447 18.7026 14.8135C18.8187 14.6519 18.9943 14.543 19.1907 14.5109C19.3871 14.4787 19.5882 14.5259 19.7498 14.642C19.9114 14.7581 20.0203 14.9336 20.0525 15.13C20.0846 15.3264 20.0375 15.5275 19.9214 15.6892L19.9204 15.6882ZM12.0004 12.2513C12.5938 12.2513 13.1738 12.0754 13.6671 11.7458C14.1605 11.4161 14.545 10.9476 14.7721 10.3994C14.9991 9.85122 15.0585 9.24802 14.9428 8.66607C14.827 8.08413 14.5413 7.54958 14.1217 7.13002C13.7022 6.71047 13.1676 6.42474 12.5857 6.30899C12.0037 6.19323 11.4005 6.25264 10.8524 6.4797C10.3042 6.70677 9.83565 7.09129 9.50601 7.58463C9.17636 8.07798 9.00042 8.658 9.00042 9.25134C9.00042 10.047 9.31649 10.8101 9.8791 11.3727C10.4417 11.9353 11.2048 12.2513 12.0004 12.2513ZM12.0004 18.2513C13.8308 18.249 15.6087 17.6393 17.0554 16.5179C16.5129 15.6694 15.7654 14.971 14.882 14.4873C13.9986 14.0036 13.0076 13.7501 12.0004 13.7501C10.9932 13.7501 10.0023 14.0036 9.11884 14.4873C8.23542 14.971 7.48798 15.6694 6.94542 16.5179C8.38994 17.6433 10.1693 18.2535 12.0004 18.2513Z" fill="#3f51b5"/>
</svg>
