<svg width="26" height="24" viewBox="0 0 26 24" fill="none" xmlns="http://www.w3.org/2000/svg">
<ellipse cx="13.0376" cy="12" rx="12.1835" ry="12" fill="#F3C11B" fill-opacity="0.15"/>
<g clip-path="url(#clip0_1955_42217)">
<path d="M19.872 12.3097L18.5595 13.6222C18.5189 13.6628 18.4706 13.6951 18.4175 13.7171C18.3644 13.7391 18.3075 13.7505 18.25 13.7505C18.1925 13.7505 18.1356 13.7391 18.0825 13.7171C18.0294 13.6951 17.9811 13.6628 17.9405 13.6222L16.628 12.3097C16.5459 12.2276 16.4998 12.1162 16.4998 12.0001C16.4998 11.884 16.5459 11.7727 16.628 11.6906C16.7101 11.6085 16.8214 11.5624 16.9375 11.5624C17.0536 11.5624 17.1649 11.6085 17.247 11.6906L17.8125 12.2566V12.0001C17.813 10.9811 17.49 9.98822 16.8901 9.1645C16.2902 8.34079 15.4442 7.72877 14.4742 7.41662C13.5042 7.10446 12.4601 7.10828 11.4923 7.42752C10.5246 7.74676 9.68319 8.36495 9.0893 9.19302C9.02156 9.2873 8.91915 9.35081 8.80459 9.36958C8.69003 9.38834 8.57271 9.36084 8.47844 9.2931C8.38416 9.22537 8.32065 9.12296 8.30188 9.0084C8.28312 8.89384 8.31062 8.77652 8.37836 8.68224C9.08027 7.70362 10.0747 6.97306 11.2184 6.59581C12.3621 6.21857 13.596 6.2141 14.7424 6.58306C15.8888 6.95202 16.8885 7.67535 17.5975 8.64887C18.3065 9.62238 18.6881 10.7958 18.6875 12.0001V12.2566L19.253 11.6906C19.3351 11.6085 19.4464 11.5624 19.5625 11.5624C19.6786 11.5624 19.7899 11.6085 19.872 11.6906C19.9541 11.7727 20.0002 11.884 20.0002 12.0001C20.0002 12.1162 19.9541 12.2276 19.872 12.3097ZM17.62 15.3175C16.9179 16.2954 15.9236 17.0252 14.7803 17.4021C13.6369 17.7789 12.4035 17.7832 11.2576 17.4144C10.1116 17.0456 9.11225 16.3227 8.40332 15.3497C7.69438 14.3768 7.31245 13.204 7.3125 12.0001V11.7436L6.74703 12.3097C6.66494 12.3918 6.5536 12.4379 6.4375 12.4379C6.3214 12.4379 6.21006 12.3918 6.12797 12.3097C6.04588 12.2276 5.99976 12.1162 5.99976 12.0001C5.99976 11.884 6.04588 11.7727 6.12797 11.6906L7.44047 10.3781C7.4811 10.3374 7.52935 10.3052 7.58246 10.2831C7.63557 10.2611 7.6925 10.2498 7.75 10.2498C7.80749 10.2498 7.86442 10.2611 7.91754 10.2831C7.97065 10.3052 8.0189 10.3374 8.05953 10.3781L9.37203 11.6906C9.45412 11.7727 9.50024 11.884 9.50024 12.0001C9.50024 12.1162 9.45412 12.2276 9.37203 12.3097C9.28994 12.3918 9.1786 12.4379 9.0625 12.4379C8.9464 12.4379 8.83506 12.3918 8.75297 12.3097L8.1875 11.7436V12.0001C8.18646 13.1782 8.61945 14.3154 9.40375 15.1944C9.89169 14.4874 10.5778 13.9403 11.3758 13.6222C10.9471 13.2845 10.6343 12.8217 10.4809 12.2981C10.3275 11.7745 10.341 11.2161 10.5197 10.7005C10.6984 10.1849 11.0332 9.73787 11.4778 9.42145C11.9223 9.10503 12.4544 8.935 13 8.935C13.5456 8.935 14.0777 9.10503 14.5222 9.42145C14.9668 9.73787 15.3016 10.1849 15.4803 10.7005C15.659 11.2161 15.6725 11.7745 15.5191 12.2981C15.3657 12.8217 15.0529 13.2845 14.6242 13.6222C15.4229 13.9404 16.1095 14.4881 16.5973 15.1961C16.708 15.0718 16.8122 14.9421 16.9096 14.8072C16.9773 14.713 17.0798 14.6495 17.1943 14.6307C17.3089 14.6119 17.4262 14.6394 17.5205 14.7072C17.6147 14.7749 17.6783 14.8773 17.697 14.9919C17.7158 15.1064 17.6883 15.2237 17.6205 15.318L17.62 15.3175ZM13 13.3126C13.3461 13.3126 13.6845 13.21 13.9722 13.0177C14.26 12.8254 14.4843 12.5521 14.6168 12.2323C14.7492 11.9126 14.7839 11.5607 14.7164 11.2212C14.6488 10.8818 14.4822 10.5699 14.2374 10.3252C13.9927 10.0805 13.6809 9.91378 13.3414 9.84626C13.0019 9.77873 12.6501 9.81339 12.3303 9.94584C12.0105 10.0783 11.7372 10.3026 11.5449 10.5904C11.3526 10.8782 11.25 11.2165 11.25 11.5626C11.25 12.0268 11.4344 12.4719 11.7626 12.8001C12.0908 13.1283 12.5359 13.3126 13 13.3126ZM13 16.8126C14.0677 16.8112 15.1048 16.4556 15.9487 15.8015C15.6323 15.3065 15.1962 14.8991 14.6809 14.617C14.1656 14.3348 13.5875 14.1869 13 14.1869C12.4125 14.1869 11.8344 14.3348 11.3191 14.617C10.8038 14.8991 10.3677 15.3065 10.0512 15.8015C10.8939 16.4579 11.9318 16.8139 13 16.8126Z" fill="#F3C11B"/>
</g>
<defs>
<clipPath id="clip0_1955_42217">
<rect width="14" height="14" fill="white" transform="translate(6 5)"/>
</clipPath>
</defs>
</svg>
