<svg width="16" height="16" viewBox="0 0 16 16" fill="none" xmlns="http://www.w3.org/2000/svg">
<path d="M8.0004 4.62515C7.33289 4.62515 6.68036 4.82309 6.12535 5.19394C5.57033 5.56479 5.13775 6.0919 4.88231 6.7086C4.62686 7.3253 4.56002 8.0039 4.69025 8.65858C4.82047 9.31327 5.14191 9.91464 5.61391 10.3866C6.08592 10.8586 6.68728 11.1801 7.34197 11.3103C7.99665 11.4405 8.67525 11.3737 9.29195 11.1182C9.90866 10.8628 10.4358 10.4302 10.8066 9.8752C11.1775 9.32019 11.3754 8.66767 11.3754 8.00015C11.3745 7.10533 11.0186 6.24743 10.3859 5.6147C9.75312 4.98196 8.89522 4.62608 8.0004 4.62515ZM8.0004 10.2502C7.55539 10.2502 7.12038 10.1182 6.75037 9.87096C6.38035 9.62373 6.09197 9.27233 5.92167 8.86119C5.75137 8.45006 5.70681 7.99766 5.79363 7.5612C5.88045 7.12474 6.09474 6.72383 6.40941 6.40916C6.72408 6.0945 7.12499 5.8802 7.56145 5.79339C7.9979 5.70657 8.4503 5.75113 8.86144 5.92142C9.27257 6.09172 9.62397 6.38011 9.8712 6.75012C10.1184 7.12013 10.2504 7.55515 10.2504 8.00015C10.2504 8.59689 10.0133 9.16919 9.59139 9.59114C9.16943 10.0131 8.59714 10.2502 8.0004 10.2502ZM14.1879 8.15203C14.1907 8.05078 14.1907 7.94953 14.1879 7.84828L15.237 6.53765C15.292 6.46884 15.33 6.38807 15.3481 6.30185C15.3662 6.21562 15.3638 6.12636 15.341 6.04125C15.169 5.3948 14.9118 4.77411 14.576 4.19554C14.5321 4.11983 14.471 4.05542 14.3978 4.00745C14.3245 3.95948 14.2411 3.92927 14.1541 3.91922L12.4863 3.73359C12.417 3.66047 12.3466 3.59015 12.2754 3.52265L12.0785 1.85062C12.0684 1.76358 12.0381 1.68012 11.99 1.60687C11.9419 1.53363 11.8773 1.47263 11.8015 1.42875C11.2227 1.0936 10.6021 0.8366 9.95579 0.664451C9.87062 0.641808 9.78133 0.639492 9.6951 0.65769C9.60888 0.675888 9.52814 0.71409 9.45938 0.769217L8.15227 1.81265C8.05102 1.81265 7.94977 1.81265 7.84852 1.81265L6.5379 0.765701C6.46908 0.710694 6.38831 0.67262 6.30209 0.654545C6.21587 0.63647 6.1266 0.6389 6.04149 0.661638C5.39514 0.833923 4.7745 1.09117 4.19579 1.42664C4.12007 1.4706 4.05567 1.53163 4.0077 1.60487C3.95972 1.67811 3.92951 1.76154 3.91946 1.84851L3.73384 3.51914C3.66071 3.58898 3.5904 3.65929 3.5229 3.73008L1.85087 3.92203C1.76383 3.93216 1.68036 3.96248 1.60711 4.01057C1.53387 4.05867 1.47287 4.12322 1.42899 4.19906C1.09385 4.77785 0.836844 5.39848 0.664695 6.04476C0.642052 6.12993 0.639737 6.21922 0.657934 6.30545C0.676132 6.39167 0.714334 6.47242 0.769461 6.54117L1.8129 7.84828C1.8129 7.94953 1.8129 8.05078 1.8129 8.15203L0.765945 9.46265C0.710939 9.53147 0.672864 9.61224 0.654789 9.69846C0.636714 9.78469 0.639144 9.87395 0.661883 9.95906C0.83386 10.6055 1.09112 11.2262 1.42688 11.8048C1.47085 11.8805 1.53188 11.9449 1.60512 11.9929C1.67836 12.0408 1.76178 12.071 1.84876 12.0811L3.51657 12.2667C3.58641 12.3398 3.65673 12.4102 3.72751 12.4777L3.92227 14.1497C3.9324 14.2367 3.96272 14.3202 4.01082 14.3934C4.05891 14.4667 4.12346 14.5277 4.1993 14.5716C4.77809 14.9067 5.39872 15.1637 6.04501 15.3359C6.13017 15.3585 6.21947 15.3608 6.30569 15.3426C6.39192 15.3244 6.47266 15.2862 6.54141 15.2311L7.84852 14.1877C7.94977 14.1905 8.05102 14.1905 8.15227 14.1877L9.4629 15.2367C9.53171 15.2917 9.61248 15.3298 9.69871 15.3479C9.78493 15.3659 9.87419 15.3635 9.9593 15.3408C10.6058 15.1688 11.2264 14.9115 11.805 14.5758C11.8807 14.5318 11.9451 14.4708 11.9931 14.3975C12.0411 14.3243 12.0713 14.2409 12.0813 14.1539L12.267 12.4861C12.3401 12.4167 12.4104 12.3464 12.4779 12.2752L14.1499 12.0783C14.237 12.0682 14.3204 12.0378 14.3937 11.9897C14.4669 11.9416 14.5279 11.8771 14.5718 11.8012C14.907 11.2225 15.164 10.6018 15.3361 9.95554C15.3587 9.87038 15.3611 9.78109 15.3429 9.69486C15.3247 9.60863 15.2865 9.52789 15.2313 9.45914L14.1879 8.15203ZM13.0559 7.695C13.0678 7.89826 13.0678 8.10205 13.0559 8.30531C13.0475 8.44447 13.0911 8.58179 13.1782 8.69062L14.1759 9.93726C14.0615 10.3011 13.9149 10.6541 13.7379 10.992L12.1488 11.172C12.0105 11.1873 11.8827 11.2535 11.7902 11.3576C11.6549 11.5098 11.5107 11.6539 11.3585 11.7893C11.2544 11.8817 11.1883 12.0095 11.1729 12.1479L10.9964 13.7355C10.6586 13.9126 10.3056 14.0592 9.94173 14.1736L8.69438 13.1759C8.59457 13.0961 8.47058 13.0527 8.34282 13.0528H8.30907C8.10581 13.0648 7.90202 13.0648 7.69876 13.0528C7.5596 13.0444 7.42228 13.088 7.31345 13.1752L6.06329 14.1736C5.69944 14.0591 5.34649 13.9125 5.0086 13.7355L4.8286 12.1486C4.81324 12.0102 4.7471 11.8824 4.64298 11.79C4.49076 11.6547 4.3466 11.5105 4.21126 11.3583C4.11882 11.2542 3.99105 11.188 3.85266 11.1727L2.26501 10.9955C2.08796 10.6576 1.94136 10.3047 1.82696 9.94078L2.8247 8.69344C2.91182 8.5846 2.95542 8.44728 2.94704 8.30812C2.93509 8.10486 2.93509 7.90107 2.94704 7.69781C2.95542 7.55865 2.91182 7.42134 2.8247 7.3125L1.82696 6.06304C1.94145 5.6992 2.08804 5.34625 2.26501 5.00836L3.85196 4.82836C3.99035 4.813 4.11812 4.74686 4.21055 4.64273C4.3459 4.49051 4.49005 4.34636 4.64227 4.21101C4.74681 4.11852 4.81322 3.99045 4.8286 3.85172L5.00509 2.26476C5.34294 2.08771 5.6959 1.94112 6.05977 1.82672L7.30712 2.82445C7.41596 2.91157 7.55327 2.95517 7.69243 2.94679C7.89569 2.93484 8.09948 2.93484 8.30274 2.94679C8.4419 2.95517 8.57922 2.91157 8.68806 2.82445L9.93751 1.82672C10.3014 1.9412 10.6543 2.0878 10.9922 2.26476L11.1722 3.85172C11.1876 3.9901 11.2537 4.11787 11.3578 4.21031C11.51 4.34566 11.6542 4.48981 11.7895 4.64203C11.882 4.74615 12.0097 4.81229 12.1481 4.82765L13.7358 5.00414C13.9128 5.34199 14.0594 5.69495 14.1738 6.05883L13.1761 7.30617C13.0881 7.41592 13.0445 7.55465 13.0538 7.695H13.0559Z" fill="#4D4D4D"/>
</svg>
