<svg width="185" height="147" viewBox="0 0 185 147" fill="none" xmlns="http://www.w3.org/2000/svg">
<path d="M27.0084 132.891C63.0196 151.703 121.409 151.703 157.42 132.891C193.431 114.078 193.431 83.5762 157.42 64.7594C121.409 45.9427 63.036 45.9468 27.0084 64.7594C-9.01926 83.572 -8.98632 114.078 27.0084 132.891Z" fill="#F5F5F5"/>
<path d="M16.9701 102.039L5.26416 95.282V70.1738L16.9701 76.9347V102.039Z" fill="#E0E0E0"/>
<path d="M16.9701 76.9347L33.6951 67.2793V92.3834L16.9701 102.039V76.9347Z" fill="#EBEBEB"/>
<path d="M33.6951 67.2789L16.9701 76.9343L5.26416 70.1735L21.9892 60.5181L33.6951 67.2789Z" fill="#F5F5F5"/>
<path d="M18.6459 77.8982L32.0234 70.1738L32.3322 70.3509V79.6522L18.9505 87.3765L18.6417 87.1995L18.6459 77.8982Z" fill="#E0E0E0"/>
<path d="M18.9506 78.079L32.3323 70.3506V79.6519L18.9506 87.3762V78.079Z" fill="#F5F5F5"/>
<path d="M24.1962 76.6257L26.4731 75.3122C26.7655 75.1393 27.0043 75.2175 27.0043 75.4851C26.9831 75.6491 26.924 75.8058 26.8319 75.943C26.7397 76.0802 26.6169 76.1941 26.4731 76.2757L24.1962 77.5892C23.8997 77.7621 23.6609 77.6839 23.6609 77.4162C23.6823 77.2518 23.7418 77.0947 23.8347 76.9574C23.9277 76.8202 24.0515 76.7065 24.1962 76.6257Z" fill="#E0E0E0"/>
<path d="M18.337 89.6657L31.7146 81.9414V91.2427L32.0234 91.4198L18.6417 99.1441L18.337 98.967V89.6657Z" fill="#E0E0E0"/>
<path d="M18.6417 89.8425L32.0234 82.1182V91.4195L18.6417 99.1438V89.8425Z" fill="#F5F5F5"/>
<path d="M23.8874 88.3935L26.1849 87.0842C26.4813 86.9112 26.7202 86.9895 26.7202 87.2571C26.6988 87.4215 26.6393 87.5786 26.5463 87.7159C26.4534 87.8532 26.3296 87.9668 26.1849 88.0477L23.9079 89.3611C23.6115 89.5341 23.3727 89.4558 23.3727 89.1882C23.3912 89.025 23.4473 88.8682 23.5366 88.7304C23.6259 88.5925 23.746 88.4772 23.8874 88.3935Z" fill="#E0E0E0"/>
<path d="M16.9701 75.485L5.26416 68.7242V43.6201L16.9701 50.3768V75.485Z" fill="#E0E0E0"/>
<path d="M16.9701 50.3771L33.6951 40.7217V65.8299L16.9701 75.4853V50.3771Z" fill="#EBEBEB"/>
<path d="M33.6951 40.7216L16.9701 50.377L5.26416 43.6203L21.9892 33.9648L33.6951 40.7216Z" fill="#F5F5F5"/>
<path d="M18.6417 51.3444L32.0234 43.6201L32.3322 43.7972V53.0985L18.9505 60.8228L18.6417 60.6416V51.3444Z" fill="#E0E0E0"/>
<path d="M24.1962 50.0684L26.469 48.755C26.7655 48.5862 27.0043 48.6644 27.0043 48.932C26.9823 49.0962 26.9225 49.2531 26.8296 49.3903C26.7368 49.5275 26.6133 49.6412 26.469 49.7226L24.1962 51.036C23.8997 51.2049 23.6609 51.1307 23.6609 50.8631C23.6826 50.6983 23.7422 50.5407 23.8351 50.4028C23.928 50.2649 24.0516 50.1505 24.1962 50.0684Z" fill="#E0E0E0"/>
<path d="M18.337 63.1125L31.7146 55.3882V64.6854L32.0234 64.8624L18.6417 72.5867L18.337 72.4097V63.1125Z" fill="#E0E0E0"/>
<path d="M18.6417 63.2893L32.0234 55.5649V64.8621L18.6417 72.5865V63.2893Z" fill="#F5F5F5"/>
<path d="M23.8874 61.836L26.1849 60.5226C26.4772 60.3537 26.7202 60.432 26.7202 60.6996C26.697 60.8634 26.6367 61.0198 26.544 61.1568C26.4512 61.2938 26.3284 61.4078 26.1849 61.4902L23.8874 62.7913C23.5909 62.9601 23.3521 62.8819 23.3521 62.6183C23.3756 62.4557 23.436 62.3006 23.5288 62.165C23.6216 62.0294 23.7443 61.9168 23.8874 61.836Z" fill="#E0E0E0"/>
<path d="M18.6417 51.3444L32.0234 43.6201V52.9173L18.6417 60.6416V51.3444Z" fill="#E0E0E0"/>
<path d="M38.7143 48.2154L31.3893 43.9868V52.1805L38.7143 56.405V48.2154Z" fill="#E0E0E0"/>
<path d="M23.6609 61.9678V50.3772L26.5308 48.7138L27.0043 49.4137L35.3668 44.584V55.207L23.6609 61.9678Z" fill="#EBEBEB"/>
<path d="M23.6609 61.9678L24.4968 51.8265L36.2026 45.0698L35.3668 55.207L23.6609 61.9678Z" fill="#F5F5F5"/>
<path d="M25.3326 55.9395L18.9506 52.2544V60.4481L25.3326 64.1291V55.9395Z" fill="#EBEBEB"/>
<path d="M25.3326 55.2067L38.7143 47.4824V56.7796L25.3326 64.5039V55.2067Z" fill="#F5F5F5"/>
<path d="M30.5782 53.7535L32.851 52.44C33.1475 52.2712 33.3863 52.3495 33.3863 52.6171C33.364 52.7812 33.3041 52.9379 33.2113 53.0751C33.1184 53.2122 32.9951 53.326 32.851 53.4076L30.5782 54.7211C30.2817 54.8899 30.0429 54.8117 30.0429 54.5482C30.0646 54.3833 30.1242 54.2258 30.2171 54.0879C30.31 53.95 30.4336 53.8355 30.5782 53.7535Z" fill="#E0E0E0"/>
<path d="M25.3326 55.2069L24.8879 54.9517V64.2488L25.3326 64.5041V55.2069Z" fill="#E0E0E0"/>
<path d="M24.8879 54.9516L38.2655 47.2231L38.7143 47.4825L25.3326 55.2069L24.8879 54.9516Z" fill="#EBEBEB"/>
<path d="M155.267 86.8288L143.557 80.0679V54.9639L155.267 61.7206V86.8288Z" fill="#E0E0E0"/>
<path d="M155.267 61.7203L171.992 52.0649V77.1731L155.267 86.8285V61.7203Z" fill="#EBEBEB"/>
<path d="M171.992 52.065L155.267 61.7204L143.557 54.9637L160.286 45.3042L171.992 52.065Z" fill="#F5F5F5"/>
<path d="M156.938 62.6882L170.32 54.9639L170.629 55.1409L170.625 64.4381L157.247 72.1624L156.938 71.9854V62.6882Z" fill="#E0E0E0"/>
<path d="M157.247 62.8649L170.629 55.1406L170.625 64.4378L157.247 72.1621V62.8649Z" fill="#F5F5F5"/>
<path d="M162.493 61.4119L164.766 60.0984C165.062 59.9296 165.301 60.0078 165.301 60.2714C165.279 60.4362 165.22 60.5938 165.127 60.7316C165.034 60.8695 164.91 60.984 164.766 61.066L162.493 62.3795C162.196 62.5483 161.958 62.4701 161.958 62.2066C161.979 62.0417 162.039 61.8842 162.132 61.7463C162.225 61.6084 162.348 61.4939 162.493 61.4119Z" fill="#E0E0E0"/>
<path d="M156.63 74.456L170.011 66.7275V76.0288L170.32 76.2059L156.938 83.9302L156.63 83.7532V74.456Z" fill="#E0E0E0"/>
<path d="M156.938 74.633L170.32 66.9087V76.2059L156.938 83.9302V74.633Z" fill="#F5F5F5"/>
<path d="M162.184 73.1795L164.461 71.866C164.753 71.6972 164.992 71.7754 164.992 72.0389C164.97 72.2032 164.911 72.3603 164.819 72.498C164.727 72.6358 164.604 72.7506 164.461 72.8336L162.184 74.1471C161.888 74.3159 161.649 74.2377 161.649 73.97C161.671 73.8059 161.731 73.6492 161.824 73.512C161.917 73.3749 162.04 73.2611 162.184 73.1795Z" fill="#E0E0E0"/>
<path d="M43.8899 113.069C43.8899 113.069 43.9352 106.539 39.8178 101.644C36.1738 97.3078 34.2345 94.5574 35.3833 93.2892C36.532 92.021 39.0025 91.7163 42.3335 95.2244C45.6645 98.7325 45.9239 108.45 45.4628 110.648L43.8899 113.069Z" fill="#3f51b5"/>
<path opacity="0.2" d="M43.8899 113.069C43.8899 113.069 43.9352 106.539 39.8178 101.644C36.1738 97.3078 34.2345 94.5574 35.3833 93.2892C36.532 92.021 39.0025 91.7163 42.3335 95.2244C45.6645 98.7325 45.9239 108.45 45.4628 110.648L43.8899 113.069Z" fill="black"/>
<path d="M44.5816 106.049C44.5348 106.05 44.4892 106.034 44.4525 106.005C44.4158 105.975 44.3902 105.935 44.3799 105.889C42.9388 99.1485 39.2413 95.4222 37.162 93.7999C37.119 93.7666 37.0909 93.7175 37.0839 93.6635C37.077 93.6095 37.0917 93.5549 37.125 93.5117C37.1591 93.4684 37.2088 93.4402 37.2635 93.4333C37.3182 93.4264 37.3735 93.4412 37.4173 93.4747C39.5378 95.1216 43.3135 98.9344 44.7834 105.802C44.7894 105.829 44.7902 105.856 44.7855 105.882C44.7809 105.909 44.771 105.934 44.7564 105.957C44.7418 105.979 44.7228 105.999 44.7006 106.014C44.6784 106.029 44.6533 106.04 44.6269 106.045L44.5816 106.049Z" fill="white"/>
<path d="M43.7334 115.495L42.0577 116.462C41.8789 115.974 41.5774 115.54 41.1822 115.201C40.7871 114.863 40.3115 114.632 39.8013 114.531C37.969 114.119 36.0668 114.189 34.7821 112.6C33.4975 111.011 35.0621 109.281 34.7821 108.112C34.5021 106.943 34.321 106.605 32.0234 105.436C29.7259 104.266 28.8201 102.327 30.5494 101.014C32.2787 99.7002 35.0786 100.664 36.775 101.837C38.282 102.867 39.7148 103.138 41.3989 103.348C43.0829 103.558 45.8251 104.493 45.4051 108.404C45.1301 110.826 44.569 113.206 43.7334 115.495Z" fill="#3f51b5"/>
<path d="M37.302 110.356C37.2581 110.356 37.2155 110.342 37.18 110.316C37.1446 110.29 37.1181 110.254 37.1044 110.212C37.0888 110.16 37.0942 110.103 37.1196 110.055C37.145 110.007 37.1883 109.97 37.2402 109.953C37.3885 109.908 40.9459 108.779 42.457 109.99C42.4945 110.025 42.5174 110.074 42.5211 110.125C42.5248 110.176 42.509 110.227 42.4769 110.268C42.4448 110.308 42.3987 110.335 42.3478 110.343C42.2968 110.351 42.2447 110.34 42.2018 110.311C40.8677 109.241 37.4008 110.336 37.3638 110.348L37.302 110.356Z" fill="white"/>
<path d="M43.9188 115.182C43.8686 115.182 43.8202 115.164 43.7829 115.13C43.7456 115.097 43.7221 115.051 43.717 115.001C42.7988 106.33 32.3529 102.216 32.2499 102.175C32.2244 102.165 32.201 102.151 32.1812 102.132C32.1613 102.114 32.1454 102.091 32.1343 102.066C32.1232 102.041 32.1171 102.014 32.1165 101.987C32.1158 101.96 32.1206 101.933 32.1305 101.907C32.1508 101.858 32.1894 101.817 32.2384 101.795C32.2875 101.773 32.3432 101.77 32.394 101.788C32.5052 101.833 43.1817 106.033 44.1246 114.964C44.1304 115.018 44.1146 115.072 44.0807 115.114C44.0468 115.157 43.9974 115.184 43.9435 115.19L43.9188 115.182Z" fill="white"/>
<path d="M146.332 109.8C146.377 109.656 148.144 100.565 146.332 94.1169C144.685 88.2043 142.536 86.022 139.472 85.5403C136.409 85.0586 135.079 87.2655 136.705 90.2548C138.332 93.244 142.247 97.2091 143.207 103.888C143.619 106.638 143.931 109.026 143.931 109.026L146.332 109.8Z" fill="#3f51b5"/>
<path opacity="0.2" d="M146.332 109.8C146.377 109.656 148.144 100.565 146.332 94.1169C144.685 88.2043 142.536 86.022 139.472 85.5403C136.409 85.0586 135.079 87.2655 136.705 90.2548C138.332 93.244 142.247 97.2091 143.207 103.888C143.619 106.638 143.931 109.026 143.931 109.026L146.332 109.8Z" fill="black"/>
<path d="M145.298 104.579C145.271 104.577 145.245 104.571 145.221 104.559C145.196 104.547 145.174 104.53 145.156 104.51C145.138 104.49 145.125 104.466 145.116 104.441C145.107 104.415 145.103 104.388 145.105 104.361C145.517 96.9989 143.112 90.4274 138.801 87.2035C138.757 87.1707 138.729 87.1219 138.721 87.0679C138.713 87.0138 138.727 86.9589 138.76 86.9152C138.793 86.8724 138.842 86.8443 138.896 86.8366C138.949 86.8289 139.004 86.8423 139.048 86.8741C143.466 90.168 145.945 96.8877 145.513 104.386C145.509 104.439 145.485 104.49 145.445 104.526C145.405 104.562 145.352 104.581 145.298 104.579Z" fill="white"/>
<path d="M151.071 114.535C150.836 112.843 151.808 110.307 154.118 109.706C156.428 109.104 157.457 107.779 156.626 106.329C155.794 104.88 155.987 103.55 158.083 102.949C160.179 102.348 162.015 101.302 160.809 99.0866C159.932 97.4849 159.738 96.4473 161.888 93.2934C163.671 90.6747 162.213 89.1389 159.981 89.4271C157.75 89.7153 156.37 92.3752 154.974 92.8199C153.579 93.2646 153.258 90.8929 151.417 91.9552C149.577 93.0175 149.688 95.7392 149.63 97.6373C149.572 99.5354 149.449 99.9637 147.785 99.7331C146.122 99.5025 144.491 99.7742 144.529 103.797C144.557 107.247 146.398 111.521 146.398 111.521L151.071 114.535Z" fill="#3f51b5"/>
<path d="M148.152 111.962H148.131C148.076 111.956 148.026 111.928 147.991 111.885C147.956 111.842 147.94 111.787 147.946 111.731C149.107 101.36 158.009 92.61 160.331 90.8354C160.375 90.8021 160.43 90.7875 160.485 90.7948C160.539 90.8022 160.588 90.8308 160.622 90.8745C160.655 90.9182 160.669 90.9733 160.662 91.0278C160.655 91.0822 160.626 91.1315 160.582 91.1648C158.289 92.9147 149.502 101.549 148.358 111.777C148.352 111.827 148.328 111.874 148.29 111.908C148.252 111.942 148.203 111.961 148.152 111.962Z" fill="white"/>
<path d="M152.212 100.874C152.17 100.874 152.129 100.861 152.095 100.837C152.06 100.814 152.034 100.781 152.018 100.742C152.001 100.69 152.004 100.633 152.027 100.584C152.049 100.534 152.091 100.495 152.142 100.474C155.46 99.2393 159.224 99.8239 159.384 99.8486C159.438 99.8577 159.485 99.8875 159.517 99.9314C159.548 99.9753 159.561 100.03 159.553 100.083C159.543 100.136 159.513 100.184 159.47 100.216C159.426 100.248 159.372 100.262 159.318 100.256C159.281 100.256 155.502 99.6634 152.286 100.862C152.262 100.87 152.237 100.874 152.212 100.874Z" fill="white"/>
<path d="M149.255 107.107C149.226 107.107 149.198 107.101 149.172 107.089C149.145 107.077 149.122 107.059 149.103 107.037C147.723 105.43 146.787 103.49 146.39 101.409C146.385 101.382 146.387 101.355 146.393 101.329C146.4 101.302 146.411 101.278 146.427 101.256C146.443 101.234 146.464 101.215 146.487 101.202C146.51 101.188 146.536 101.178 146.563 101.174C146.589 101.17 146.617 101.171 146.643 101.178C146.669 101.184 146.694 101.196 146.716 101.212C146.738 101.228 146.756 101.248 146.77 101.271C146.784 101.295 146.793 101.32 146.797 101.347C147.191 103.346 148.091 105.21 149.412 106.762C149.438 106.792 149.454 106.829 149.46 106.868C149.465 106.908 149.459 106.948 149.443 106.984C149.427 107.02 149.4 107.051 149.367 107.073C149.334 107.095 149.295 107.107 149.255 107.107Z" fill="white"/>
<path d="M43.7335 51.7692V115.499L108.962 77.8409L108.958 19.9043L60.4585 47.907L58.7827 43.0773L43.7335 51.7692Z" fill="#3f51b5"/>
<path opacity="0.7" d="M43.7335 51.7692V115.499L108.962 77.8409L108.958 19.9043L60.4585 47.907L58.7827 43.0773L43.7335 51.7692Z" fill="black"/>
<path d="M43.7335 115.499L47.0768 57.5625L112.305 19.9043L108.962 77.8409L43.7335 115.499Z" fill="#E0E0E0"/>
<path d="M43.7335 115.499L48.7485 58.5299L113.977 20.8677L108.962 77.8408L43.7335 115.499Z" fill="#3f51b5"/>
<path opacity="0.7" d="M43.7335 115.499L48.7485 58.5299L113.977 20.8677L108.962 77.8408L43.7335 115.499Z" fill="black"/>
<path d="M53.7676 57.5617V121.296L118.996 83.6333V25.6968L70.4927 53.6995L68.821 48.8698L53.7676 57.5617Z" fill="#3f51b5"/>
<path opacity="0.5" d="M53.7676 57.5617V121.296L118.996 83.6333V25.6968L70.4927 53.6995L68.821 48.8698L53.7676 57.5617Z" fill="black"/>
<path d="M53.7676 121.296L57.111 63.3549L122.34 25.6968L118.996 83.6333L53.7676 121.296Z" fill="#E0E0E0"/>
<path d="M53.7676 121.296L58.7827 64.3224L124.011 26.6602L118.996 83.6332L53.7676 121.296Z" fill="#3f51b5"/>
<path opacity="0.5" d="M53.7676 121.296L58.7827 64.3224L124.011 26.6602L118.996 83.6332L53.7676 121.296Z" fill="black"/>
<path d="M108.946 141.574C97.2355 134.813 86.3737 127.464 81.4163 118.842L96.4862 110.142L108.946 141.574Z" fill="#E0E0E0"/>
<path d="M65.4736 64.3229V128.053L130.702 90.3946V32.458L82.1986 60.4607L80.527 55.631L65.4736 64.3229Z" fill="#3f51b5"/>
<path opacity="0.2" d="M65.4736 64.3229V128.053L130.702 90.3946V32.458L82.1986 60.4607L80.527 55.631L65.4736 64.3229Z" fill="black"/>
<path d="M84.2656 83.1642C84.1009 83.1642 84.0762 82.9748 84.0762 82.8636V28.5133C84.0894 28.3025 84.1513 28.0976 84.257 27.9147C84.3628 27.7318 84.5094 27.5759 84.6856 27.4593L131.764 0.284142C131.829 0.243929 131.903 0.22122 131.979 0.218262C132.143 0.218262 132.168 0.407666 132.168 0.518837V54.8691C132.155 55.0806 132.093 55.2862 131.988 55.4698C131.882 55.6534 131.735 55.81 131.559 55.9273L84.4797 83.1024C84.4146 83.1407 84.341 83.1619 84.2656 83.1642Z" fill="white"/>
<path d="M131.954 0.407692C131.957 0.437795 131.957 0.468174 131.954 0.498276V54.8485C131.94 55.0238 131.888 55.1939 131.8 55.3463C131.713 55.4988 131.592 55.6297 131.447 55.7297L84.3685 82.9048L84.2862 82.9419C84.2807 82.9119 84.2807 82.8812 84.2862 82.8513V28.501C84.3003 28.3264 84.3531 28.1572 84.4407 28.0055C84.5283 27.8538 84.6485 27.7235 84.7926 27.624L131.871 0.448866C131.897 0.430703 131.927 0.418089 131.958 0.41181M131.983 6.5778e-05C131.871 0.00340387 131.761 0.0360557 131.666 0.0947684L84.5868 27.2699C84.3798 27.4059 84.2076 27.5884 84.0839 27.8029C83.9602 28.0174 83.8885 28.2579 83.8744 28.5051V82.8554C83.8744 83.1766 84.035 83.3618 84.2862 83.3618C84.3984 83.3589 84.5078 83.3262 84.6032 83.2672L131.682 56.092C131.89 55.957 132.063 55.7747 132.187 55.56C132.311 55.3453 132.382 55.1043 132.394 54.8568V0.506513C132.394 0.185352 132.234 -0.00405167 131.983 6.5778e-05Z" fill="#3f51b5"/>
<path opacity="0.7" d="M131.954 0.407692C131.957 0.437795 131.957 0.468174 131.954 0.498276V54.8485C131.94 55.0238 131.888 55.1939 131.8 55.3463C131.713 55.4988 131.592 55.6297 131.447 55.7297L84.3685 82.9048L84.2862 82.9419C84.2807 82.9119 84.2807 82.8812 84.2862 82.8513V28.501C84.3003 28.3264 84.3531 28.1572 84.4407 28.0055C84.5283 27.8538 84.6485 27.7235 84.7926 27.624L131.871 0.448866C131.897 0.430703 131.927 0.418089 131.958 0.41181M131.983 6.5778e-05C131.871 0.00340387 131.761 0.0360557 131.666 0.0947684L84.5868 27.2699C84.3798 27.4059 84.2076 27.5884 84.0839 27.8029C83.9602 28.0174 83.8885 28.2579 83.8744 28.5051V82.8554C83.8744 83.1766 84.035 83.3618 84.2862 83.3618C84.3984 83.3589 84.5078 83.3262 84.6032 83.2672L131.682 56.092C131.89 55.957 132.063 55.7747 132.187 55.56C132.311 55.3453 132.382 55.1043 132.394 54.8568V0.506513C132.394 0.185352 132.234 -0.00405167 131.983 6.5778e-05Z" fill="white"/>
<path d="M88.8895 30.5763L105.615 20.9209V40.2317L88.8895 49.8871V30.5763Z" fill="#3f51b5"/>
<path opacity="0.8" d="M88.8895 30.5763L105.615 20.9209V40.2317L88.8895 49.8871V30.5763Z" fill="white"/>
<path d="M103.107 25.7339V31.5395L102.58 31.8318V30.0572C102.58 29.0773 101.785 28.7437 100.797 29.3119L93.711 33.4088C92.7269 33.977 91.9282 35.2328 91.9282 36.2128V37.9874L91.4052 38.3003V32.5071L103.107 25.7339Z" fill="white"/>
<path d="M99.8872 40.5159C99.0308 41.01 98.3349 40.4912 98.3349 39.3507V30.0576L96.1815 31.227V40.5942C96.1815 41.7306 95.4856 43.0646 94.6292 43.5464L93.0728 44.444V45.0616L101.435 40.2318V39.6183L99.8872 40.5159Z" fill="white"/>
<path d="M108.946 19.9694C108.946 20.5047 109.427 20.6571 110.016 20.3194L126.288 10.9111C126.577 10.7474 126.824 10.5191 127.01 10.2441C127.195 9.96908 127.315 9.65479 127.359 9.32584C127.359 8.79469 126.877 8.63823 126.288 8.97998L110.028 18.3678C109.735 18.5311 109.484 18.7612 109.296 19.0394C109.108 19.3176 108.988 19.6362 108.946 19.9694Z" fill="#4D4D4D"/>
<path d="M108.946 25.734C108.946 26.2693 109.427 26.4257 110.016 26.084L126.276 16.6962C126.565 16.5326 126.812 16.3043 126.997 16.0293C127.183 15.7542 127.302 15.4399 127.346 15.111C127.346 14.5798 126.865 14.4234 126.276 14.7651L110.016 24.1529C109.728 24.3161 109.481 24.5438 109.296 24.818C109.11 25.0923 108.99 25.4058 108.946 25.734Z" fill="#4D4D4D"/>
<path d="M108.946 31.54C108.946 32.0752 109.427 32.2317 110.016 31.89L126.276 22.5022C126.564 22.3389 126.811 22.1113 126.996 21.837C127.182 21.5628 127.302 21.2493 127.346 20.9211C127.346 20.3858 126.865 20.2293 126.276 20.5711L110.016 29.9589C109.728 30.1221 109.481 30.3497 109.296 30.624C109.11 30.8983 108.99 31.2118 108.946 31.54Z" fill="#4D4D4D"/>
<path d="M108.946 37.3329C108.946 37.8682 109.427 38.0247 110.016 37.6829L126.276 28.2951C126.564 28.1319 126.811 27.9043 126.996 27.63C127.182 27.3557 127.302 27.0423 127.346 26.714C127.346 26.1788 126.865 26.0223 126.276 26.3641L110.016 35.7518C109.728 35.9151 109.481 36.1427 109.296 36.417C109.11 36.6912 108.99 37.0047 108.946 37.3329Z" fill="#4D4D4D"/>
<path d="M88.8895 54.7167C88.8895 55.252 89.3671 55.4085 89.9601 55.0667L126.288 34.0677C126.577 33.905 126.824 33.6775 127.01 33.4031C127.195 33.1288 127.315 32.815 127.359 32.4866C127.359 31.9514 126.877 31.799 126.288 32.1367L89.9601 53.1356C89.6712 53.2981 89.4242 53.5255 89.2384 53.8C89.0526 54.0744 88.9331 54.3882 88.8895 54.7167Z" fill="#4D4D4D"/>
<path d="M88.8895 60.51C88.8895 61.0452 89.3671 61.2017 89.9601 60.8599L126.288 39.8857C126.577 39.722 126.824 39.4937 127.01 39.2187C127.195 38.9437 127.315 38.6294 127.359 38.3005C127.359 37.7693 126.877 37.6128 126.288 37.9546L89.9601 58.9288C89.6712 59.0913 89.4242 59.3188 89.2384 59.5932C89.0526 59.8676 88.9331 60.1814 88.8895 60.51Z" fill="#4D4D4D"/>
<path d="M88.8895 66.3075C88.8895 66.8387 89.3671 66.9951 89.9601 66.6534L126.288 45.6791C126.577 45.5155 126.824 45.2872 127.01 45.0122C127.195 44.7372 127.315 44.4228 127.359 44.0939C127.359 43.5628 126.877 43.4063 126.288 43.748L89.9601 64.7223C89.6707 64.8852 89.4233 65.1133 89.2375 65.3884C89.0517 65.6636 88.9325 65.9783 88.8895 66.3075Z" fill="#4D4D4D"/>
<path d="M65.4736 128.052L77.1795 76.8766L142.408 39.2144L130.702 90.3942L65.4736 128.052Z" fill="#3f51b5"/>
<path d="M81.4328 80.8831V118.842L96.4862 110.15V72.1953L81.4328 80.8831Z" fill="#3f51b5"/>
<path opacity="0.2" d="M81.4328 80.8831V118.842L96.4862 110.15V72.1953L81.4328 80.8831Z" fill="black"/>
<path d="M108.974 141.327C107.694 140.372 95.3498 130.939 89.0748 117.446C82.3963 103.101 82.4045 86.3676 82.4045 80.072V79.8743L127.153 54.0415C127.153 60.3947 127.153 77.1527 133.86 91.5473C139.991 104.723 151.862 114.037 153.743 115.461L108.974 141.327Z" fill="white"/>
<path d="M126.947 54.412C126.947 61.0328 127.075 77.4697 133.675 91.6501C139.6 104.373 150.865 113.522 153.373 115.453L108.987 141.08C107.253 139.775 95.3745 130.498 89.2642 117.376C82.5939 103.072 82.5939 86.3716 82.5939 80.0842V80.006L126.931 54.4078M127.342 53.6955L82.1822 79.7713C82.1822 85.6963 82.0587 102.911 88.873 117.549C95.5803 131.915 108.946 141.574 108.946 141.574L154.118 115.494C154.118 115.494 140.736 105.835 134.05 91.469C127.231 76.8314 127.359 59.6164 127.359 53.6914L127.342 53.6955Z" fill="#3f51b5"/>
<path opacity="0.7" d="M126.947 54.412C126.947 61.0328 127.075 77.4697 133.675 91.6501C139.6 104.373 150.865 113.522 153.373 115.453L108.987 141.08C107.253 139.775 95.3745 130.498 89.2642 117.376C82.5939 103.072 82.5939 86.3716 82.5939 80.0842V80.006L126.931 54.4078M127.342 53.6955L82.1822 79.7713C82.1822 85.6963 82.0587 102.911 88.873 117.549C95.5803 131.915 108.946 141.574 108.946 141.574L154.118 115.494C154.118 115.494 140.736 105.835 134.05 91.469C127.231 76.8314 127.359 59.6164 127.359 53.6914L127.342 53.6955Z" fill="white"/>
<path d="M122.249 62.4413L107.97 70.6762C107.684 70.8335 107.44 71.0576 107.26 71.3293C107.079 71.601 106.967 71.9123 106.932 72.2367C106.953 72.7596 107.451 72.9079 108.04 72.5661L122.323 64.3312C122.606 64.1754 122.847 63.9543 123.026 63.6865C123.206 63.4186 123.319 63.1117 123.357 62.7913C123.332 62.2478 122.842 62.0996 122.249 62.4413Z" fill="#4D4D4D"/>
<path d="M122.554 68.0614L108.274 76.2963C107.992 76.4482 107.753 76.669 107.578 76.9382C107.404 77.2074 107.301 77.5163 107.278 77.8362C107.323 78.3426 107.842 78.4785 108.431 78.1368L122.714 69.9019C122.995 69.7506 123.233 69.5302 123.405 69.2615C123.578 68.9928 123.678 68.6846 123.698 68.3661C123.657 67.8555 123.147 67.732 122.554 68.0614Z" fill="#4D4D4D"/>
<path d="M123.126 73.5253L108.843 81.7602C108.254 82.1019 107.826 82.7813 107.896 83.2713C107.966 83.7612 108.505 83.8889 109.098 83.5471L123.381 75.3122C123.97 74.9705 124.39 74.2952 124.316 73.8053C124.242 73.3153 123.715 73.1835 123.126 73.5253Z" fill="#4D4D4D"/>
<path d="M123.982 78.8243L109.699 87.0592C109.11 87.4009 108.703 88.0679 108.801 88.5456C108.9 89.0232 109.46 89.1303 110.037 88.7885L124.316 80.5536C124.909 80.2119 125.304 79.549 125.205 79.0713C125.107 78.5937 124.592 78.4825 123.982 78.8243Z" fill="#4D4D4D"/>
<path d="M125.144 83.9468L110.86 92.1817C110.271 92.5234 109.888 93.174 110.037 93.631C110.185 94.0881 110.749 94.191 111.338 93.8493L125.621 85.6144C126.214 85.2726 126.585 84.6262 126.445 84.165C126.305 83.7039 125.732 83.6051 125.144 83.9468Z" fill="#4D4D4D"/>
<path d="M126.651 88.8832L91.8417 108.98C91.2529 109.322 90.8947 109.956 91.0553 110.397C91.2158 110.837 91.8293 110.92 92.4181 110.578L127.227 90.4808C127.82 90.139 128.162 89.5091 128.001 89.0644C127.841 88.6197 127.219 88.5415 126.651 88.8832Z" fill="#4D4D4D"/>
<path d="M128.483 93.5981L93.6781 113.695C93.0852 114.037 92.7599 114.655 92.9575 115.075C93.1552 115.495 93.781 115.561 94.3822 115.219L129.191 95.1216C129.784 94.7798 130.101 94.1622 129.903 93.7423C129.706 93.3223 129.076 93.2605 128.483 93.5981Z" fill="#4D4D4D"/>
<path d="M130.768 98.0898L95.9591 118.187C95.3662 118.529 95.0739 119.13 95.3086 119.529C95.5433 119.929 96.2144 119.97 96.8073 119.628L131.591 99.5309C132.18 99.1933 132.464 98.5962 132.23 98.1968C131.995 97.7975 131.344 97.7481 130.768 98.0898Z" fill="#4D4D4D"/>
<path d="M133.432 102.339L98.6272 122.432C98.0343 122.774 97.7708 123.363 98.0384 123.737C98.3061 124.112 99.0102 124.149 99.6031 123.803L134.408 103.706C135.001 103.364 135.256 102.784 134.988 102.405C134.721 102.026 134.025 101.997 133.432 102.339Z" fill="#4D4D4D"/>
<path d="M136.471 106.379L101.662 126.472C101.073 126.813 100.838 127.386 101.135 127.744C101.431 128.102 102.16 128.119 102.753 127.777L137.562 107.671C138.151 107.33 138.385 106.766 138.081 106.407C137.776 106.049 137.064 106.024 136.471 106.379Z" fill="#4D4D4D"/>
<path d="M139.826 110.224L105.03 130.317C104.437 130.659 104.206 131.219 104.552 131.552C104.898 131.886 105.631 131.894 106.22 131.552L141.029 111.455C141.622 111.113 141.827 110.562 141.498 110.22C141.169 109.878 140.428 109.887 139.826 110.224Z" fill="#4D4D4D"/>
<path d="M143.532 113.901L108.723 133.994C108.134 134.336 107.941 134.883 108.311 135.209C108.682 135.534 109.44 135.522 110.033 135.18L144.813 115.083C145.401 114.741 145.587 114.206 145.224 113.876C144.862 113.547 144.109 113.559 143.532 113.901Z" fill="#4D4D4D"/>
<path d="M102.794 73.6777L86.3737 83.1479C86.5549 89.0976 87.2343 97.6783 89.7212 106.321L106.146 96.8507C103.655 88.2082 102.975 79.6233 102.794 73.6777Z" fill="#3f51b5"/>
<path opacity="0.8" d="M102.794 73.6777L86.3737 83.1479C86.5549 89.0976 87.2343 97.6783 89.7212 106.321L106.146 96.8507C103.655 88.2082 102.975 79.6233 102.794 73.6777Z" fill="white"/>
<path d="M93.0687 81.8383C93.0908 81.4543 93.0311 81.0699 92.8934 80.7107C92.7556 80.3515 92.5431 80.0257 92.2699 79.7549L86.3737 83.1559C86.4231 84.7287 86.5055 86.4869 86.6496 88.3809C87.4166 88.4692 88.1924 88.3257 88.8771 87.9692C91.1952 86.9069 93.0687 84.1523 93.0687 81.8383Z" fill="#3f51b5"/>
<path opacity="0.6" d="M93.0687 81.8383C93.0908 81.4543 93.0311 81.0699 92.8934 80.7107C92.7556 80.3515 92.5431 80.0257 92.2699 79.7549L86.3737 83.1559C86.4231 84.7287 86.5055 86.4869 86.6496 88.3809C87.4166 88.4692 88.1924 88.3257 88.8771 87.9692C91.1952 86.9069 93.0687 84.1523 93.0687 81.8383Z" fill="white"/>
<path d="M104.75 91.1686C103.655 89.7892 101.427 85.5277 100.476 83.6707C100.439 83.5973 100.38 83.5368 100.308 83.497C100.236 83.4572 100.153 83.44 100.071 83.4475C99.9894 83.4551 99.9115 83.487 99.8478 83.5393C99.7842 83.5916 99.7376 83.6617 99.7143 83.7407C98.6853 87.258 98.088 90.8874 97.9355 94.549C96.5642 93.4604 95.3853 92.1493 94.4481 90.6704C94.4081 90.6131 94.3526 90.5684 94.2881 90.5416C94.2236 90.5148 94.1527 90.507 94.0839 90.5191C94.0151 90.5312 93.9512 90.5627 93.8998 90.61C93.8483 90.6572 93.8114 90.7181 93.7934 90.7856C91.9982 97.6988 92.8999 104.501 92.8999 104.501L106.146 96.8506C105.594 94.9402 105.137 93.0379 104.75 91.1686Z" fill="#3f51b5"/>
<path opacity="0.6" d="M104.75 91.1686C103.655 89.7892 101.427 85.5277 100.476 83.6707C100.439 83.5973 100.38 83.5368 100.308 83.497C100.236 83.4572 100.153 83.44 100.071 83.4475C99.9894 83.4551 99.9115 83.487 99.8478 83.5393C99.7842 83.5916 99.7376 83.6617 99.7143 83.7407C98.6853 87.258 98.088 90.8874 97.9355 94.549C96.5642 93.4604 95.3853 92.1493 94.4481 90.6704C94.4081 90.6131 94.3526 90.5684 94.2881 90.5416C94.2236 90.5148 94.1527 90.507 94.0839 90.5191C94.0151 90.5312 93.9512 90.5627 93.8998 90.61C93.8483 90.6572 93.8114 90.7181 93.7934 90.7856C91.9982 97.6988 92.8999 104.501 92.8999 104.501L106.146 96.8506C105.594 94.9402 105.137 93.0379 104.75 91.1686Z" fill="white"/>
</svg>
