<svg xmlns="http://www.w3.org/2000/svg" viewBox="0 0 24 30" fill="none" x="0px" y="0px"><path fill-rule="evenodd" clip-rule="evenodd" d="M16.773 7.22694C15.9919 6.44589 14.7256 6.44589 13.9446 7.22694L12 9.17148C11.7071 9.46438 11.2322 9.46438 10.9393 9.17148C10.6465 8.87859 10.6465 8.40372 10.9393 8.11082L12.8839 6.16628C14.2507 4.79945 16.4668 4.79944 17.8336 6.16628C19.2005 7.53312 19.2005 9.74919 17.8336 11.116L15.8891 13.0606C15.5962 13.3535 15.1213 13.3535 14.8284 13.0606C14.5355 12.7677 14.5355 12.2928 14.8284 11.9999L16.773 10.0554C17.554 9.27432 17.554 8.00799 16.773 7.22694Z" fill="black"/><path fill-rule="evenodd" clip-rule="evenodd" d="M7.22703 16.7729C6.44598 15.9918 6.44598 14.7255 7.22703 13.9444L9.17158 11.9999C9.46447 11.707 9.46447 11.2321 9.17158 10.9392C8.87868 10.6463 8.40381 10.6463 8.11092 10.9392L6.16637 12.8838C4.79954 14.2506 4.79954 16.4667 6.16637 17.8335C7.53321 19.2004 9.74928 19.2004 11.1161 17.8335L13.0607 15.889C13.3536 15.5961 13.3536 15.1212 13.0607 14.8283C12.7678 14.5354 12.2929 14.5354 12 14.8283L10.0555 16.7729C9.27441 17.5539 8.00808 17.5539 7.22703 16.7729Z" fill="black"/><path fill-rule="evenodd" clip-rule="evenodd" d="M14.4749 9.52508C14.7678 9.81797 14.7678 10.2928 14.4749 10.5857L10.5858 14.4748C10.2929 14.7677 9.81803 14.7677 9.52513 14.4748C9.23224 14.1819 9.23224 13.7071 9.52513 13.4142L13.4142 9.52508C13.7071 9.23219 14.182 9.23219 14.4749 9.52508Z" fill="black"/><path fill-rule="evenodd" clip-rule="evenodd" d="M18.5836 14.6516C18.5836 15.0658 18.2478 15.4016 17.8336 15.4016H16.4194C16.0052 15.4016 15.6694 15.0658 15.6694 14.6516C15.6694 14.2373 16.0052 13.9016 16.4194 13.9016H17.8336C18.2478 13.9016 18.5836 14.2373 18.5836 14.6516ZM14.6517 15.6693C15.0659 15.6693 15.4017 16.0051 15.4017 16.4193L15.4017 17.8335C15.4017 18.2478 15.0659 18.5835 14.6517 18.5835C14.2374 18.5835 13.9017 18.2477 13.9017 17.8335L13.9017 16.4193C13.9017 16.0051 14.2374 15.6693 14.6517 15.6693Z" fill="black"/><path fill-rule="evenodd" clip-rule="evenodd" d="M9.34835 5.41631C8.93414 5.41631 8.59835 5.75209 8.59835 6.16631V7.58052C8.59835 7.99473 8.93414 8.33052 9.34835 8.33052C9.76257 8.33052 10.0984 7.99473 10.0984 7.58052V6.16631C10.0984 5.75209 9.76257 5.41631 9.34835 5.41631ZM8.33059 9.34829C8.33059 8.93407 7.9948 8.59829 7.58059 8.59829L6.16637 8.59829C5.75216 8.59829 5.41637 8.93407 5.41637 9.34829C5.41637 9.7625 5.75216 10.0983 6.16637 10.0983L7.58059 10.0983C7.9948 10.0983 8.33059 9.7625 8.33059 9.34829Z" fill="black"/><text x="0" y="39" fill="#000000" font-size="5px" font-weight="bold" font-family="'Helvetica Neue', Helvetica, Arial-Unicode, Arial, Sans-serif">Created by Tadu Puasandi</text><text x="0" y="44" fill="#000000" font-size="5px" font-weight="bold" font-family="'Helvetica Neue', Helvetica, Arial-Unicode, Arial, Sans-serif">from the Noun Project</text></svg>