<svg width="18" height="18" viewBox="0 0 18 18" fill="none" xmlns="http://www.w3.org/2000/svg">
<g clip-path="url(#clip0_1235_849)">
<path d="M12.3645 4.94714C12.3645 3.69602 12.3645 2.44447 12.3645 1.17942C8.63071 1.17942 4.91961 1.17942 1.1902 1.17942C1.1902 6.38669 1.1902 11.5948 1.1902 16.8169C4.90565 16.8169 8.61718 16.8169 12.3645 16.8169C12.3645 16.7251 12.3645 16.6337 12.3645 16.5427C12.3645 15.1215 12.3667 13.7002 12.3614 12.2785C12.361 12.1283 12.4042 12.0226 12.5124 11.9182C12.8356 11.6061 13.148 11.2828 13.5009 10.9268C13.5105 11.0352 13.5201 11.0948 13.5201 11.1544C13.521 13.2067 13.5218 15.259 13.521 17.3112C13.521 17.7669 13.2924 17.9988 12.84 17.9988C8.79081 18.0001 4.74163 18.0001 0.69245 17.9988C0.245304 17.9988 0.000573092 17.7573 0.000573092 17.3138C-0.000299388 11.7667 -0.000299388 6.21915 0.00144557 0.671578C0.00144557 0.240759 0.246176 0.000979136 0.682852 0.000979136C4.73945 -0.000326379 8.7956 -0.000326379 12.8522 0.000979136C13.2945 0.000979136 13.521 0.23162 13.5218 0.674625C13.5236 1.68248 13.5236 2.69077 13.5196 3.69863C13.5192 3.77261 13.5061 3.86835 13.4599 3.91665C13.1183 4.27088 12.7663 4.6151 12.4177 4.96281C12.4003 4.95758 12.3824 4.95236 12.3645 4.94714Z" fill="#4D4D4D"/>
<path d="M17.8449 4.32093C17.8492 4.69082 17.7013 4.99283 17.4422 5.25089C15.9254 6.76224 14.4108 8.27533 12.8953 9.78755C12.2274 10.4538 11.5552 11.1157 10.8947 11.7893C10.6172 12.0722 10.3027 12.2685 9.91882 12.3729C9.40754 12.5117 8.90369 12.6762 8.39285 12.8181C8.30735 12.842 8.17168 12.8394 8.1202 12.7881C8.06741 12.7354 8.05913 12.5992 8.08312 12.5143C8.24453 11.943 8.40245 11.369 8.59919 10.8093C8.68295 10.5709 8.8208 10.3276 8.99791 10.1496C11.2188 7.91544 13.4506 5.69215 15.6815 3.46799C16.0746 3.0759 16.5409 2.96885 17.0618 3.16946C17.5395 3.35398 17.8427 3.81265 17.8449 4.32093Z" fill="#4D4D4D"/>
<path d="M6.77762 2.61677C7.99124 2.61677 9.20486 2.61633 10.4185 2.61764C10.5123 2.61764 10.6091 2.61807 10.6999 2.63853C10.9023 2.68422 11.0371 2.86656 11.0318 3.06717C11.0262 3.26692 10.8805 3.44272 10.6785 3.47928C10.5934 3.49451 10.5049 3.49407 10.418 3.49407C7.98382 3.49494 5.54917 3.49495 3.11495 3.49451C2.70532 3.49451 2.49636 3.34002 2.50334 3.04454C2.50989 2.76168 2.71666 2.61677 3.11582 2.61677C4.33599 2.61677 5.55702 2.61677 6.77762 2.61677Z" fill="#4D4D4D"/>
<path d="M6.75538 5.91409C5.50511 5.91409 4.25485 5.91496 3.00415 5.91322C2.70533 5.91279 2.50815 5.74176 2.5016 5.48762C2.49593 5.26612 2.66563 5.07247 2.89771 5.04157C2.96227 5.03287 3.02814 5.03722 3.09358 5.03722C5.53609 5.03722 7.97859 5.03722 10.4211 5.03722C10.8203 5.03722 11.0266 5.18344 11.0318 5.46848C11.0375 5.76309 10.8303 5.91366 10.4185 5.91409C9.19789 5.91409 7.97685 5.91409 6.75538 5.91409Z" fill="#4D4D4D"/>
<path d="M9.90532 7.48414C9.61086 7.77309 9.35653 8.03071 9.0913 8.27615C9.04113 8.32271 8.9469 8.34099 8.87318 8.34142C6.91751 8.34491 4.96185 8.34534 3.00619 8.34273C2.70126 8.34229 2.49622 8.14995 2.50233 7.88972C2.50844 7.63601 2.69166 7.46542 2.98219 7.46542C5.24323 7.46281 7.50426 7.46368 9.76529 7.46412C9.79277 7.46455 9.82025 7.47195 9.90532 7.48414Z" fill="#4D4D4D"/>
<path d="M7.60905 9.87804C7.51264 10.1479 7.43281 10.3942 7.33422 10.6326C7.31154 10.6875 7.22603 10.7514 7.16932 10.7519C5.76114 10.758 4.35339 10.7588 2.94521 10.7519C2.67474 10.7506 2.49894 10.5587 2.50199 10.3141C2.50548 10.0721 2.69001 9.88066 2.95306 9.87978C4.4991 9.87587 6.04513 9.87804 7.60905 9.87804Z" fill="#4D4D4D"/>
<path d="M6.80033 12.3125C6.81997 12.6019 6.83872 12.8795 6.85792 13.1685C6.82258 13.1711 6.76631 13.1785 6.71047 13.1785C5.4698 13.1789 4.22914 13.1798 2.98847 13.1781C2.74636 13.1776 2.57622 13.061 2.52213 12.8643C2.46847 12.668 2.52431 12.5018 2.69183 12.3887C2.75988 12.3425 2.85193 12.3082 2.93307 12.3077C4.21736 12.3034 5.50165 12.3055 6.7855 12.3073C6.79903 12.3073 6.81211 12.3173 6.80033 12.3125Z" fill="#4D4D4D"/>
</g>
<defs>
<clipPath id="clip0_1235_849">
<rect width="17.8448" height="18" fill="white"/>
</clipPath>
</defs>
</svg>
