<svg width="24" height="24" viewBox="0 0 24 24" fill="none" xmlns="http://www.w3.org/2000/svg">
<path d="M16.486 6.59619C16.486 4.92803 16.486 3.25929 16.486 1.57256C11.5076 1.57256 6.55949 1.57256 1.58693 1.57256C1.58693 8.51558 1.58693 15.4598 1.58693 22.4225C6.54087 22.4225 11.4896 22.4225 16.486 22.4225C16.486 22.3001 16.486 22.1782 16.486 22.057C16.486 20.1619 16.4889 18.2669 16.4819 16.3713C16.4813 16.1711 16.5389 16.0301 16.6832 15.8909C17.1142 15.4748 17.5306 15.0437 18.0012 14.5691C18.014 14.7136 18.0268 14.7931 18.0268 14.8726C18.0279 17.6089 18.0291 20.3453 18.0279 23.0816C18.0279 23.6891 17.7232 23.9984 17.12 23.9984C11.7211 24.0001 6.32217 24.0001 0.923266 23.9984C0.327072 23.9984 0.000764123 23.6764 0.000764123 23.0851C-0.000399184 15.6889 -0.000399184 8.29219 0.00192743 0.895438C0.00192743 0.321012 0.328235 0.00130551 0.91047 0.00130551C6.31926 -0.000435172 11.7275 -0.000435172 17.1363 0.00130551C17.7261 0.00130551 18.0279 0.308827 18.0291 0.8995C18.0314 2.24331 18.0314 3.5877 18.0262 4.93151C18.0256 5.03015 18.0082 5.1578 17.9465 5.2222C17.4911 5.69451 17.0217 6.15347 16.5569 6.61707C16.5337 6.61011 16.5098 6.60315 16.486 6.59619Z" fill="#3f51b5"/>
<path d="M23.7935 5.76091C23.7993 6.25411 23.6021 6.65678 23.2566 7.00086C21.2342 9.01599 19.2147 11.0334 17.194 13.0497C16.3035 13.9381 15.4072 14.8206 14.5266 15.7188C14.1566 16.0959 13.7373 16.3576 13.2254 16.4969C12.5437 16.682 11.8719 16.9013 11.1908 17.0905C11.0768 17.1224 10.8959 17.1189 10.8273 17.0504C10.7569 16.9802 10.7458 16.7986 10.7778 16.6855C10.993 15.9236 11.2036 15.1583 11.4659 14.4121C11.5776 14.0942 11.7614 13.7698 11.9975 13.5325C14.9587 10.5536 17.9345 7.58921 20.9091 4.62366C21.4331 4.10088 22.0549 3.95814 22.7494 4.22563C23.3863 4.47164 23.7906 5.0832 23.7935 5.76091Z" fill="#3f51b5"/>
<path d="M9.03715 3.48837C10.6553 3.48837 12.2735 3.48779 13.8916 3.48953C14.0167 3.48953 14.1458 3.49011 14.2668 3.51739C14.5367 3.57831 14.7164 3.82143 14.7094 4.08891C14.7019 4.35524 14.5076 4.58965 14.2383 4.63839C14.1249 4.6587 14.0068 4.65812 13.891 4.65812C10.6454 4.65928 7.39922 4.65928 4.15359 4.6587C3.60742 4.6587 3.32881 4.45271 3.33812 4.05874C3.34684 3.68159 3.62254 3.48837 4.15476 3.48837C5.78164 3.48837 7.40969 3.48837 9.03715 3.48837Z" fill="#3f51b5"/>
<path d="M9.00685 7.88545C7.33983 7.88545 5.67281 7.88662 4.00521 7.8843C3.60678 7.88371 3.34387 7.65568 3.33514 7.31683C3.32758 7.02149 3.55385 6.76329 3.86329 6.7221C3.94937 6.71049 4.0372 6.71629 4.12445 6.71629C7.38112 6.71629 10.6378 6.71629 13.8945 6.71629C14.4267 6.71629 14.7018 6.91125 14.7088 7.2913C14.7164 7.68412 14.4401 7.88487 13.891 7.88545C12.2635 7.88545 10.6355 7.88545 9.00685 7.88545Z" fill="#3f51b5"/>
<path d="M13.2068 9.98048C12.8142 10.3657 12.475 10.7092 12.1214 11.0365C12.0545 11.0986 11.9289 11.1229 11.8306 11.1235C9.22303 11.1282 6.61548 11.1287 4.00792 11.1253C3.60135 11.1247 3.32797 10.8682 3.33611 10.5212C3.34426 10.183 3.58855 9.95553 3.97593 9.95553C6.99064 9.95205 10.0054 9.95321 13.0201 9.95379C13.0567 9.95437 13.0933 9.96423 13.2068 9.98048Z" fill="#3f51b5"/>
<path d="M10.1454 13.1688C10.0169 13.5285 9.91041 13.8569 9.77896 14.1749C9.74872 14.248 9.63471 14.3333 9.5591 14.3339C7.68152 14.342 5.80453 14.3432 3.92695 14.3339C3.56632 14.3321 3.33192 14.0762 3.33599 13.7502C3.34064 13.4276 3.58668 13.1723 3.93742 13.1711C5.9988 13.1659 8.06018 13.1688 10.1454 13.1688Z" fill="#3f51b5"/>
<path d="M9.06646 16.416C9.09264 16.8019 9.11765 17.1721 9.14324 17.5573C9.09613 17.5608 9.02109 17.5707 8.94664 17.5707C7.29242 17.5713 5.6382 17.5724 3.98398 17.5701C3.66116 17.5695 3.43431 17.414 3.36219 17.1518C3.29065 16.8901 3.3651 16.6684 3.58845 16.5176C3.67919 16.4561 3.80192 16.4102 3.91011 16.4096C5.62249 16.4038 7.33488 16.4067 9.04669 16.4091C9.06472 16.4091 9.08217 16.4224 9.06646 16.416Z" fill="#3f51b5"/>
</svg>
